<?xml version="1.0" encoding="UTF-8"?>
<svg id="Layer_1" data-name="Layer 1" xmlns="http://www.w3.org/2000/svg" viewBox="0 0 676.954 590.98">
  <defs>
    <style>
      .cls-1 {
        fill: #fff;
        fill-rule: evenodd;
      }
    </style>
  </defs>
  <path id="_Path_경산" data-name="&amp;lt;Path&amp;gt;경산" class="cls-1" d="m330.602,311.421c0-.743-.053-1.772.002-2.793.104-1.774.249-3.547.421-5.314.152-1.547-.223-2.944-1.094-4.201-.67-.969-1.382-1.929-2.152-2.819-.961-1.107-1.171-2.379-.939-3.739.181-1.017.511-2.003.743-3.012.266-1.199.085-2.354-.426-3.465-.564-1.219-1.302-2.322-2.249-3.274-.944-.942-1.856-1.921-2.834-2.821-1.731-1.586-2.682-3.586-2.754-5.868-.089-3.017-.912-5.825-1.854-8.636-.891-2.666-1.704-5.355-2.52-8.042-.479-1.604-1.389-2.915-2.527-4.112-2.186-2.303-4.681-4.092-7.832-4.777-1.731-.376-2.89-1.387-3.689-2.921-.339-.652-.772-1.262-1.13-1.906-1.416-2.555-3.701-3.732-6.499-4.04-1.769-.194-3.541-.345-5.313-.444-2.704-.154-5.279.468-7.767,1.483-1.346.551-2.144,1.539-2.282,3.013-.058.588-.104,1.18-.189,1.767-.506,3.604-2.285,6.35-5.543,8.064-1.561.823-3.055,1.831-4.899,1.963-.145.012-.286.084-.416.145-4.657,2-9.59,2.975-14.52,3.963-2.314.466-4.642.908-6.879,1.708-.545.194-1.179.258-1.748.199-.375-.042-.724-.402-1.067-.646-.107-.082-.177-.243-.218-.38-.329-1.128-.484-2.342-1.014-3.361-.54-1.024-1.455-1.849-2.195-2.774-.278-.344-.562-.696-.772-1.086-1.956-3.643-3.979-7.252-5.816-10.955-1.501-3.044-3.067-6.074-4.204-9.292-.245-.691-.656-1.325-1.024-1.968-.789-1.37-2.031-2.152-3.546-2.426-1.302-.241-2.638-.3-3.965-.471-.77-.104-1.377-.525-1.825-1.145-.433-.6-.808-1.239-1.213-1.859-.319-.496-.593-1.034-.98-1.475-2.072-2.377-4.541-2.892-7.489-.897-1.096.748-2.072,1.675-3.11,2.511-1.045.845-2.193,1.541-3.48,1.913-3.159.914-3.691.762-5.783-1.703-1.174-1.376-1.844-3.034-1.658-4.918.162-1.618.281-3.243.523-4.853.162-1.065.816-1.921,1.735-2.465.884-.52,1.898-.83,2.767-1.376.462-.288.755-.863,1.104-1.324.085-.114.118-.275.133-.419.218-2.831,2.077-4.501,4.277-5.844,1.249-.764,2.636-1.316,3.989-1.899.951-.406,1.951-.698,2.924-1.053,1.007-.367,1.815-.955,2.307-1.953.257-.528.593-1.029.944-1.502.733-.998,1.031-2.114,1.005-3.334-.014-.741-.073-1.484.007-2.212.078-.754.433-1.413,1.094-1.849.997-.655,2.031-1.22,3.277-1.178.743.03,1.486.087,2.222.078,1.789-.023,2.82-.881,3.04-2.57.174-1.322.264-2.653.421-3.976.065-.588.177-1.17.307-1.745.232-1.001,1.249-1.854,2.253-1.814,1.031.042,2.057.159,3.076.319.426.064.823.32,1.23.488,2.396,1.002,3.623.407,4.969-1.447.428-.597.791-1.249,1.13-1.908.927-1.793,2.539-2.527,4.393-2.443,1.822.08,3.529-.201,5.219-.761.554-.183,1.099-.468,1.568-.814,1.14-.851,1.779-1.966,1.542-3.445-.048-.293-.128-.58-.21-.863-.854-2.979-.581-5.858.716-8.656.123-.269.235-.546.339-.823.44-1.215.261-2.328-.598-3.306-.286-.333-.646-.612-.917-.96-.448-.56-.363-1.648.172-2.017,2.077-1.426,4.26-2.675,6.612-3.562,1.128-.426,2.363-.211,3.507.109.995.28,1.946.704,2.919,1.055.833.303,1.651.779,2.51.856,2.476.225,4.454,1.464,6.407,2.824.365.253.743.485,1.099.75,4.599,3.426,3.914,2.687,8.944,3.183,1.472.146,2.955.206,4.425.357,1.314.138,2.295-.459,3.161-1.314,1.082-1.072,1.789-2.351,1.932-3.893.23-2.509.501-5.011.661-7.523.23-3.593,1.072-6.987,2.742-10.201.954-1.827,1.658-3.786,2.476-5.683.741-1.728.852-3.431-.206-5.087-.496-.778-.639-1.613-.554-2.54.148-1.672,2.44-3.649,4.033-3.51,1.772.154,3.548.213,5.315.39,1.278.128,2.324-.281,3.246-1.116,1.094-.986,2.173-2.01,3.294-2.975.44-.379.944-.746,1.484-.939.351-.121.944-.057,1.21.177.549.468,1.014,1.07,1.396,1.687.47.751.799,1.584,1.222,2.365.436.804,1.365,1.284,2.229,1.128.574-.104,1.133-.315,1.699-.482.91-.259,1.82-.171,2.52.432,1.941,1.66,3.909,1.883,6.09.461.765-.501,1.723-.419,2.602-.238.557.116,1.176.31,1.59.674,1.336,1.173,2.556,2.469,3.367,4.089,1.121,2.248,2.278,4.484,3.374,6.742.685,1.405,1.687,2.308,3.18,2.883,3.609,1.388,7.24,2.533,11.144,2.734,1.762.086,3.515.201,5.223.873,3.166,1.251,5.431,3.548,7.421,6.139.973,1.261,2.011,2.557,2.043,4.34.012.525.411,1.1.772,1.543,1.157,1.438,1.685,3.119,1.956,4.883.649,4.248.307,8.355-2.638,11.735-2.118,2.435-2.749,5.205-2.49,8.242.203,2.365.174,4.724.259,7.086.056,1.616.397,3.228.685,4.821.552,3.073.625,6.178.552,9.272-.056,2.253.061,4.439.818,6.56.431,1.213.305,2.337-.375,3.386-.806,1.239-1.651,2.448-2.515,3.648-1.034,1.442-2.144,2.831-3.134,4.299-.806,1.187-.963,2.523-.177,3.772,1.832,2.897.762,3.33-1.244,4.421-2.031,1.108-3.444,2.749-3.965,5.074-.165.719-.469,1.408-.602,2.131-.177.92.06,1.777.753,2.434.535.503,1.162.915,1.702,1.421,1.549,1.457,2.648,3.137,2.868,5.345.148,1.462.724,2.862.549,4.38-.123,1.093-.436,2.074-1.491,2.545-3.621,1.629-3.415,2.578-3.679,6.321-.01.145-.031.294-.007.438.559,3.562-.078,7.088-.308,10.626-.191,2.954-.532,5.906-.586,8.86-.06,3.488-1.021,6.7-2.481,9.807-.813,1.743-1.646,3.478-2.537,5.186-.557,1.073-.862,2.186-.956,3.385-.169,2.214-.341,4.432-.595,6.636-.249,2.225-1.481,3.817-3.434,4.855-.52.275-1.099.436-1.639.676-2.849,1.259-4.921,3.285-5.862,6.291-.634,2.027-1.791,3.723-3.023,5.39-.349.471-.755.908-1.172,1.324-1.014,1.001-2.081,1.029-3.137.109-1.22-1.059-2.445-2.107-3.892-3.348"/>
  <path id="_Path_경주" data-name="&amp;lt;Path&amp;gt;경주" class="cls-1" d="m359.032,556.496c-1.101-1.554-2.186-3.135-3.323-4.679-.537-.733-1.28-1.218-2.215-1.343-.879-.116-1.784-.17-2.631-.404s-1.665-.608-2.437-1.031c-.968-.533-1.426-1.46-1.593-2.537-.017-.143-.053-.305-.019-.44.702-3.251-1.099-5.678-2.73-8.142-1.225-1.851-2.532-3.64-3.788-5.473-.68-.98-1.106-2.077-1.474-3.212-.385-1.217-.319-2.311.322-3.41.818-1.404,1.484-2.907,2.413-4.236,1.542-2.188,2.793-4.536,3.999-6.91,1.208-2.379,2.587-4.647,4.325-6.692.574-.673,1.053-1.431,1.622-2.111,1.673-1.992,2.694-4.211,2.643-6.881-.019-.876.16-1.765.264-2.643.235-1.941.886-3.73,1.978-5.356.992-1.471,1.932-2.984,2.982-4.415,1-1.36,1.513-2.844,1.668-4.514.194-2.052.503-4.064,1.111-6.078,1.05-3.481,3.326-5.86,6.083-7.936.351-.264.76-.462,1.164-.644,1.264-.581,2.183-1.467,2.747-2.759.291-.678.731-1.285,1.084-1.929.535-.971,1.346-1.549,2.404-1.813,2.016-.511,4.032-.823,6.143-.596,3.967.431,3.95.17,5.24,4.112.179.559.382,1.147.731,1.597.348.445.84.951,1.348,1.048,1.297.252,2.636.361,3.957.392,1.534.046,2.704-1.711,2.144-3.142-.215-.549-.537-1.05-.789-1.585-.828-1.733-1.661-3.464-2.459-5.206-.523-1.135-.443-2.326-.094-3.476.247-.849.697-1.641.934-2.493.649-2.316.826-4.642.01-6.983-1.092-3.13-1.21-6.375-1.036-9.645.06-1.152.67-1.627,1.697-1.343.854.235,1.697.54,2.563.709.569.109,1.176.058,1.762.027,1.322-.073,2.21-1.186,1.905-2.428-.276-1.147-.653-2.273-.92-3.425-.353-1.552-.041-3.016,1.15-4.076,2.043-1.818,3.423-4.057,4.546-6.496.121-.269.254-.537.426-.775.665-.927,1.588-1.285,2.706-1.116.937.138,1.68.576,2.048,1.486.787,1.932,1.324,3.914,1.319,6.02-.002,1.029.039,2.062.097,3.091.029.501.874.983,1.372.828.283-.085.603-.107.85-.254,3.948-2.374,8.263-3.955,12.458-5.807.138-.06.283-.092.419-.145,2.57-1.058,4.526-2.776,5.722-5.31.249-.53.562-1.053.712-1.614.782-2.958,3.072-4.231,5.7-5.059,1.452-.453,2.946-.257,4.342.341,1.225.528,2.36,1.222,3.267,2.237,1.51,1.68,1.675,2.481.564,4.352-1.598,2.689-2.793,5.548-3.926,8.445-.385.983-.552,1.975-.724,2.997-.31,1.808.206,3.156,1.762,4.187.855.566,1.561,1.353,2.324,2.06,2.411,2.229,3.645,4.991,3.544,8.283-.039,1.2.143,2.331.465,3.49.566,1.987,1.067,3.998,1.426,6.032.622,3.517,1.627,6.9,3.016,10.185,1.154,2.733,1.924,5.589,2.556,8.484.416,1.881.629,3.781.414,5.727-.148,1.322-.177,2.66-.167,3.991.005.876.15,1.757.254,2.636.15,1.295.888,2.164,2.041,2.696.941.433,1.902.808,2.846,1.227.728.329,1.15.91,1.244,1.704.191,1.617.324,3.238.562,4.848.213,1.467,1.169,2.35,2.539,2.781.564.174,1.15.293,1.738.346,2.207.208,4.427.366,6.639.576,1.888.174,3.437-.494,4.899-1.653,1.525-1.213,2.662-2.75,3.856-4.245.213-.266.968-.315,1.242-.114.116.085.288.126.375.232,1.607,1.924,3.318,3.786,4.773,5.831.842,1.181,1.249,2.665,1.89,3.996.416.866,1.174,1.348,2.12,1.372,2.22.058,4.437.007,6.647.109.53.027,1.07.407,1.549.717.368.235.646.61.958.922.874.876,1.924,1.324,3.156,1.44.886.085,1.755.259,2.612.47.215.051.443.382.494.624.061.252-.034.583-.176.813-.145.237-.392.438-.646.578-1.914,1.087-2.045,2.728-1.435,4.599.232.702.482,1.397.729,2.096.511,1.452.346,2.917.075,4.381-.172.915-.709,1.656-1.355,2.244-2.653,2.423-3.398,5.422-2.963,8.873.208,1.612.278,3.246.315,4.87.046,1.864-.668,3.468-1.982,4.788-.629.627-1.254,1.261-1.939,1.827-1.01.842-1.295,1.941-1.264,3.173.01.593.06,1.188.174,1.764.303,1.557-.014,2.888-1.109,4.105-1.963,2.173-2.774,4.848-2.979,7.716-.128,1.774-.191,3.546-.276,5.322-.053,1.067-.397,2.016-1.101,2.837-2.026,2.363-3.79,4.911-5.327,7.622-.399.709-1.092.927-1.898.837-.905-.102-1.689-.455-2.416-1.016-1.401-1.084-2.844-2.123-4.274-3.173-1.699-1.239-3.565-2.007-5.676-2.34-2.181-.346-4.361-.876-6.443-1.598-1.372-.474-2.592-1.401-3.844-2.178-.929-.581-1.873-.835-2.95-.537-1.992.554-3.972,1.058-5.853,2.023-2.22,1.143-4.669,1.813-6.894,3.006-.617.332-1.423.324-2.144.455-.874.152-1.745.252-2.612.441-1.866.404-3.275,1.338-3.713,3.345-.027.145-.085.283-.147.409-.259.525-.864.811-1.484.699-3.243-.588-6.194-1.931-9.086-3.427-.261-.136-.494-.329-.716-.518-1.542-1.268-1.818-3.633-.513-5.167.758-.9,1.656-1.677,2.512-2.493.566-.542.884-1.203.946-1.953.092-1.024.182-2.067.102-3.093-.31-3.914-1.644-5.516-5.407-6.591-.566-.165-1.162-.232-1.745-.3-1.118-.116-2.031-.639-2.503-1.619-.954-1.975-2.641-3.144-4.364-4.303-1.005-.675-2.079-1.152-3.309-1.13-1.997.041-3.769-.6-5.439-1.644-.373-.235-.784-.426-1.203-.554-.729-.218-1.467-.218-2.149.174-.511.293-1.021.612-1.457,1-1.293,1.133-2.73,1.009-4.182.496-.83-.298-1.636-.695-2.408-1.133-2.798-1.588-5.485-1.087-7.895.685-1.343.988-2.692,1.728-4.284,2.193-2.553.741-5.066,1.629-7.59,2.454-.857.286-1.624.714-2.229,1.404-.99,1.125-2.202,1.946-3.505,2.689-1.549.893-2.81,2.154-3.897,3.577-1.201,1.588-1.856,3.185-1.44,5.337.445,2.309.462,4.701.971,7.017.293,1.329-.353,2.038-1.631,1.832-.728-.118-1.467-.223-2.169-.448-1.631-.527-2.81-1.462-3.277-3.267-.593-2.302-1.133-4.594-1.089-6.99.015-.736.007-1.474.015-2.28"/>
  <path id="_Path_봉화" data-name="&amp;lt;Path&amp;gt;봉화" class="cls-1" d="m292.441,112.17c.102-1.18.191-2.361.295-3.539.09-.948.552-1.665,1.358-2.169.632-.387,1.285-.736,1.881-1.165,2.159-1.561,2.619-4.494,1.096-6.674-.949-1.366-2.186-2.337-3.65-3.148-2.694-1.492-5.606-1.941-8.576-1.772-2.549.143-4.846,1.268-6.922,2.76-.719.513-1.365,1.121-2.065,1.669-.429.336-1.232.244-1.615-.179-.501-.544-.99-1.1-1.462-1.668-.697-.828-1.029-1.783-.939-2.873.078-1.031.104-2.072.225-3.098.215-1.819-.082-3.405-1.114-5.039-1.607-2.567-1.063-5.504,1.036-7.73.307-.322.617-.652.978-.908,2.66-1.947,4.132-4.575,4.514-7.829.141-1.2.571-2.296,1.147-3.339.714-1.299,1.44-2.548,2.662-3.495,1.682-1.294,2.726-3.068,3.481-5.054,1.21-3.179,2.425-6.347,2.537-9.806.022-.742.165-1.478.169-2.217.041-4.951,2.374-9.073,4.768-13.165.775-1.322,1.907-2.218,3.461-2.546.862-.185,1.704-.492,2.558-.738,1.781-.513,3.422-.572,4.955.84,1.66,1.532,3.798,1.435,5.879,1.269.668-.055,1.61-1.059,1.777-1.826.31-1.453.467-2.92.264-4.405-.06-.438-.177-.875-.194-1.316-.029-.607.208-1.153.6-1.619.191-.223.368-.49.612-.637,3.786-2.233,3.328-2.94,3.795-6.43.034-.284.186-.554.278-.835.131-.396.922-.981,1.394-.963,1.782.057,3.524.303,5.117,1.167.385.211.796.449,1.075.778,1.479,1.721,3.347,2.878,5.335,3.902.387.201.777.478,1.038.821.339.454.685.977.794,1.519.167.858.043,1.778.208,2.639.266,1.374,1.034,2.454,2.333,3.053,2.706,1.237,5.565,1.993,8.491,2.447,2.481.381,4.993.615,7.489.887,1.075.116,2.055-.118,2.827-.962.496-.545,1.026-1.063,1.527-1.606.731-.781,1.167-1.696,1.266-2.77.077-.886.177-1.77.305-2.648.254-1.673,1.014-3.115,2.27-4.211,2.232-1.953,4.585-3.748,7.356-4.903.688-.288,1.547-.094,1.999.481.184.234.348.483.496.736,1.329,2.256,3.495,3.091,5.913,3.443,1.319.194,2.653.248,3.981.364,1.469.127,2.943.27,4.422.372,2.007.139,3.72.888,5.117,2.345.208.215.431.411.622.634.833.972,1.943,1.291,3.161,1.371,1.329.084,2.66.193,3.991.263,1.092.057,1.999.455,2.721,1.283.387.447.76.922,1.222,1.279,1.264.969,2.699,1.205,4.19.687.525-.181,1.051-.598,1.38-1.047.607-.828,1.135-1.732,1.588-2.659,1.764-3.661,4.967-5.339,8.672-6.279.668-.168,1.51-.076,2.162.177,1.089.426,2.106,1.055,3.127,1.645,1.402.813,2.774,1.691,4.178,2.502,2.428,1.41,4.879,2.779,7.302,4.191,1.026.603,1.936,1.374,2.621,2.36.924,1.336,1.912,2.644,2.72,4.047.508.88.961,1.897,1.043,2.885.126,1.525.612,2.873,1.235,4.221.235.513-.031,1.164-.501,1.566-1.888,1.613-3.998,2.454-6.53,2.135-1.617-.206-3.183-.392-4.725-1.071-2.786-1.227-5.814-1.26-8.735-.799-2.677.425-4.986,1.842-6.646,4.092-.337.456-.6,1.047-.67,1.605-.155,1.164-.242,2.356-.203,3.534.152,4.602-.206,9.155-1.128,13.672-.235,1.152-.329,2.342-.39,3.519-.065,1.13.499,1.98,1.474,2.538.508.293,1.017.669,1.571.806,1.627.391,2.486,1.509,3.045,2.954.898,2.298,2.469,3.983,4.577,5.244.876.521,1.622,1.269,2.396,1.951,1.099.984,2.205,1.965,3.239,3.022.385.396.762.981.811,1.512.17,2.057.557,4.103.288,6.191-.228,1.772-.169,3.527.545,5.229.317.747.031,1.458-.622,1.953-.472.352-.98.662-1.481.974-5.073,3.185-9.43,7.126-12.828,12.092-.668.972-1.367,1.928-2.113,2.848-1.692,2.097-3.669,3.85-6.097,5.064-2.249,1.128-4.483,2.275-6.7,3.455-.646.345-1.225.825-1.825,1.251-2.29,1.624-4.555,3.285-6.879,4.859-1.244.837-2.677,1.296-4.182,1.296-1.084,0-1.98.364-2.9.902-1.791,1.045-3.573,2.136-5.48,2.925-2.369.984-3.43,2.63-3.403,5.125.005.587-.116,1.178-.196,1.764-.044.29-.131.575-.196.865-.223,1.026-1.251,1.452-1.985.806-.557-.489-1.082-1.012-1.629-1.51-.871-.8-1.716-1.628-2.631-2.374-1.757-1.432-3.723-2.394-6.044-2.476-.738-.024-1.472-.158-2.21-.178-4.071-.099-7.811-1.485-11.553-2.881-1.169-.433-1.977-1.244-2.529-2.356-.978-1.993-2.014-3.956-2.975-5.957-.704-1.49-1.743-2.729-2.749-4.01-1.21-1.546-2.75-2.203-4.625-2.156-.871.02-1.818.059-2.602.391-1.479.627-2.737.724-4.134-.303-1.377-1.013-3.067-.984-4.705-.694-1.048.189-1.655-.293-2.164-1.118-.695-1.127-1.392-2.262-2.183-3.326-.651-.877-2.324-1.071-3.258-.442-.607.414-1.191.875-1.752,1.354-.898.773-1.794,1.554-2.641,2.374-1.029.989-2.246,1.372-3.645,1.278-1.626-.109-3.248-.203-4.872-.312-1.092-.074-2.004.267-2.849.977-1.128.952-2.326,1.827-3.512,2.712-.586.436-1.573.175-1.919-.459-.787-1.45-1.356-2.947-1.159-4.65.131-1.178.203-2.36.3-3.54.01,0,.024,0,.031.002"/>
  <path id="_Path_상주" data-name="&amp;lt;Path&amp;gt;상주" class="cls-1" d="m138.207,258.658c.469.643,1.002,1.348,1.505,2.074.646.92,1.53,1.399,2.638,1.376.876-.015,1.769-.076,2.626-.246,2.8-.535,5.565-.758,8.331.189,1.171.402,2.333.243,3.434-.35.261-.138.562-.183.852-.255.508-.131,1.218.622,1.022,1.121-.266.679-.496,1.417-.944,1.973-.636.801-1.372,1.564-2.203,2.161-2.757,1.985-5.368,4.198-8.425,5.738-1.52.771-2.493,1.97-3.343,3.42-1.394,2.383-2.295,2.546-4.657,1.066-1.014-.632-1.963-1.324-3.239-1.259-.607.027-1.188.123-1.624.577-.612.644-1.21,1.301-1.762,1.992-1.677,2.067-3.343,4.15-4.981,6.244-1.385,1.768-2.292,3.795-3.132,5.857-.397.951-.772,1.911-1.186,2.855-1.017,2.308-3.021,2.848-5.105,2.677-.731-.062-1.433-.372-2.164-.468-2.495-.343-4.875-1.208-7.394-1.466-3.272-.339-6.155.565-8.818,2.31-1.476.969-2.863,2.095-4.202,3.257-1.147,1.002-1.762,2.322-1.876,3.89-.15,2.067-.399,4.123-.641,6.183-.068.615-.411,1.158-.987,1.376-1.421.546-2.517,1.5-3.585,2.545-.516.508-1.167.905-1.806,1.26-.821.456-1.716.372-2.59.123-.281-.079-.564-.213-.791-.395-3.055-2.399-6.646-2.259-10.2-2.051-1.288.076-2.551.689-3.829,1.048-.738.208-1.455-.248-1.634-1.055-.3-1.295-.62-2.583-.847-3.894-.305-1.734-1.276-3.032-2.759-3.824-1.694-.91-3.36-1.84-4.926-2.969-1.268-.91-2.796-.945-4.282-.617-1.007.223-1.98.589-2.955.929-1.537.535-3.035,1.214-4.606,1.628-1.832.489-3.156,1.552-4.204,3.056-.332.486-.566,1.061-.976,1.468-.273.282-.765.481-1.159.49-1.539.03-2.914-.53-4.073-1.507-.431-.364-.835-.902-.971-1.433-.298-1.14-.489-2.318-.588-3.487-.143-1.663-.978-2.734-2.474-3.374-.816-.348-1.653-.674-2.401-1.14-2.22-1.377-3.868-3.191-4.258-5.915-.189-1.314-.443-2.62-.714-3.916-.254-1.211-1.927-1.792-2.829-.946-.634.594-1.259,1.275-1.644,2.042-.864,1.715-1.563,3.512-2.355,5.265-.428.934-.871,1.873-1.411,2.746-.206.325-.69.635-1.075.667-2.384.224-4.725-.19-7.009-.807-.678-.179-1.324-.683-1.837-1.19-.392-.387-.76-1.012-.767-1.532-.041-3.117.315-6.199,1.109-9.226.223-.854.525-1.691.743-2.545.184-.733.474-1.388.983-1.953,1.288-1.428,2.537-2.862,4.182-3.941,1.731-1.133,3.316-2.486,4.921-3.8,1.68-1.375,2.624-3.167,2.767-5.361.087-1.325.298-2.639-.106-3.965-.426-1.44-1-2.781-2.091-3.854-.421-.416-.847-.828-1.256-1.256-1.74-1.832-2.036-4.273-.678-6.475.62-1.001,1.399-1.906,2.164-2.808.794-.939,1.254-2.005,1.399-3.205.143-1.175.254-2.357.312-3.54.073-1.353-.087-2.684-.949-3.796-.784-1.021-.876-2.162-.755-3.369.068-.736.145-1.474.179-2.212.065-1.562.651-2.89,1.871-3.866,1.154-.922,1.491-2.145,1.561-3.522.027-.593.073-1.185.133-1.773.128-1.223-.169-2.354-.767-3.408-.29-.516-.675-.977-.954-1.5-.654-1.232.295-3.306,1.67-3.554.862-.161,1.767-.107,2.641-.232,2.527-.359,4.313-2.142,4.664-4.647.145-1.024.114-2.079.305-3.093.44-2.327-.455-4.011-2.297-5.352-1.075-.781-2.128-1.608-3.12-2.495-.765-.686-1.44-1.48-2.106-2.268-.392-.466-.53-1.068-.38-1.672.174-.714.438-1.409.629-2.119.228-.851.462-1.705.607-2.57.213-1.298-.254-2.426-1.401-3.017-1.859-.953-3.461-2.252-5.151-3.444-2.592-1.835-5.475-2.885-8.66-3.056-1.481-.082-2.965-.105-4.427-.295-.864-.111-1.735-.406-2.51-.804-.958-.49-1.578-1.341-1.605-2.483-.019-.592.022-1.187.068-1.774.191-2.389.675-3.424,3.643-4.356.719-.225,1.462-.237,2.169.087.535.246,1.029.6,1.583.785.852.288,1.774.394,2.602-.029,1.873-.957,3.848-1.477,5.93-1.738,1.402-.175,2.701-2.273,2.372-3.735-.162-.712-.499-1.383-.753-2.074-.479-1.312-.264-1.768,1.104-2.385.133-.062.259-.151.399-.19,1.593-.454,3.006-1.195,4.199-2.377.278-.276.794-.307,1.307-.491,1.435,1.265,2.878,2.523,4.301,3.803,1.474,1.32,2.476,2.912,2.888,4.882.174.863.457,1.716.772,2.544.436,1.135,1.072,2.124,2.348,2.481.927.255,1.6.869,1.929,1.71,1.019,2.627,2.377,5.095,3.713,7.564,1.053,1.946,1.203,3.928.825,6.021-.157.87-.474,1.71-.649,2.58-.351,1.74-.702,3.479-.961,5.234-.242,1.622-.169,3.247.276,4.843.252.91.707,1.679,1.684,1.866,1.91.364,3.684,1.116,5.434,1.911.971.442,1.982.541,3.013.648,1.128.116,2.045-.231,2.73-1.125.627-.823,1.203-1.686,1.849-2.496.644-.808,1.314-1.603,2.028-2.355.743-.78,1.692-1.215,2.781-1.142,1.181.076,2.363.218,3.527.399,3.086.483,6.189.57,9.302.559,1.656-.01,3.229-.405,4.766-.927,1.348-.458,2.256-1.429,2.406-2.912.259-2.503.549-5.009.663-7.52.09-1.992.808-3.752,1.668-5.464.448-.905,1.169-1.7,1.881-2.445,1.063-1.11,2.411-1.826,3.962-1.673,2.251.223,4.391-.568,6.61-.539.794.008,1.394-.562,1.694-1.259.336-.811.491-1.698.772-2.536.278-.823,1.462-1.291,2.21-.905.392.199.806.382,1.138.667,1.793,1.558,3.747,2.878,5.775,4.115.866.53,1.677,1.222,2.369,1.968,1.631,1.755,3.522,3.14,5.594,4.332,2.048,1.183,4.044,2.451,5.625,4.281.68.783,1.568,1.298,2.568,1.686,1.368.533,2.687,1.219,4.004,1.888,1.595.816,2.464,2.067,2.236,3.944-.128,1.027-.199,2.058-.286,3.092-.162,1.916-.351,3.835-.455,5.753-.07,1.266.687,2.342,1.895,2.677,3.273.904,6.349,2.486,9.793,2.81.704.069,1.348.806,1.411,1.519.082.879.172,1.773.111,2.645-.111,1.653-.007,3.269.617,4.803.973,2.391.562,4.969,1.065,7.433.252,1.228-.591,2.28-1.622,2.961-.731.478-1.573.806-2.396,1.128-1.668.652-3.214,1.497-4.562,2.694-.782.699-.956,1.928-.334,2.823.421.602.828,1.254,1.38,1.727,2.113,1.817,2.483,4.266,2.595,6.818.029.655-.67,1.48-1.343,1.554-.876.102-1.762.144-2.646.186-1.031.052-2.072.024-3.096.137-1.171.128-2.089,1.192-2.256,2.411-.191,1.39.097,2.596,1.014,3.722,1.435,1.763,3.222,3.049,5.204,4.072,1.179.61,2.43,1.076,3.756,1.653"/>
  <path id="_Path_의성" data-name="&amp;lt;Path&amp;gt;의성" class="cls-1" d="m174.406,218.003c.136,1.182.22,2.201.373,3.212.107.677.971,1.331,1.607,1.314,1.796-.06,3.488-.558,5.143-1.234,2.742-1.118,5.497-2.201,8.251-3.285.547-.211,1.116-.369,1.677-.535.46-.132,1.23.421,1.327.934.053.289.15.575.172.868.031.44.044.89.012,1.328-.259,3.646,1.629,6.189,4.311,8.289.857.672,1.977.664,2.987.414,2.174-.533,4.209-1.4,5.957-2.853.908-.756,1.842-1.487,2.754-2.244.978-.811,2.094-1.038,3.326-.863.76.107,1.442.362,1.917.985,1.162,1.529,2.302,3.073,3.541,4.733.753.182,1.602.414,2.464.585.578.117,1.169.16,1.764.214,2.428.218,4.088,1.365,5.051,3.697,1.29,3.145,2.759,6.217,4.178,9.31.489,1.072,1.007,2.138,1.605,3.155.978,1.658,1.961,3.293,2.711,5.085.864,2.055,2.137,3.894,3.64,5.542.937,1.029,1.501,2.157,1.581,3.564.036.732.235,1.458.419,2.172.421,1.687,1.242,2.267,2.868,1.296,2.074-1.239,4.393-1.728,6.702-2.237,2.307-.508,4.64-.894,6.956-1.382,1.442-.3,2.887-.626,4.296-1.057,2.539-.781,5.102-1.532,7.566-2.523,1.772-.709,3.49-1.648,5.068-2.729,2.285-1.564,3.577-3.898,4.258-6.561.298-1.142.472-2.32.762-3.465.232-.922.891-1.549,1.765-1.854,3.858-1.353,7.82-1.559,11.812-.768,2.411.477,4.451,1.56,5.62,3.902.532,1.055,1.162,2.065,1.822,3.049.501.743,1.22,1.251,2.118,1.511,1.135.328,2.256.685,3.362,1.106,2.258.868,4.091,2.349,5.664,4.163.683.784,1.264,1.627,1.578,2.648.351,1.128.869,2.207,1.191,3.343,1.29,4.543,3.035,8.975,3.367,13.759.061.87.399,1.72.547,2.592.211,1.225.813,2.204,1.694,3.044.852.821,1.716,1.631,2.556,2.469.625.627,1.249,1.264,1.806,1.953,1.283,1.571,1.791,3.306,1.343,5.373-.346,1.581-.45,3.219-.53,4.84-.034.536.228,1.173.557,1.617.605.833,1.392,1.531,2.043,2.334,1.157,1.435,1.706,3.081,1.602,4.947-.199,3.697-.54,7.365-1.861,11.019-.559.35-1.171.751-1.806,1.125-1.094.657-1.675,1.613-1.762,2.895-.065.89-.194,1.767-.281,2.649-.138,1.302-.857,2.187-2.002,2.727-1.602.754-3.243,1.44-4.834,2.223-.513.253-1.019.645-1.343,1.106-.203.292-.186.882-.034,1.239.162.374.562.706.929.914,1.029.572,2.096,1.078,3.159,1.596.661.324,1.356.588,1.994.942,1.423.787,2.224,1.944,1.919,3.638-.24,1.309-.511,2.609-.794,3.902-.162.721-.431,1.418-.562,2.142-.218,1.251.23,2.355,1.058,3.265.487.537,1.077,1.031,1.716,1.38,2.123,1.15,2.212,2.929,1.668,4.952-.225.833-1.186,1.447-2.079,1.169-.835-.259-1.699-.562-2.404-1.055-.971-.666-1.803-1.527-2.694-2.307-.666-.588-1.309-1.205-1.999-1.76-1.295-1.046-2.735-1.74-4.442-1.806-1.036-.041-2.067-.245-3.101-.228-2.227.039-4.393.293-6.373,1.522-2.767,1.714-5.891,2.774-8.566,4.672-.416.29-1.162.283-1.711.177-1.445-.286-2.883-.656-4.287-1.087-.687-.213-1.411-.52-1.939-.987-1.764-1.566-3.824-2.135-6.114-2.253-2.072-.102-4.132-.353-6.191-.535-2.273-.203-4.333-.905-6.078-2.43-.443-.387-.939-.717-1.428-1.05-1.549-1.063-3.231-1.518-5.032-.813-1.498.586-2.902.52-4.236-.341-1.447-.932-2.979-1.106-4.664-.903-1.096.133-1.978-.484-2.614-1.392-.533-.753-.813-1.588-.552-2.505.327-1.135.641-2.287,1.104-3.366.479-1.115.622-2.268.816-3.437.482-2.93-.663-5.324-2.713-7.154-3.427-3.054-7.203-5.683-11.344-7.718-2.007-.992-4.214-1.349-6.361-1.872-.288-.071-.588-.088-.879-.097-3.035-.088-5.325-1.6-7.24-3.809-.293-.335-.564-.687-.823-1.047-2.023-2.77-4.947-4.178-8.055-5.242-1.097-.372-2.326-.402-3.502-.511-3.689-.334-6.808-1.812-9.367-4.496-.912-.967-1.851-1.913-2.82-2.828-.922-.865-2.077-1.18-3.292-.954-2.626.488-5.216,1.098-7.387,2.815-.574.449-1.21.887-1.997.835-.249-.019-.607-.178-.699-.379-.191-.379-.315-.828-.324-1.256-.06-1.641-1.082-2.34-2.512-2.625-2.34-.463-4.691-.629-7.055-.156-.724.147-1.447.293-2.181.357-.622.052-1.188-.241-1.532-.74-.499-.726-.968-1.488-1.319-2.299-.654-1.514-1.581-2.823-2.682-4.044-.992-1.099-1.857-2.303-2.786-3.453-.724-.903-1.723-1.175-2.788-.964-.859.166-1.704.486-2.505.842-1.627.717-3.227,1.492-4.824,2.268-1.099.531-2.244.704-3.447.625-2.077-.136-4.12-.31-5.981-1.434-.84-.508-1.273-1.19-1.552-2.048-.094-.277-.111-.58-.196-.863-.784-2.684.152-4.962,1.774-7.009.533-.68,1.273-1.255,2.028-1.686,3.096-1.767,5.86-4.001,8.767-6.04,1.356-.952,2.389-2.176,3.164-3.654.484-.934.871-1.869.932-2.93.029-.44.063-.89.145-1.323,1.002-5.255-.525-9.942-3.226-14.358-.692-1.138-1.447-2.223-1.82-3.535-.353-1.209-.298-2.34.419-3.395.663-.979,1.343-1.946,2.043-2.901.523-.715,1.041-1.442,1.634-2.099,1.874-2.06,2.907-4.417,2.873-7.237-.019-1.542.479-2.968,1.69-3.966,1.847-1.525,3.338-3.324,4.599-5.352.499-.8,1.549-1.055,2.353-.657.922.459,1.822.969,3.047,1.627"/>
  <path id="_Path_포항" data-name="&amp;lt;Path&amp;gt;포항" class="cls-1" d="m447.027,311.133c1.513.39,2.827.626,4.064,1.071,2.152.783,3.848,2.184,4.957,4.226.53.981.465,1.995.027,2.996-.118.265-.257.541-.438.766-2.459,3.036-2.977,6.667-3.209,10.392-.073,1.128.419,2.033,1.278,2.694,1.786,1.381,3.798,2.245,6.078,2.446,4.715.424,9.43.866,14.152,1.31.883.085,1.762.198,2.636.353,1.135.196,1.721.976,1.694,2.217-.017.738-.089,1.476-.109,2.212-.027,1.087.283,2.101,1.084,2.822,1.849,1.673,2.587,3.914,3.328,6.165.085.266.007.586,0,.879-.162.24-.281.549-.501.717-1.341,1.016-2.316,2.217-2.655,3.945-.261,1.331-.975,2.418-2.164,3.229-1.6,1.089-1.624,2.587-1.007,4.328.922,2.595,2.319,4.776,4.572,6.39.603.426,1.188.884,1.738,1.38.564.508.922,1.198.944,1.948.068,2.067.157,4.146.039,6.206-.058,1.009-.462,2.028-.871,2.97-.975,2.241-1.007,4.606-1.082,6.971-.031.963.47,1.702,1.21,2.251.835.627,1.735,1.118,2.82,1.188,1.6.102,2.783.942,3.686,2.195.862,1.201,1.699,2.423,2.512,3.657.639.973.496,1.997-.06,2.936-.448.76-.968,1.496-1.564,2.149-.944,1.038-1.363,2.268-1.515,3.619-.087.731-.128,1.474-.203,2.207-.097.961-.561,1.76-1.457,2.067-2.043.695-3.633,1.975-4.921,3.645-.854,1.104-1.958,1.774-3.224,2.251-.695.266-1.399.491-2.057.823-.382.196-.796.489-.997.852-.791,1.428-1.489,2.902-1.404,4.601.068,1.331.194,2.66.225,3.991.029,1.191-.136,2.365-.929,3.35-.181.225-.293.511-.453.763-1.641,2.706-.322,3.788,1.951,3.713,1.43-.051,2.626.266,3.524,1.433.089.116.206.237.341.281,2.244.791,3.66,2.36,4.485,4.575.189.489.763.922,1.256,1.196,2.345,1.271,4.65,2.595,6.787,4.204.445.341,1.067.496,1.631.634.912.22,1.861.118,2.413-.685,1.181-1.723,2.834-3.018,4.132-4.623.966-1.201,2.19-1.978,3.589-2.517,1.099-.429,2.22-.811,3.338-1.191,2.469-.847,4.437-2.336,5.87-4.524.484-.738.98-1.469,1.394-2.091.392-.22.632-.433.91-.494,3.192-.726,5.613-2.551,7.484-5.187.603-.847,1.288-1.627,1.975-2.406,1.292-1.472,2.183-3.146,2.728-5.027.247-.852.516-1.721.958-2.474.453-.77,1.176-1.322,2.147-1.397.145-.012.29-.041.443-.044,3.175-.08,4.226.61,5.364,3.524.871,2.236,1.254,4.565,1.239,6.954-.007,1.629-.107,3.255-.216,4.879-.077,1.184-.329,2.353-.329,3.536-.007,1.164.208,2.328.337,3.609-1.063,1.341-2.258,2.662-3.236,4.132-1.002,1.513-2.399,2.602-3.672,3.829-1.542,1.481-2.692,3.151-2.784,5.371-.121,2.834-1.397,5.117-3.452,6.964-1.154,1.036-1.769,2.256-2.232,3.715-.629,1.973-1.798,3.723-2.979,5.431-.535.772-1.312,1.201-2.13,1.539-1.452.593-1.903,1.75-1.934,3.183-.014,1.038-.046,2.072-.06,3.108-.031,2.442.67,4.63,2.002,6.685.777,1.203.559,2.253-.358,3.246-.399.435-.842.835-1.246,1.263-.607.646-1.222,1.29-1.784,1.978-1.012,1.244-.787,2.846.506,3.936.804.675,1.726,1.087,2.728,1.421,1.082.37,1.389,1.801.489,2.517-2.517,2.007-3.798,4.848-5.284,7.578-2.021.368-3.911.073-5.768-.438-.545-.148-1.067-.511-1.503-.886-.44-.382-.741-.92-1.143-1.348-.646-.692-1.462-1.082-2.391-.82-2.07.574-4.117.249-6.165-.015-.286-.041-.542-.225-.692-.288-.281-.303-.566-.484-.666-.736-1.573-3.943-4.62-6.85-7.116-10.137-.177-.232-.424-.414-.637-.617-1.099-1.043-2.776-.782-3.204.709-.707,2.493-2.525,3.931-4.463,5.308-.746.525-1.607.755-2.525.68-2.362-.199-4.73-.356-7.075-.632-1.626-.191-2.646-1.329-2.829-2.95-.165-1.469-.286-2.946-.46-4.415-.119-.951-.685-1.639-1.523-2.055-.791-.394-1.612-.741-2.442-1.031-1.435-.511-2.103-1.583-2.244-3.013-.123-1.322-.177-2.658-.186-3.984-.005-.886.094-1.777.172-2.66.126-1.336.036-2.645-.252-3.965-.748-3.478-1.636-6.908-3.031-10.18-1.171-2.735-1.965-5.579-2.554-8.486-.414-2.028-.849-4.052-1.341-6.063-.424-1.726-.753-3.427-.753-5.24-.005-2.929-1.23-5.453-3.287-7.537-.937-.946-1.927-1.842-2.924-2.723-1.266-1.118-1.576-2.532-1.089-4.033.895-2.825,1.929-5.601,3.434-8.166.52-.895,1.106-1.767,1.486-2.723.457-1.145.356-2.326-.349-3.398-2.241-3.418-5.458-5.068-9.469-4.483-2.994.44-5.712,1.779-6.913,4.887-.537,1.396-1.191,2.694-1.997,3.943-.656,1.029-1.505,1.83-2.578,2.379-1.442.75-2.902,1.479-4.386,2.142-2.694,1.21-5.419,2.372-8.13,3.558-.944.411-1.752-.005-1.977-1.06-.341-1.581-.627-3.18-.985-4.759-.16-.719-.387-1.433-.685-2.101-.898-2.021-2.972-2.948-5.148-2.326-.702.206-1.377.494-2.164.775-.436-.46-.891-.84-1.217-1.307-.249-.348-.453-.801-.487-1.227-.17-2.244-1.501-3.756-3.043-5.223-1.822-1.731-3.555-3.56-5.264-5.4-1.905-2.05-2.355-4.391-1.07-6.942.963-1.924,1.13-3.96.963-6.054-.077-.99-1.012-1.963-2.009-2.089-.586-.068-1.225-.22-1.76-.063-2.028.612-4.136.24-6.179.591-.576.097-1.179.078-1.764.049-2.007-.102-3.347-1.198-3.822-3.103-.073-.288-.097-.583-.141-.876-.496-3.594-2.079-6.755-3.812-9.88-.978-1.777-2.394-2.943-4.214-3.745-3.248-1.428-6.477-2.902-9.711-4.366-.269-.119-.571-.24-.75-.453-.167-.201-.278-.53-.252-.789.024-.254.203-.639.404-.709,1.389-.487,2.798-.881,4.289-1.029,1.167-.114,2.341-.38,3.447-.765,1.914-.663,3.282-1.978,3.892-3.957.52-1.694,1.014-3.396,1.481-5.105.286-1.05.818-1.927,1.777-2.44,1.944-1.038,3.735-2.401,6.063-2.619.69-.06,1.368-.54,1.994-.92.784-.467,1.356-1.167,1.539-2.089.165-.866.269-1.75.38-2.631.262-2.009-.237-3.8-1.493-5.405-.726-.929-1.428-1.888-2.033-2.896-.726-1.21-.031-2.824,1.346-3.216,3.338-.949,6.671-1.294,9.967.211.53.243,1.125.35,1.699.501,1.745.463,3.306,1.312,4.662,2.481,2.241,1.929,4.468,3.851,6.196,6.317,2.159,3.074,5.093,5.323,8.438,7.034,1.489.767,3.055,1.094,4.708,1.099,1.472.007,2.631-.651,3.243-1.944.886-1.866,1.75-3.769,2.338-5.741.605-2.038,1.871-3.294,3.693-4.154,1.07-.501,2.176-.939,3.183-1.547,1.341-.807,2.123-2.049,2.212-3.643.051-1.031-.015-2.072.029-3.106.06-1.476.14-2.956.266-4.429.133-1.529.895-2.822,1.825-3.976.443-.547,1.125-.953,1.779-1.271,1.467-.702,2.989-1.289,4.473-1.953q3.594-1.611,6.133-5.29"/>
  <path id="_Path_울진" data-name="&amp;lt;Path&amp;gt;울진" class="cls-1" d="m467.315,16.811c1.421-1.694,2.549-3.056,3.708-4.393.91-1.064,2.072-1.709,3.497-1.629,2.193.121,4.044-.738,5.792-1.904,1.104-.741,2.183-1.528,3.241-2.337,3.321-2.538,7.072-4.283,10.851-5.991,1.927-.868,3.718-.728,5.465.459.866.592,1.249,1.335.968,2.245-.174.563-.44,1.098-.62,1.661-.501,1.599-.455,3.19-.012,4.808.361,1.322.291,2.578-.596,3.788-.731,1.001-.724,2.27-.402,3.43.431,1.575,1.07,3.091,2.215,4.3,1.019,1.073,1.985,2.227,3.149,3.116,3.442,2.635,6.104,6.02,9.052,9.131.501.525.259,1.635-.404,1.843-.554.177-1.147.238-1.714.39-1.433.386-2.22,1.601-1.934,3.013.111.575.276,1.151.491,1.696.545,1.403.821,2.816.641,4.34-.133,1.173-.007,2.372-.123,3.55-.232,2.422.177,4.709,1.217,6.905.184.393.281.833.395,1.185.036.89-.458,1.447-.944,2.004-.487.563-1.007,1.096-1.438,1.693-.617.861-.968,1.819-.876,2.915.189,2.2.235,4.397,1.254,6.483.699,1.445,1.036,3.076,1.464,4.642.491,1.755.557,3.586-.16,5.234-.799,1.825-.947,3.711-1.157,5.617-.053.442-.063.887-.116,1.327-.332,2.672-.436,5.304.762,7.845.395.845.244,1.819-.375,2.513-1.781,1.994-1.832,4.241-1.196,6.656.458,1.716.816,3.448.755,5.255-.056,1.52.482,2.907,1.343,4.157,1.169,1.707,2.36,3.403,3.544,5.106.595.854,1.171,1.727,1.215,2.813.109,2.699,1.397,4.771,3.391,6.479.102.088.138.257.329.627.06.778.136,1.804.22,2.829.22,2.528.704,4.98,2.101,7.163.492.759.866,1.584.799,2.499-.141,2.007.511,3.782,1.426,5.509.281.518.496,1.078.668,1.641.177.598.07,1.213-.402,1.631-.656.587-1.397,1.081-2.094,1.623-1.065.833-1.305,1.97-.973,3.19.264.994.721,1.937,1.087,2.904.687,1.821,1.101,3.725.92,5.654-.199,2.223-.022,4.428-.01,6.644,0,.737-.015,1.499-.211,2.201-.143.535-.482,1.116-.91,1.447-.695.53-1.552.835-2.304,1.299-.789.483-1.312,1.194-1.457,2.126-.094.583-.118,1.18-.208,1.762-.278,1.842-.617,2.278-2.541,2.45-3.965.355-6.46,2.67-8.203,5.97-.821,1.562-1.409,3.252-2.099,4.886-.196.459-1.048.764-1.523.535-.537-.252-1.101-.458-1.59-.778-.982-.656-1.968-1.323-2.871-2.079-1.842-1.532-4.015-2.491-6.136-3.529-.47-.233-1.15-.134-1.716-.068-.431.055-.864.243-1.244.468-3.209,1.912-6.601,1.116-9.955.652-.414-.054-.818-.336-1.176-.58-.363-.248-.685-.568-1-.877-.99-.964-2.118-1.539-3.522-1.691-2.498-.27-4.991-.629-7.484-.974-1.46-.201-2.929-.388-4.379-.674-1.184-.232-2.024-1.443-1.842-2.649.133-.868.361-1.743.704-2.543.409-.948,1.016-1.804,1.491-2.724.888-1.715,1.489-3.507,1.76-5.453.312-2.24-.024-4.118-2.014-5.452-.123-.082-.225-.191-.339-.283-1.837-1.465-2.251-3.401-1.808-5.586.421-2.109,1.544-3.81,3.166-5.195.114-.093.24-.178.366-.242,2.963-1.482,4.817-3.81,5.611-7.047.254-1.048,1.152-1.727,2.222-1.978,1.022-.238,1.98-.565,2.871-1.13,2.452-1.559,2.863-3.8,1.065-5.988-.373-.459-.789-.882-1.203-1.308-.518-.525-1.021-1.071-1.593-1.547-1.728-1.466-2.389-3.302-2.118-5.537.126-1.026.126-2.07.179-3.103.053-.95-.329-1.77-.968-2.4-.956-.927-1.956-1.816-3.011-2.615-1.44-1.088-2.038-2.522-1.915-4.25.104-1.472.378-2.93.547-4.397.232-2.055.467-4.112.644-6.174.073-.859-.687-1.696-1.554-1.928-1.193-.317-2.338-.263-3.425.372-1.171.686-2.157,1.562-2.812,2.771-.487.909-.939,1.847-1.474,2.729-.487.813-1.295,1.282-2.215,1.254-1.774-.05-3.558-.128-5.31-.384-1.663-.241-3.011-1.194-4.076-2.489-1.13-1.372-2.302-2.721-3.309-4.173-1.936-2.783-4.594-4.077-7.92-4.152-.445-.012-.888-.05-1.329-.116-1.152-.168-2.469.064-3.323-.934-1.268-1.471-2.287-3.108-2.234-5.165.027-.89.152-1.773.152-2.662.012-1.325-.063-2.654-.085-3.983-.029-1.888-.586-3.453-2.374-4.437-.627-.346-1.104-.977-1.617-1.504-1.133-1.18-2.287-2.303-3.735-3.115-1.6-.895-2.735-2.239-3.415-3.958-.107-.275-.278-.528-.358-.813-.429-1.578-1.515-2.46-3.006-2.981-.554-.194-1.063-.531-1.561-.841-.835-.511-1.15-1.318-1.164-2.252-.007-.442-.007-.905.118-1.319,1.249-4.169,1.058-8.504,1.491-12.764.116-1.163-.15-2.355-.184-3.536-.046-1.565.506-2.916,1.697-3.942.666-.572,1.385-1.133,2.169-1.511,3.544-1.712,7.172-1.755,10.691-.042,2.982,1.45,6.012,1.733,9.033.57,1.769-.681,3.328-1.906,4.979-2.883,1.753-2.256,4.064-2.666,6.741-2.221,2.193.364,4.415.525,6.622.751.583.059,1.172.034,1.76.022.448-.01,1.154-.624,1.307-1.081.371-1.157.433-2.332.058-3.489-.419-1.307-.337-2.63-.23-3.961.036-.437.031-.949.259-1.289,1.21-1.832,1.246-3.907,1.38-5.974.073-1.083.537-1.968,1.319-2.725,1.193-1.156,2.522-2.052,4.175-2.397,1.012-.208,2.019-.428,3.055-.65"/>
  <path id="_Path_김천" data-name="&amp;lt;Path&amp;gt;김천" class="cls-1" d="m7.641,432.27c.581-.242,1.101-.542,1.663-.671,2.977-.697,4.429-2.699,4.942-5.579.552-3.127.467-6.189-.731-9.173-.77-1.929-1.356-3.919-1.559-5.998-.225-2.287-1.123-4.321-2.638-5.996-2.202-2.442-2.711-3.001-1.22-6.746.382-.959.547-1.997.922-2.955.278-.709.888-1.217,1.651-1.348.869-.152,1.764-.244,2.643-.232,1.636.019,2.822-.736,3.747-2.002.436-.6.833-1.23,1.302-1.796.371-.453.806-.871,1.264-1.237.595-.477,1.314-.791,2.065-.487,1.82.736,3.432.319,5.066-.61,1.539-.871,3.178-1.573,4.763-2.362.525-.269,1.067-.525,1.542-.866.992-.714,1.762-1.629,1.878-2.887.15-1.619.288-3.239.281-4.865-.01-2.077.092-4.129.443-6.025.257-.382.366-.707.591-.852,1.566-1.007,2.597-2.316,2.878-4.248.283-1.968,1.295-3.563,2.839-4.868,1.409-1.186,2.234-2.759,2.377-4.618.392-5.018.762-10.035,1.118-15.055.172-2.387-.211-4.722-.709-7.042-.094-.437-.162-.872-.216-1.309-.065-.5.366-1.264.85-1.435,1.948-.691,3.89-1.417,5.865-2.02,1.213-.369,2.355-.012,3.277.875.639.612,1.212,1.294,1.844,1.918,1.3,1.291,2.839,2.095,4.708,2.209,1.624.099,3.248.288,4.875.35,2.05.076,3.275-1.125,3.488-3.202.16-1.532-.201-2.942-.837-4.302-1.002-2.142-2.065-4.261-3.04-6.418-.3-.659-.465-1.398-.581-2.119-.075-.419.049-.875.116-1.311.089-.57.586-1.138,1.164-1.157,1.827-.058,3.437-.794,5.073-1.471,2.747-1.133,5.55-.647,8.307-.099.828.166,1.583.776,2.328,1.251.903.573,1.876.841,2.929.929,1.227.102,2.365-.133,3.347-.894.699-.54,1.38-1.121,2.045-1.705.704-.617,1.484-1.001,2.425-.726.886.255,1.733.102,2.621.04,1.319-.094,2.65.027,3.972.136.755.065,1.409.446,1.927,1.007.3.324.549.696.852,1.021.937,1.006,2.05,1.741,3.452,1.801,1.668.068,3.139.804,4.698,1.237,3.585.995,6.366,3.029,8.334,6.194.939,1.51,2.004,2.923,3.386,4.082.949.806,1.37,1.884,1.494,3.121.087.882.232,1.767.474,2.623.542,1.921,1.554,3.47,3.522,4.278,1.498.612,2.945,1.37,4.408,2.084,1.455.712,2.316,1.784,2.12,3.522-.087.728-.092,1.479-.044,2.212.063.934.532,1.697,1.278,2.244.833.607,1.774,1.084,2.544,1.76.394.353.731,1.014.731,1.537-.005,1.014-.15,2.065-.45,3.033-.346,1.125-.963,2.166-1.387,3.265-.269.688-.455,1.409-.586,2.133-.201,1.072.131,2.016.777,2.904,1.23,1.673.956,3.299-.218,4.899-.876,1.193-1.689,2.428-2.52,3.652-.687,1.005-.929,2.142-1.031,3.35-.114,1.428.189,2.646,1.343,3.568.348.276.707.537,1.026.84.886.842.975,1.646.273,2.771-.787,1.249-1.639,2.457-2.428,3.711-.431.69-.315,1.939.191,2.515.293.332.617.639.92.958.508.537,1.021,1.067,1.52,1.622,1.116,1.251,1.089,2.68.586,4.161-.288.85-1.619,1.706-2.483,1.547-.876-.155-1.723-.412-2.587-.62-2.009-.487-4.003-1.038-6.039-1.431-1.152-.225-2.355-.228-3.534-.264-1.772-.056-3.558.046-5.32-.09-2.914-.23-5.652.4-8.079,1.886-2.036,1.246-4.277,2.023-6.329,3.204-.61.356-1.399.397-2.108.596-.561.165-1.142.298-1.677.532-.85.38-1.435,1.048-1.612,1.985-.107.574-.128,1.174-.162,1.76-.199,3.253-.39,6.504-.593,9.754-.068,1.099-.547,1.98-1.445,2.624-.237.179-.455.397-.719.525-2.2,1.087-3.698,2.917-5.139,4.809-.179.237-.368.465-.53.714-1.859,2.745-4.565,3.594-7.706,3.423-1.331-.075-2.653-.211-3.986-.31-.736-.058-1.474-.111-2.215-.119-1.297-.014-2.307.533-2.883,1.704-.922,1.854-1.842,3.708-1.927,5.853-.022.581-.087,1.222-.349,1.721-.337.627-.842,1.193-1.368,1.677-.462.426-1.13.438-1.665.135-.634-.356-1.244-.801-1.774-1.302-.75-.712-1.382-1.544-2.13-2.261-1.818-1.743-5.482-.772-6.232,1.67-.303.983-.535,2.021-.564,3.042-.155,5.405.888,10.609,3.088,15.529.709,1.595,1.89,2.997,2.955,4.405.98,1.297,2.108,2.481,3.149,3.735.472.569.506,1.501.092,2.07-.438.595-.944,1.142-1.351,1.762-.85,1.268-1.927,2.152-3.393,2.711-1.518.566-2.921,1.426-4.376,2.159-.963.479-1.961.673-3.001.3-1.404-.513-2.854-.748-4.342-.859-1.21-.094-2.365-.027-3.439.593-1.048.607-2.186.884-3.386.937-.823.041-1.866-.554-2.181-1.276-.293-.683-.605-1.363-.792-2.074-.77-2.919-2.696-4.889-5.206-6.344-1.28-.743-2.65-1.314-3.681-2.432-.746-.808-1.745-1.128-2.8-1.188-1.914-.102-3.841-.131-5.766-.199-1.031-.036-1.699-.458-1.888-1.515-.564-3.151-2.505-5.652-3.863-8.428-.404-.828-1.191-1.295-2.132-1.421-.884-.116-1.76-.223-2.643-.341-.992-.126-1.61-.775-1.912-1.639-.733-2.094-1.413-4.207-2.038-6.334-.16-.537-.147-1.188-.017-1.743.336-1.43.789-2.837,1.21-4.298"/>
  <path id="_Path_영천" data-name="&amp;lt;Path&amp;gt;영천" class="cls-1" d="m390.34,434.874c-.271,3.575-.014,7.092,1.162,10.507.697,2.05.576,4.071-.215,6.07-.274.685-.605,1.356-.787,2.067-.448,1.76-.443,3.507.358,5.199.886,1.871,1.731,3.756,2.592,5.639.218.477-.208,1.249-.733,1.418-1.038.339-2.072.29-2.989-.269-.477-.293-.937-.762-1.179-1.261-.387-.789-.656-1.658-.847-2.522-.382-1.716-1.566-2.391-3.161-2.628-3.558-.525-7.08-.535-10.522.702-.845.303-1.564.775-1.953,1.677-.344.813-.825,1.568-1.225,2.357-.491.956-1.196,1.69-2.144,2.181-1.869.966-3.328,2.408-4.756,3.933-2.428,2.602-3.597,5.695-3.979,9.161-.046.441-.104.886-.111,1.327-.039,2.14-.724,4.01-2.004,5.756-1.573,2.142-3.103,4.33-4.274,6.741-.186.39-.489.738-.801,1.053-.525.535-1.145.927-1.932.966-.293.01-.595.051-.886.01-4.141-.54-8.276-.08-12.407.097-4.449.194-8.873-.094-13.293-.533-1.426-.14-2.571-.702-3.316-1.924-.961-1.576-2.203-2.699-3.994-3.318-1.459-.503-2.403-1.692-2.873-3.188-.356-1.125-.714-2.258-.951-3.41-.298-1.484-.775-2.851-1.849-3.952-1.053-1.084-1.099-2.382-.707-3.723.203-.707.535-1.375.818-2.057.583-1.45.564-2.9-.078-4.313-.489-1.072-.963-2.176-1.619-3.144-2.014-3.004-1.714-6.16-.775-9.377.165-.559.525-1.067.659-1.636.99-4.158-.615-7.549-3.34-10.502-.673-.729-1.685-1.203-2.624-1.605-1.491-.639-3.023-1.208-4.584-1.648-2.471-.702-4.659-1.849-6.535-3.606-.866-.804-1.803-1.539-2.662-2.348-1.339-1.261-2.888-2.098-4.718-2.229-2.984-.218-5.748-1.37-8.655-1.919-1.055-.199-1.869-.842-2.231-1.944-.525-1.551-1.14-3.069-2.549-4.061-.721-.508-1.462-1.012-2.251-1.392-.922-.453-1.888-.898-2.885-1.133-2.191-.518-3.328-1.987-3.457-4.059-.21-3.229-.791-6.438-.387-9.718.351-2.786,1.416-5.255,3.529-6.934,2.621-2.079,4.161-4.425,4.154-7.849-.002-2.3,1.385-3.834,3.541-4.616.685-.249,1.399-.491,2.113-.576.378-.046.799.237,1.188.412.116.053.225.215.259.346.429,1.612,1.709,2.372,3.088,2.936,2.053.833,4.12,1.658,6.235,2.302,2.423.731,4.964.828,7.477.767.83-.019,1.718-.458,2.452-.905.748-.453,1.368-1.123,1.99-1.755.826-.847,1.653-1.699,2.384-2.626,1.505-1.92,3.42-3.251,5.625-4.219,1.636-.717,3.166-1.585,4.454-2.854.545-.542.924-1.154,1.038-1.907.136-.876.213-1.764.366-2.638.261-1.573.985-2.251,2.65-2.52.581-.092,1.172-.157,1.762-.213.586-.058,1.181-.138,1.767-.128,2.798.034,4.78-1.283,6.199-3.609,1.307-2.142,2.788-4.18,3.13-6.787.143-1.128,1.007-1.825,2.074-2.072,2.157-.496,4.333-.922,6.509-1.327,1.798-.329,3.185.375,4.173,1.883.644.99,1.23,2.023,1.905,2.997.702,1.002,1.648,1.617,2.922,1.793,2.871.397,5.62.22,8.106-1.442,1.063-.714,2.186-.862,3.381-.472,1.823.598,3.686,1.111,5.439,1.876,2.57,1.118,5.049,2.44,7.578,3.652.968.462,1.704,1.145,2.241,2.07,1.81,3.069,3.473,6.194,3.921,9.812.148,1.186.535,2.294,1.167,3.326.651,1.07,1.469,1.803,2.813,1.873,1.619.092,3.219.235,4.86-.031,1.74-.283,3.531-.3,5.296-.411.845-.056,1.692.799,1.709,1.685.029,1.191-.048,2.36-.545,3.476-.363.808-.758,1.617-.976,2.467-.564,2.263-.419,4.415,1.29,6.228,1.723,1.83,3.415,3.687,5.139,5.514.712.753,1.505,1.423,2.188,2.202.38.431.779.983.845,1.525.24,1.975,1.193,3.628,2.123,5.315.37.675.264,1.452-.068,2.14-.593,1.203-1.293,2.326-2.251,3.285-.523.52-1.058,1.031-1.556,1.576-.617.675-.954,1.472-1.036,2.396-.119,1.334-.211,2.65.329,3.936.167.392.114.874.155,1.314.065.733-.639,1.382-1.455,1.232-.559-.102-1.143-.293-1.607-.612-.469-.327-.765-.905-1.208-1.288-.566-.491-1.222-.837-2.019-.477-.603.273-.862.791-.927,1.399-.109,1.029-.174,2.067-.264,3.096"/>
  <path id="_Path_문경" data-name="&amp;lt;Path&amp;gt;문경" class="cls-1" d="m180.753,120.309c-.199,2.36-.37,4.724-.598,7.081-.157,1.655-1.167,2.712-2.672,3.235-1.106.389-2.275.66-3.442.835-1.191.178-2.309.54-3.364,1.071-.816.406-1.443,1.088-1.554,2.039-.206,1.765-.365,3.535-.503,5.305-.22,2.805-.429,5.612-.593,8.42-.106,1.869-.82,3.422-2.13,4.739-.625.627-1.22,1.289-1.774,1.975-.477.592-.409,1.968.121,2.5.518.518,1.099.977,1.668,1.44,1.026.846,2.13,1.606,3.069,2.538.862.856,1.222,1.984,1.142,3.249-.114,1.868-1.256,2.975-3.176,2.851-.557-.035-1.215-.219-1.622-.568-.782-.667-1.409-1.518-2.125-2.265-.303-.319-.646-.605-1.005-.863-1.034-.754-2.912-.303-3.495.825-.068.13-.167.253-.201.389-.712,2.887-2.718,4.853-4.783,6.794-1.183,1.116-2.285,2.322-3.478,3.433-1.186,1.105-2.408,2.181-3.667,3.207-2.377,1.937-2.498,5.207-1.244,7.216,1.334,2.132,2.626,4.291,3.936,6.435.404.665,1,1.083,1.723,1.319,1.568.507,1.886,1.722,1.786,3.169-.155,2.344-1.588,3.76-3.565,4.695-.792.372-1.724.435-2.541.761-1.571.629-2.878,1.581-3.195,3.392-.295,1.698-1.51,2.471-2.941,3.007-.53.197-1.184.292-1.728.183-2.9-.585-5.715-1.497-8.474-2.557-.697-.269-1.167-.967-1.23-1.74-.17-1.932.002-3.85.55-5.716.469-1.568.804-3.157.808-4.798.012-.963-.467-1.755-1.302-2.169-1.854-.922-3.718-1.834-5.64-2.58-1.278-.493-2.432-1.103-3.343-2.106-1.612-1.783-3.573-3.084-5.661-4.236-1.953-1.084-3.722-2.405-5.211-4.091-.489-.549-1.005-1.122-1.619-1.507-2.512-1.566-5.022-3.125-7.244-5.113-.428-.379-1.043-.551-1.581-.788-1.513-.662-3.217-.612-3.493,1.836-.089.726-.259,1.456-.496,2.145-.199.587-.692,1.024-1.3,1.093-2.052.243-4.105.548-6.162.56-1.762.014-3.13.629-4.391,1.769-2.297,2.077-3.65,4.605-3.899,7.705-.16,1.922-.317,3.84-.491,5.758-.087.885-.165,1.769-.327,2.639-.252,1.294-1.111,2.102-2.345,2.405-2.011.485-4.052.89-6.143.721-2.072-.165-4.132-.338-6.196-.526-1.183-.109-2.37-.206-3.536-.386-2.144-.333-3.732.525-5.018,2.161-.724.934-1.493,1.836-2.241,2.756-.283.342-.542.707-.835,1.036-.75.865-1.745,1.222-2.798.877-2.108-.686-4.187-1.467-6.23-2.308-.498-.202-.922-.733-1.232-1.209-.494-.75-.733-1.646-.629-2.543.194-1.757.443-3.517.748-5.262.182-1.019.583-1.993.76-3.009.77-4.437.617-5.295-1.484-9.357-.886-1.702-1.903-3.335-2.551-5.163-.542-1.524-.615-2.834.915-3.9.842-.585,1.537-1.383,2.28-2.107,1.099-1.073,1.767-2.401,1.939-3.904.259-2.352.506-4.716.566-7.079.058-2.198-.859-4.014-2.711-5.301-1.588-1.104-3.195-2.057-5.153-2.466-2.183-.456-4.178-1.467-5.928-2.907-1.36-1.116-1.336-2.762.046-3.716,1.314-.905,2.638-1.178,4.18-.565,1.51.602,3.079,1.053,4.638,1.524,1.779.536,2.774-.216,2.912-2.181.043-.589-.031-1.187.002-1.777.053-.95.615-1.627,1.6-1.867.864-.205,1.735-.337,2.614-.478,1.181-.185,1.811-1.01,2.125-2.022.346-1.118.327-2.37.789-3.42.46-1.061,1.394-1.906,1.978-2.93.576-1.021.941-2.157,1.457-3.219.448-.932,1.825-1.173,2.701-.534.743.543,1.285,1.25,1.467,2.149.269,1.303.443,2.628.678,3.938.213,1.168.847,1.75,2.103,1.924.733.102,1.474.148,2.207.225,1.385.147,2.641-.25,3.81-.941.636-.375,1.203-.856,1.83-1.247.791-.501,1.748-.288,2.343.52.52.717.992,1.474,1.523,2.188.968,1.306,1.948,2.604,2.953,3.881,1.065,1.343,2.435,2.09,4.192,2.159,1.624.064,3.243.305,4.867.364,2.43.09,4.287-.998,5.511-3.063,1.205-2.036.985-4.806-.627-6.66-1.936-2.234-3.945-4.427-6.649-5.8-.922-.471-1.818-.989-2.701-1.531-.644-.402-1.181-1.665-.971-2.353,1.07-3.539,2.14-7.078,3.272-10.6.271-.833.738-1.616,1.21-2.36,1.108-1.752,2.278-3.465,3.405-5.2.654-1.001,1.46-1.843,2.425-2.56,1.586-1.173,3.188-1.478,4.926-.36.622.4,1.266.761,1.9,1.14.506.307,1,.632,1.518.922.845.466,1.74.498,2.512-.064,2.149-1.567,4.391-3.032,6.107-5.129.37-.456.765-.897,1.171-1.33.3-.325.588-.683.946-.929,3.173-2.199,3.95-2.437,6.872.372,2.094,3.172,5.48,4.477,8.772,5.718,3.069,1.154,6.39,1.192,9.655,1.003,1.457-.082,2.742-1.442,2.921-2.92.128-1.023.155-2.062.228-3.098.07-1.034.165-2.065.21-3.101.087-2.183,1.058-3.618,3.273-4.153,1.89-.459,3.033-1.832,3.72-3.54,1.188-2.944,1.985-2.731,4.4-2.483,4.824.499,8.314,3.081,10.386,7.347,1.367,2.803,3.081,5.386,4.504,8.144,1.106,2.129,2.684,3.81,4.645,5.264,2.169,1.601,4.328,3.067,6.927,3.859.975.298,1.924.809,2.762,1.398,1.213.856,2.445,1.636,3.861,2.119.59.201.891.796.879,1.421-.036,1.179-.133,2.356-.216,3.536-.099,1.329-.213,2.657-.327,3.983-.058-.002-.111-.007-.165-.012"/>
  <path id="_Path_청송" data-name="&amp;lt;Path&amp;gt;청송" class="cls-1" d="m435.595,283.22c.22,1.017.595,2.013.632,3.027.118,3.846.114,7.703-1.225,11.395-.571,1.562-.622,3.178-.75,4.803-.157,1.929,1.677,4.446,3.936,4.642,1.769.151,3.544.295,5.303.501.571.064,1.145.262,1.668.498.211.093.416.46.411.698-.036,1.374-.574,2.573-1.433,3.631-.179.224-.404.463-.661.573-2.304.983-4.163,2.771-6.632,3.493-3.389.986-4.935,3.589-5.412,6.905-.191,1.313-.21,2.652-.266,3.981-.034.741-.012,1.482.039,2.22.179,2.422-1.046,3.931-3.19,4.754-1.246.487-2.442,1.031-3.531,1.823-.992.716-1.769,1.592-2.05,2.8-.508,2.188-1.68,4.1-2.52,6.145-.29.695-.978,1.145-1.765,1.181-2.108.092-4.102-.199-5.932-1.414-2.36-1.568-4.621-3.248-6.237-5.589-1.793-2.599-4.112-4.645-6.47-6.665-1.471-1.267-3.055-2.315-5.034-2.675-.714-.132-1.37-.525-2.072-.751-3.628-1.174-7.271-1.19-10.914-.069-1.585.485-2.149,1.251-2.311,2.875-.121,1.226.06,2.359.823,3.358.453.586.862,1.21,1.356,1.755,1.922,2.104,1.958,4.536,1.235,7.063-.148.513-.629,1.043-1.094,1.314-.758.44-1.605.787-2.457.971-2.224.499-4.061,1.755-5.952,2.905-.898.547-1.447,1.416-1.721,2.488-.445,1.714-.949,3.418-1.508,5.097-.656,1.97-2.011,3.234-4.076,3.682-1.009.215-2.021.436-3.035.634-1.59.315-3.209.523-4.773.937-1.864.491-3.662,1.123-4.838,2.892-.583.876-1.59,1.297-2.658,1.455-.876.133-1.752.336-2.633.37-1.885.068-3.505-.482-4.495-2.253-.29-.516-.665-.99-.92-1.518-1.413-2.902-3.923-3.33-6.748-2.994-.731.085-1.438.356-2.159.503-1.017.208-2.028.458-3.055.547-2.302.208-2.987-.327-3.086-2.614-.022-.593-.083-1.186-.199-1.764-.203-1.048-.15-2.019.392-2.992.818-1.474.823-3.132.867-4.759.031-1.271-.433-2.316-1.44-3.091-.588-.453-1.241-.811-1.82-1.271-1.133-.903-1.595-2.06-1.249-3.524.378-1.578.823-3.159,1.012-4.763.373-3.175.21-4.089-3.26-6.008-.903-.498-1.856-.904-2.764-1.393-.629-.339-.552-1.5.128-1.841.792-.394,1.624-.707,2.413-1.104.789-.397,1.563-.825,2.314-1.294.646-.407,1.094-1.011,1.203-1.784.172-1.17.288-2.35.443-3.523.119-.929.496-1.772,1.329-2.198,1.326-.685,2.457-1.617,3.592-2.561.365-.305,1.319-.282,1.685-.002,1.053.808,2.067,1.668,3.156,2.419.489.335,1.15.31,1.692-.012.504-.3,1.021-.622,1.423-1.041,2.043-2.149,3.938-4.415,4.802-7.34.811-2.73,2.573-4.605,5.165-5.727.545-.234,1.116-.406,1.646-.667,2.432-1.194,3.923-3.076,4.163-5.842.155-1.773.361-3.54.455-5.309.094-1.814.615-3.488,1.401-5.099.523-1.062,1.106-2.093,1.624-3.155,1.832-3.763,2.997-7.659,3.122-11.912.123-4.434.61-8.855.939-13.285.152-2.065.414-4.125.186-6.203-.08-.724.02-1.483.128-2.209.15-1.068.595-1.98,1.619-2.498.138-.068.259-.149.395-.206,2.442-1.029,3.115-3.041,2.876-5.439-.174-1.762-.489-3.519-.881-5.246-.259-1.153-.813-2.232-1.658-3.098-.721-.739-1.476-1.447-2.217-2.169-.685-.664-.893-1.453-.799-2.414.252-2.588,1.564-4.399,3.841-5.57.661-.336,1.326-.662,1.948-1.058.811-.516,1.234-1.896.859-2.774-.407-.95-.91-1.859-1.307-2.814-.237-.557-.225-1.162.109-1.703.54-.882,1.031-1.812,1.677-2.604,1.881-2.292,3.696-4.623,5.08-7.26.199-.381,1.172-.62,1.607-.45,1.81.701,3.437,1.746,4.858,3.041,2.51,2.29,4.935,4.627,6.516,7.767,1.452,2.904,3.26,5.629,4.928,8.422.298.508.637,1.001,1.005,1.46.571.707,1.28,1.25,2.205,1.386,1.46.22,2.929.38,4.396.593,1.455.211,2.924.401,4.369.706,1.198.251,2.149.962,2.861,1.97,1.958,2.781,3.989,5.52,5.848,8.365.985,1.5,1.982,2.942,3.374,4.086.876.715,1.203,1.682,1.14,2.758-.145,2.511-.358,5.021-.532,7.53-.266,3.948-.516,3.919,1.948,7.415.929,1.322,1.627,2.816,2.36,4.261.668,1.319,1.232,2.691,1.871,4.025.852,1.762,1.953,3.316,3.749,4.253,1.808.945,2.943,2.422,3.512,4.373.162.563.453,1.09.663,1.641.433,1.145,1.179,2.047,2.154,2.76,1.067.785,2.154,1.552,3.289,2.365"/>
  <path id="_Path_영양" data-name="&amp;lt;Path&amp;gt;영양" class="cls-1" d="m432.388,99.153c1.912.206,3.812.416,5.659,1.054,1.021.355,1.898.83,2.57,1.644,1.041,1.256,2.021,2.552,3.062,3.806.75.913,1.484,1.854,2.348,2.651,1.212,1.122,2.636,1.871,4.362,1.947,1.479.065,2.965.167,4.429.377,2.202.317,3.737-.43,4.635-2.506.416-.944.9-1.871,1.476-2.722.583-.869,1.423-1.479,2.425-1.854.801-.296,1.948.315,2.081,1.144.269,1.644.075,3.249-.431,4.818-.595,1.861-.646,3.792-.731,5.71-.075,1.728.615,3.18,1.932,4.303.903.766,1.864,1.46,2.762,2.23.944.811,1.484,1.831,1.399,3.115-.077,1.185-.131,2.367-.228,3.549-.16,1.921.571,3.445,1.956,4.732,1.087,1.006,2.161,2.025,3.154,3.117,1.043,1.15.6,3.089-.835,3.763-1.07.496-2.205.845-3.294,1.303-.997.421-1.711,1.158-2.11,2.169-.38.962-.724,1.939-1.084,2.907-.436,1.161-1.247,1.998-2.278,2.641-.249.156-.501.322-.77.436-2.382.989-3.553,3.103-4.604,5.215-.796,1.606-.687,3.47-.612,5.239.027.699.421,1.406.75,2.055.194.385.559.687.871.995.53.52,1.089,1.006,1.624,1.519.68.655.947,1.495.978,2.405.065,2.131-.574,4.101-1.612,5.92-1.111,1.929-2.161,3.864-2.735,6.035-.162.61-.709.942-1.29,1.113-.997.287-2.014.502-3.006.79-.99.29-2.021.523-2.943.969-3.391,1.646-3.781,2.337-4.326,5.606-.259,1.606-.324,3.242-.501,4.86-.194,1.787-.511,3.52-1.982,4.799-.578.506-.741,1.269-.823,2.013-.167,1.473-.305,2.947-.487,4.415-.111.917-.516,1.656-1.336,2.181-1.246.793-2.457,1.639-3.66,2.502-.53.376-.789,1.434-.52,2.032,1.288,2.843,2.793,5.546,4.976,7.819.922.962,1.83,1.936,2.738,2.911.755.807.99,1.8.944,2.872-.058,1.353-.329,2.635-1.186,3.743-.457.584-.794,1.261-1.271,1.821-.932,1.083-1.108,2.377-1.225,3.723-.082,1.064.06,2.052.569,3.004.489.912.939,1.847,1.355,2.793.177.402.223.856.322,1.287.15.69-.441,1.418-1.172,1.639-.891.27-1.76.149-2.638.05-.966-.109-1.747.179-2.227,1.078-.073.128-.167.243-.249.369-.39.61-.654,1.412-1.205,1.79-.9.62-2.033.336-3.021.066-1.561-.431-3.12-.927-4.611-1.551-1.433-.596-2.817-.799-4.321-.369-1.397.396-2.624.017-3.677-.977-.912-.861-2.014-1.353-3.248-1.071-1.66.382-2.885-.376-4.028-1.355-.552-.471-1.012-1.076-1.431-1.679-2.123-3.03-4.255-6.052-6.308-9.127-1.416-2.125-3.299-3.315-5.862-3.476-1.917-.121-3.836-.334-5.749-.513-1.435-.136-2.503-.855-3.224-2.079-1.951-3.318-3.936-6.615-5.812-9.973-.586-1.048-1.246-1.996-2.043-2.878-3.009-3.311-6.313-6.251-10.427-8.139-1.336-.612-2.055-1.634-2.244-3.064-.116-.872-.353-1.755-.303-2.619.271-4.611-.097-9.164-.99-13.688-.199-1.008-.332-2.061-.276-3.08.116-1.934.034-3.834-.213-5.756-.274-2.134.162-4.123,1.59-5.819.191-.229.356-.477.542-.704,3.817-4.701,4.059-9.978,2.457-15.523-.409-1.415-1.016-2.775-1.552-4.153-.269-.7-.426-1.4-.324-2.162.319-2.493.641-4.984.915-7.483.145-1.284.729-2.193,1.89-2.791,2.232-1.154,4.451-2.347,6.661-3.545.799-.429,1.639-.666,2.539-.726,2.147-.138,3.921-1.041,5.598-2.384,2.077-1.663,4.265-3.202,6.525-4.6,2.13-1.318,4.381-2.476,6.651-3.545,3.306-1.556,5.925-3.868,8.06-6.791.525-.714,1.094-1.403,1.578-2.143,2.721-4.164,6.407-7.34,10.35-10.261.474-.352.983-.667,1.491-.967,1.694-1.019,3.457-1.672,5.478-1.09.421.121.884.085,1.327.121"/>
  <path id="_Path_영덕" data-name="&amp;lt;Path&amp;gt;영덕" class="cls-1" d="m488.735,300.503c-.874.54-1.503.916-2.118,1.32-1.462.942-2.239,2.338-2.556,3.999-.189,1.015-.247,2.054-.395,3.08-.145,1.026-.186,2.095-.52,3.053-.641,1.844-.799,3.75-1.138,5.644-.443,2.466-1.017,4.917-1.59,7.356-.605,2.595-.482,4.947.876,7.258.501.842.223,1.62-.547,2.361-1.005.963-2.111,1.585-3.575,1.413-1.324-.157-2.66-.189-3.984-.327-3.827-.402-7.649-.859-11.482-1.23-2.091-.198-4.076-.716-5.954-1.636-1.304-.639-2.065-1.663-1.941-3.185.06-.736.029-1.526.293-2.191.912-2.298,1.009-4.971,3.052-6.766.208-.186.288-.511.441-.769.651-1.107.692-2.263.152-3.401-1.331-2.788-3.34-4.893-6.385-5.75-1.077-.305-1.903-.813-2.432-1.757-1.295-2.322-3.343-3.195-5.891-3.306-1.624-.07-3.246-.27-4.865-.466-1.447-.177-2.275-1.4-2.474-2.764-.167-1.182-.039-2.372.39-3.495,1.634-4.25,1.399-8.729,1.597-13.148.031-.719-.232-1.452-.38-2.174-.186-.91-.685-1.626-1.413-2.189-.119-.086-.228-.197-.356-.262-2.568-1.219-4.168-3.21-4.937-5.941-.501-1.791-1.644-3.155-3.265-4.042-2.057-1.128-3.26-2.9-4.204-4.982-1.406-3.098-2.786-6.216-4.868-8.954-.835-1.1-1.128-2.377-.992-3.772.288-2.798.501-5.603.806-8.4.099-.942.724-1.604,1.585-1.99.395-.177.811-.387,1.268-.154.131.067.303.084.397.175,1.508,1.487,3.389,1.767,5.359,1.559,1.827-.197,3.522.269,5.216.816,1.404.459,2.781.984,4.192,1.421.559.17,1.167.237,1.747.225.92-.022,1.738-.343,2.258-1.173.082-.123.152-.26.198-.398.586-1.591,1.636-2.388,3.406-2.128.881.132,1.757-.01,2.614-.324.983-.354,1.682-1.438,1.457-2.439-.133-.57-.288-1.147-.518-1.683-.535-1.221-1.128-2.413-1.692-3.621-.75-1.591-.745-3.138.249-4.64.491-.738.932-1.511,1.445-2.238,1.261-1.795,1.513-3.817,1.394-5.929-.051-.917-.424-1.729-1.019-2.419-.963-1.117-1.924-2.242-2.97-3.296-1.796-1.814-3.052-3.975-4.125-6.263-.191-.407.034-1.338.351-1.67.838-.868,1.881-1.426,2.924-1.984.997-.528,1.491-1.403,1.607-2.503.097-.882.22-1.767.257-2.651.085-1.83.552-3.455,1.905-4.819.854-.855,1.14-2.051,1.246-3.259.184-2.067.385-4.129.557-6.196.167-1.973,1.288-3.257,2.975-4.106,1.598-.809,3.331-1.201,5.071-1.579,1.227-.27,2.338-.196,3.345.637.961.794,2.116.987,3.321,1.078,1.619.122,3.246.258,4.865.409,1.476.141,2.946.333,4.422.451,1.68.139,3.219.637,4.383,1.881,1.203,1.291,2.716,1.723,4.369,1.894.738.077,1.476.147,2.215.199,2.386.156,4.727.079,6.908-1.128.973-.537,1.997-.444,2.975.087,1.689.904,3.459,1.651,4.904,2.989.864.795,1.944,1.348,2.9,2.037.6.431,1.191.882,1.728,1.383.561.528.915,1.239.738,2-.532,2.285-.871,4.684-3.047,6.181-.644.442-.903,1.163-.983,1.918-.104,1.031-.208,2.065-.23,3.098-.036,1.525-.392,2.794-1.52,4.001-1.314,1.413-1.23,3.304-.416,4.997.571,1.185,1.399,2.254,2.169,3.335,1.203,1.691,2.486,3.319,3.667,5.022.673.966,1.239,2.01,1.798,3.051.712,1.325,1.116,2.758,1.036,4.265-.24,4.469.518,8.847,1.21,13.223.09.586.206,1.17.23,1.755.041.754-.118,1.49-.607,2.085-.753.911-1.537,1.799-2.316,2.691-.699.807-1.096,1.743-1.203,2.805-.232,2.363-.503,4.722-.114,7.084.424,2.541.344,5.014-.726,7.402-.622,1.388-.554,2.892-.675,4.364-.145,1.767-.327,3.535-.477,5.302-.123,1.435-.855,2.495-1.975,3.323-.833.62-1.675,1.222-2.505,1.84-1.564,1.157-2.907,2.518-3.899,4.206-.453.764-.944,1.504-1.442,2.241-1.428,2.103-2.51,4.34-2.88,6.899-.167,1.163-.535,2.301-.864,3.684"/>
  <path id="_Path_예천" data-name="&amp;lt;Path&amp;gt;예천" class="cls-1" d="m210.006,94.926c1.065.09,2.249.127,3.408.298,1.474.218,2.416,1.312,2.326,2.767-.145,2.361-.387,4.716-.595,7.076-.363,4.129-.738,8.261-1.101,12.388-.116,1.348-.026,2.677.721,3.856.467.744.941,1.502,1.549,2.133.607.634,1.457,1.038,2.057,1.677,1.961,2.072,4.451,2.159,6.993,1.889,1.457-.156,2.878-.617,4.321-.937.721-.162,1.44-.382,2.171-.454,2.263-.22,4.117.563,5.252,2.568.801,1.41,1.45,2.914,2.065,4.421.269.664.397,1.436.385,2.154-.041,2.46.777,4.657,1.975,6.729.888,1.537,1.793,3.051,2.469,4.704.385.942,1.126,1.733,1.661,2.615.692,1.135,1.343,2.29,1.987,3.453.356.641.649,1.32.985,1.975.665,1.303,2.275,2,2.418,3.623.116,1.388-.821,2.518-1.072,3.807-.337,1.74-.571,3.51-.266,5.291.046.293.133.576.184.868.566,3.004.104,4.179-3.517,4.739-1.164.176-2.345.27-3.526.32-1.227.055-2.314.456-3.343,1.064-.639.379-1.203.845-1.537,1.552-.315.664-.658,1.32-1.046,1.951-.75,1.228-1.658,1.611-2.982,1.285-1.007-.245-1.994-.609-3.013-.751-1.012-.139-2.062-.151-3.081-.064-1.312.111-2.549,1.306-2.754,2.547-.162,1.021-.235,2.057-.363,3.086-.109.882-.203,1.764-.351,2.642-.14.84-.995,1.663-1.806,1.73-.736.06-1.481.113-2.22.056-1.568-.122-2.885.485-4.137,1.325-1.045.702-1.612,1.703-1.808,2.93-.022.147-.022.295-.048.441-.172,1.16.547,2.432-.201,3.478-.937,1.303-2.212,2.332-3.169,3.635-.237.328-.721.501-1.125.664-.545.22-1.125.36-1.684.553-2.266.785-4.255,2.042-6.085,3.578-1.399,1.18-2.529,2.481-2.682,4.42-.08.977-.707,1.67-1.592,1.95-1.617.511-2.9,1.406-3.933,2.745-.346.448-.881.79-1.394,1.067-1.561.843-3.11,1.718-4.739,2.424-2.304,1.005-4.662,1.879-7.012,2.781-.687.26-1.409.444-2.128.62-1.336.328-2.021-.059-2.324-1.291-.099-.429-.167-.873-.218-1.311-.148-1.324-.995-2.1-2.077-2.684-1.334-.726-2.769-1.024-4.282-.952-.811.037-1.505.43-1.793,1.121-.927,2.253-2.411,4.042-4.27,5.577-1.309,1.083-2.079,2.481-2.152,4.219-.031.592-.143,1.176-.172,1.769-.082,1.691-.741,3.15-1.755,4.474-1.44,1.881-2.863,3.775-4.311,5.646-1.399,1.817-1.547,3.784-.707,5.852.332.82.688,1.658,1.193,2.367,1.314,1.832,2.055,3.924,2.945,5.956.666,1.52.942,3.109.939,4.749-.007,1.255-.532,2.291-1.583,3.024-1.372.957-2.818,1.564-4.57,1.19-1.012-.213-2.06-.232-3.093-.324-1.472-.129-2.929-.215-4.41.168-.983.255-2.05.286-3.079.277-.908-.005-1.859-.317-2.285-1.15-.9-1.743-2.452-2.514-4.158-3.091-1.568-.535-2.873-1.514-4.224-2.413-.99-.669-1.731-1.591-2.329-2.638-.704-1.226.097-2.857,1.552-2.986.874-.077,1.767-.03,2.653-.023.886.007,1.772.073,2.655.045.782-.028,1.767-.877,1.948-1.618.784-3.225.112-6.149-1.873-8.781-.445-.586-1-1.088-1.479-1.646-.305-.354-.213-1.355.111-1.669.864-.822,1.808-1.519,2.939-1.942.83-.315,1.68-.595,2.476-.989,2.038-1.014,3.275-2.684,3.038-4.97-.252-2.486-.177-5.045-1.067-7.438-.806-2.153-.787-4.34-.453-6.563.111-.738.254-1.455.787-2.03.937-1.019,1.426-2.221,1.489-3.611.08-1.904,1.244-2.914,2.936-3.45.426-.136.842-.282,1.273-.393,1.491-.375,2.648-1.279,3.735-2.308,1.005-.962,1.602-2.109,1.646-3.522.024-.593.085-1.183.099-1.773.027-1.119-.474-2.015-1.302-2.706-.443-.371-1.031-.575-1.505-.924-.467-.35-.975-.719-1.29-1.192-1.307-1.973-2.609-3.954-3.795-6-.929-1.601-.632-3.171.622-4.479.107-.104.184-.241.298-.322,3.166-2.251,5.473-5.413,8.399-7.906,1.842-1.567,3.302-3.384,3.895-5.787.031-.142.143-.258.208-.392.232-.461,1.183-.696,1.554-.347.748.709,1.513,1.409,2.186,2.184,1.07,1.242,2.416,1.635,3.977,1.479.443-.042.881-.111,1.317-.199,1.334-.267,2.053-1.088,2.348-2.327.772-3.259-.138-5.834-2.948-7.698-.128-.081-.235-.19-.349-.275-2.941-2.137-3.057-2.363-.545-4.983,1.053-1.1,1.675-2.439,1.813-3.957.254-2.949.47-5.902.692-8.854.121-1.62.182-3.247.339-4.865.116-1.125.801-1.908,1.835-2.308.813-.315,1.68-.523,2.534-.736,1.145-.285,2.338-.431,3.437-.83.808-.295,1.552-.845,2.239-1.393.576-.459.976-1.107,1.055-1.892.136-1.323.259-2.652.395-3.974.394-3.83.833-7.655,1.174-11.489.177-1.913,1.002-3.363,2.575-4.429.491-.329.924-.741,1.416-1.065,1.271-.834,2.638-1.326,4.192-1.151.588.068,1.191.035,1.774.139,2.21.384,4.078-.402,5.79-1.683,2.733-2.044,5.19-4.402,7.554-6.855,1.125-1.168,2.181-2.414,3.751-3.317"/>
  <path id="_Path_영주" data-name="&amp;lt;Path&amp;gt;영주" class="cls-1" d="m216.231,107.496c.264-2.652.542-5.304.794-7.956.068-.737.099-1.478.099-2.216.007-1.835-.973-2.982-2.861-3.372-.864-.178-1.755-.272-2.607-.497-1.241-.324-1.948-1.267-2.023-2.573-.063-1.034-.121-2.067-.155-3.103-.058-1.574-.678-2.855-1.934-3.824-1.646-1.269-3.156-2.677-4.374-4.377-.312-.433-.22-1.254.211-1.599.339-.282.697-.54,1.043-.809.702-.546,1.409-1.089,2.101-1.641,1.489-1.18,2.162-2.762,2.297-4.623.097-1.341.01-2.647-.339-3.957-.4-1.508.332-2.575,1.592-3.319.891-.528,1.813-.994,2.721-1.502.641-.362,1.3-.707,1.91-1.121,1.147-.765,2.007-1.741,2.106-3.214.031-.44.128-.877.208-1.313.174-.917.67-1.669,1.385-2.211,1.777-1.336,3.568-2.647,5.397-3.906.596-.409,1.305-.679,1.997-.925.695-.244,1.438-.353,2.14-.572,1.021-.322,1.82-.911,2.367-1.878.733-1.282,1.539-2.523,2.328-3.77.758-1.199,1.898-1.845,3.246-2.145,1.295-.284,2.604-.532,3.899-.823,2.203-.49,4.175-1.481,5.981-2.813,1.505-1.105,2.454-2.54,2.602-4.444.099-1.329.242-2.655.317-3.985.094-1.639,1.13-2.858,2.965-3.47.143-.047.29-.087.436-.085,2.157.066,4.049-.608,5.773-1.887.874-.644,1.912-.8,2.968-.532,2.604.657,5.272.738,7.934.902,1.469.094,2.568-.545,3.408-1.697.697-.955,1.338-1.948,2.055-2.892.571-.764,1.389-1.088,2.336-1.007,3.439.305,6.676,1.247,9.655,3.036,1.951,1.175,3.403,2.836,4.684,4.659,1.101,1.567,1.428,3.124.099,4.874-1.798,2.377-2.682,5.258-3.902,7.951-.298.656-.455,1.408-.542,2.131-.194,1.618-.368,3.24-.431,4.865-.152,3.919-1.469,7.52-2.916,11.087-.622,1.524-1.544,2.855-2.861,3.896-2.311,1.835-3.476,4.337-4.083,7.153-.126.58-.218,1.167-.382,1.732-.593,2.02-1.484,3.862-3.214,5.178-.116.091-.22.201-.339.285-2.694,1.869-3.616,4.536-3.577,7.691.012,1.227.179,2.382.937,3.349,1.089,1.4,1.208,2.971,1.029,4.633-.094.885-.114,1.777-.213,2.656-.172,1.542.152,2.838,1.227,4.077.85.979,1.319,2.282,1.968,3.441.29.52,1.13.646,1.544.218.823-.845,1.6-1.733,2.44-2.568,2.074-2.062,4.645-3.153,7.496-3.522,1.772-.23,3.551-.069,5.211.712.947.438,1.876.89,2.827,1.298,1.445.62,2.345,1.76,3.062,3.091.528.989.262,2.592-.62,3.254-.816.617-1.723,1.125-2.59,1.684-.775.499-1.363,1.149-1.534,2.08-.588,3.209-.833,6.461-.84,9.718-.005,1.663.615,3.188,1.508,4.583.489.767,1.118,1.424,2.072,1.531,1.525.177,2.295,1.197,2.96,2.407.525.954.736,1.942.302,2.977-.791,1.91-1.605,3.813-2.435,5.707-.351.816-.801,1.589-1.145,2.405-.859,2.061-1.447,4.184-1.593,6.433-.194,2.954-.491,5.902-.741,8.854-.089,1.05-.409,2.005-1.005,2.9-.707,1.058-1.622,1.757-2.887,1.807-2.822.114-5.637-.07-8.372-.742-.975-.237-1.883-.845-2.749-1.385-1.005-.622-1.953-1.346-2.9-2.048-1.68-1.244-3.439-2.188-5.586-2.486-1.44-.199-2.839-.84-4.192-1.423-1.116-.476-2.258-.649-3.434-.825-1.978-.303-3.798-.074-5.509,1.064-.985.651-2.06,1.187-3.149,1.643-2.019.84-2.512,1.11-4.015-1.121-1.159-1.717-2.447-3.331-3.193-5.309-.356-.958-.992-1.812-1.534-2.691-1.111-1.787-2.004-3.695-2.004-5.804-.007-2.799-1.208-5.158-2.367-7.542-1.68-3.436-4.652-4.358-8.188-3.666-1.738.339-3.449.812-5.177,1.197-.574.126-1.179.235-1.755.206-.731-.035-1.534-.062-2.169-.372-2.021-.985-3.718-2.437-4.993-4.28-.854-1.232-1.162-2.684-1.007-4.229.295-3.098.523-6.196.779-9.297.007,0,.014,0,.024.002"/>
  <path id="_Path_청도" data-name="&amp;lt;Path&amp;gt;청도" class="cls-1" d="m201.331,560.025c.523-.845,1.046-1.568,1.433-2.36.946-1.961,1.164-3.948.114-5.961-2.755-5.289-2.977-10.728-.91-16.299.561-1.515.929-3.115,2.026-4.509,1.445-.612,3.062-.837,4.628-1.237,1.735-.436,3.379-1.055,4.834-2.14.707-.535,1.455-1.033,2.239-1.433.361-.186.92-.261,1.273-.111,1.206.506,2.183,1.576,3.645,1.421,1.169-.121,2.341-.266,3.507-.39.406-.044.898.487.799.845-.128.424-.181.871-.37,1.264-1.026,2.137-.404,4.163.772,5.879,1.242,1.808,2.796,3.447,4.921,4.369.845.37,1.702.561,2.58.324,2.002-.518,3.986-1.002,5.737-2.27,1.174-.85,2.599-1.411,3.979-1.919,3.088-1.133,6.027-2.469,8.297-4.952.835-.915,1.842-.82,2.856-.397.54.225,1.058.528,1.547.862,1.839,1.251,3.715,2.418,5.734,3.367,1.498.709,2.643,1.883,3.59,3.241.673.971,1.312,1.97,2.062,2.883.564.688,1.273,1.242,2.159,1.496,1.053.298,2.123.356,2.936-.448,2.191-2.171,4.698-4.088,5.719-7.211.385-1.188,1.322-1.939,2.461-2.416,3.021-1.256,6.165-2.091,9.377-2.636.849-.145,1.762.007,2.638.104,2.203.237,4.405.506,6.605.792,1.298.169,2.314-.349,3.18-1.23.513-.523.934-1.15,1.457-1.665.305-.303.709-.632,1.109-.685,2.365-.365,4.517-1.396,6.78-2.081.416-.133.869-.177,1.307-.199.61-.039,1.181.138,1.593.61.382.448.651,1.009,1.079,1.399.424.382.963.791,1.498.859,1.61.215,3.256.472,4.855.337,1.929-.157,3.703-.985,5.231-2.234.685-.569,1.288-1.242,2.006-1.755,2.416-1.728,3.701-4.204,4.483-6.942.378-1.314.755-2.563,1.755-3.512,1.29-1.23,1.602-2.783,1.619-4.456.005-.593.034-1.193-.056-1.777-.535-3.449.891-6.368,2.508-9.219.373-.656.99-1.184,1.774-1.193,2.803-.051,5.603-.535,8.411-.075.726.121,1.455.269,2.154.496.755.242,1.222.825,1.339,1.612.247,1.675-.022,3.263-1,4.664-1.012,1.457-2.055,2.902-3.149,4.294-1.566,1.982-2.965,4.064-4.086,6.329-1.242,2.527-2.617,4.967-4.226,7.293-.929,1.326-1.656,2.8-2.394,4.245-.712,1.37-.823,2.856-.337,4.313.373,1.113.818,2.232,1.416,3.236.99,1.643,2.133,3.197,3.217,4.795.578.855,1.244,1.67,1.723,2.583,1.709,3.253,1.961,2.43,1.673,6.24-.097,1.261.327,2.362,1.225,3.212.862.818,1.869,1.467,3.077,1.665.879.143,1.764.228,2.645.329,1.106.128,1.934.714,2.561,1.59.685.961,1.402,1.914,1.985,2.943.353.617.707,1.38.683,2.06-.118,3.309.634,6.463,1.486,9.616.499,1.852-1.164,3.977-3.059,3.974-.288,0-.583-.068-.876-.097-2.338-.228-4.376.564-6.237,1.878-.845.598-1.658,1.246-2.449,1.915-1.017.859-2.125,1.658-2.972,2.665-1.975,2.334-4.432,2.728-7.237,2.169-.922-.181-1.636-.61-2.186-1.365-1.314-1.798-2.617-3.594-3.553-5.625-.431-.937-.942-1.847-1.433-2.757-.6-1.13-1.513-1.735-2.822-1.849-2.36-.21-4.684-.424-7.036.278-2.905.864-5.869.818-8.755-.131-1.597-.532-2.902-.002-4.156.862-.62.424-1.125.971-1.249,1.757-.114.736-.235,1.467-.295,2.205-.102,1.275-.714,2.224-1.745,2.946-2.205,1.537-4.086,3.408-5.79,5.475-.368.453-.83.837-1.266,1.239-.607.554-1.37.68-2.045.293-2.166-1.232-4.553-1.179-6.908-1.334-2.007-.131-3.783.508-5.4,1.672-1.578,1.13-3.045,2.353-3.952,4.132-.266.52-.634.995-.968,1.479-.644.927-1.559,1.336-2.665,1.319-.738-.014-1.496.019-2.215-.109-3.781-.688-7.561-1.37-10.701-3.844-.975-.77-2.147-.975-3.345-1.016-1.629-.058-3.253-.061-4.88-.148-.971-.051-1.687-.656-2.033-1.501-.513-1.23-.871-2.515-1.3-3.771-.428-1.251-1.394-1.946-2.616-2.137-1.31-.201-2.67-.351-3.977-.22-1.629.157-3.251.15-4.873.07-1.06-.046-2.118.07-2.921.808-2.416,2.212-5.248,2.452-8.295,1.946-1.167-.194-2.358-.213-3.541-.305-1.479-.109-2.948-.172-4.42.162-.716.157-1.467.191-2.205.22-1.755.058-3.146-.591-4.105-2.128-1.401-2.263-2.945-4.43-3.737-7.032-.404-1.317-1.154-2.391-2.759-2.544-.951-.097-1.573-.762-1.977-1.607-.312-.67-.525-1.409-.934-2.006-1.118-1.644-1.578-3.49-1.878-5.795"/>
  <path id="_Path_구미" data-name="&amp;lt;Path&amp;gt;구미" class="cls-1" d="m186.058,334.486c3.51.42,6.538-.189,9.532-1.066.704-.208,1.387-.492,2.099-.707.678-.203,1.525.231,1.815.917.177.404.351.816.482,1.237.712,2.268,1.767,4.384,2.858,6.489.883,1.699,1.607,3.488,2.42,5.23.324.692,1.186,1.072,1.842.813.547-.22,1.06-.552,1.627-.714.552-.167,1.198-.366,1.731-.232,2.558.637,5.199,1.128,7.232,3.05,1.28,1.213,1.777,2.682,1.619,4.4-.024.298-.046.603-.143.879-1.302,3.57-1.222,7.252-.954,10.957.07,1.031-.044,2.072-.01,3.108.048,1.619.223,3.246.22,4.865-.01,1.9.62,3.459,2.048,4.715,1.082.956,1.433,2.176,1.285,3.602-.22,2.208-.356,4.43-.595,6.634-.061.571-.337,1.118-.533,1.67-.165.441-1.142.813-1.522.591-1.53-.922-2.902-2.04-4.013-3.444-1.375-1.743-2.74-3.49-4.057-5.281-1.644-2.249-3.894-3.635-6.482-4.434-1.985-.61-4.081-.687-6.16-.586-.428.019-.886.152-1.264.356-2.038,1.094-3.587,2.614-4.003,4.996-.181,1.034-.39,2.026-.968,2.924-.816,1.266-1.208,2.672-1.428,4.156-.14.963-1.016,1.406-2.04,1.019-2.074-.777-4.117-1.622-6.163-2.476-1.493-.627-2.945-1.375-4.461-1.951-1.155-.433-2.328-.307-3.364.484-.942.716-1.895,1.416-2.834,2.139-1.791,1.382-3.783,2.222-6.025,2.648-1.752.334-3.512.484-5.279.666-2.628.276-4.611-.714-5.925-3.021-.508-.895-1.021-1.801-1.549-2.689-.791-1.336-1.932-2.292-3.43-2.636-2.479-.571-4.744-1.622-7.005-2.747-1.048-.52-2.215-.799-3.328-1.179-1.426-.484-2.701-1.188-3.793-2.239-.978-.944-1.307-2.363-.789-3.669.552-1.385,1.339-2.631,2.249-3.807.721-.939,1.452-1.878,2.038-2.9.276-.472.344-1.142.281-1.699-.131-1.188-.598-2.287-1.285-3.275-.76-1.106-.661-2.205-.065-3.345.411-.789.837-1.581,1.104-2.421.363-1.121.663-2.275.833-3.439.288-1.905-.244-3.514-2.031-4.529-.387-.218-.75-.477-1.128-.704-.695-.409-1.053-1.058-1.145-1.811-.121-1.021-.136-2.062-.208-3.091-.092-1.278-.707-2.278-1.793-2.905-1.145-.663-2.365-1.208-3.548-1.813-.917-.472-1.861-.903-2.735-1.457-1.036-.654-1.706-1.624-1.994-2.832-.099-.431-.126-.877-.186-1.316-.341-2.397-.929-4.623-3.154-6.092-.704-.466-1.15-1.338-1.677-2.045-.624-.83-1.193-1.696-1.815-2.528-1.447-1.946-3.328-3.371-5.584-4.236-1.786-.691-3.561-1.502-5.497-1.665-2.04-.179-3.682-.981-4.87-2.691-.627-.898-1.53-1.343-2.638-1.433-1.179-.097-2.358-.236-3.529-.411-1.041-.161-1.634-.752-1.738-1.738-.244-2.374-.002-4.733.525-7.048.165-.685.569-1.426,1.082-1.904,2.496-2.332,5.122-4.517,8.641-5.121,1.152-.198,2.384-.382,3.517-.184,2.459.429,4.984.615,7.339,1.582,1.719.701,3.437.602,5.197.005,1.336-.449,2.413-1.152,3.04-2.407.656-1.32,1.295-2.661,1.808-4.042.83-2.246,1.965-4.285,3.502-6.13,1.614-1.93,3.134-3.936,4.725-5.882.37-.45.833-.859,1.336-1.138.348-.192.949-.319,1.246-.143,1.648.971,3.263,2.01,4.834,3.106.608.424.934,1.122,1.06,1.89.61,3.872.661,3.671,4.396,5.276,3.401,1.457,6.622,1.131,9.849-.432,1.731-.84,3.473-1.653,5.231-2.438.891-.4,1.718-.168,2.377.607,1.155,1.353,2.321,2.694,3.401,4.106.625.813,1.094,1.745,1.602,2.644.511.898.939,1.847,1.479,2.724.404.657,1.06,1.066,1.832,1.116.879.059,1.825.208,2.633-.04,2.215-.676,4.398-.433,6.603-.126.958.131,1.721.81,1.818,1.668.138,1.175.262,2.358.293,3.534.012.411-.17.905-.429,1.225-.741.922-1.595,1.752-2.353,2.662-1.271,1.521-1.416,3.162-.411,4.934.511.897,1.217,1.691,1.675,2.611.242.485.373,1.237.169,1.698-1.803,4.059-1.44,8.412-1.837,12.66-.15,1.653.232,3.252.733,4.794.542,1.66,1.629,2.803,3.553,2.827.438.009.883.068.958.075"/>
  <path id="_Path_군위" data-name="&amp;lt;Path&amp;gt;군위" class="cls-1" d="m222.689,387.139c.16-1.915.31-3.836.477-5.751.123-1.406-.286-2.626-1.23-3.669-.399-.438-.789-.884-1.191-1.317-.525-.566-.76-1.246-.816-2.006-.194-2.651-.552-5.281-.273-7.963.162-1.602-.085-3.246-.155-4.875-.075-1.784.024-3.524.683-5.235.365-.947.474-2.007.591-3.028.235-2.091-.651-3.74-2.198-5.071-2.212-1.907-4.916-2.658-7.714-3.086-1.157-.177-2.362-.041-3.544-.114-.61-.039-1.159-.363-1.421-.932-1.646-3.626-3.89-6.959-4.955-10.88-.702-2.602-1.769-2.999-4.303-1.857-2.619,1.178-5.4,1.52-8.181,1.874-1.002.129-2.067-.059-3.086-.215-1.28-.203-2.116-1.015-2.496-2.248-.569-1.856-.808-3.762-.685-5.699.114-1.772.31-3.541.412-5.316.087-1.504.438-2.916,1.215-4.218.954-1.608.67-3.105-.399-4.541-.443-.593-.869-1.201-1.256-1.827-.678-1.09-.617-2.424.213-3.288,1.024-1.064,2.108-2.07,3.175-3.091.424-.402.971-.714,1.29-1.187,2.05-3.064,5.095-4.306,8.561-4.931,1.322-.237,2.319.099,3.234.952.542.503,1.094,1.006,1.571,1.571,2.813,3.337,6.329,5.274,10.739,5.423,1.823.062,3.483.672,5.129,1.326,2.089.833,3.933,2.039,5.357,3.824.552.694,1.096,1.398,1.711,2.034,1.675,1.75,3.606,3.012,6.083,3.358,1.462.206,2.885.678,4.352.875,2.103.283,3.96,1.121,5.768,2.164,3.086,1.783,5.896,3.946,8.68,6.156,2.181,1.735,3.667,4.893,2.302,8.365-.545,1.371-1.104,2.745-1.523,4.156-.557,1.849-.191,3.493,1.346,4.809.704.603,1.46,1.005,2.367,1.101.586.06,1.183.121,1.774.102,1.232-.034,2.345.286,3.314,1.038,1.605,1.232,3.272,1.172,5.022.366.397-.182.83-.353,1.261-.397.421-.041.924-.029,1.28.17.905.491,1.803,1.026,2.595,1.68,1.523,1.259,3.239,1.936,5.146,2.437,1.874.489,3.735.869,5.659,1.007,1.329.097,2.655.232,3.986.344,1.201.092,2.302.402,3.263,1.206,2.532,2.106,5.666,2.377,8.752,2.682.542.051,1.268-.123,1.668-.467,2.617-2.282,6.007-3.173,8.878-4.989.753-.477,1.621-.716,2.532-.724,1.329-.007,2.665-.051,3.996-.005,2.452.089,4.638.84,6.383,2.66.511.533,1.096.99,1.607,1.527,1.138,1.191,2.34,2.227,3.974,2.721,1.048.317,1.699,1.164,1.885,2.275.199,1.164.429,2.328.494,3.51.06,1.036.172,2.038.431,3.055.433,1.639.152,3.236-.719,4.701-.76,1.268-1.532,2.532-2.36,3.752-1.075,1.571-2.58,2.512-4.504,2.34-1.815-.162-3.515.433-5.279.549-1.244.08-1.941.796-2.108,1.907-.172,1.172-.29,2.35-.438,3.522-.116.927-.569,1.704-1.302,2.239-.951.697-1.912,1.445-2.977,1.903-3.212,1.38-5.797,3.51-7.965,6.206-.557.688-1.138,1.37-1.787,1.97-1.363,1.259-2.958,1.888-4.867,1.714-1.915-.179-3.815-.336-5.606-1.179-1.201-.564-2.51-.884-3.757-1.356-.685-.259-1.341-.605-2.011-.91-.908-.407-1.305-1.13-1.363-2.099-.022-.436-.046-.927-.257-1.283-.203-.336-.617-.588-.992-.757-.24-.109-.598-.065-.866.019-1.549.501-3.132.924-4.599,1.597-.912.416-1.685,1.176-2.43,1.886-.646.612-1.077,1.409-1.13,2.348-.01.148-.034.293-.051.441-.489,4.717.109,4.255-3.979,7.883-2.154,1.912-3.454,4.391-3.621,7.373-.138,2.508-.482,4.993-.012,7.523.211,1.135-.022,2.35-.075,3.529-.029.552-.675,1.034-1.256.966-.588-.063-1.183-.107-1.757-.24-.717-.167-1.433-.38-2.123-.637-1.956-.728-3.79-.341-5.55.596-.651.348-1.232.828-1.888,1.162-1.505.753-2.677.69-4.1-.545-.879-.755-1.593-1.745-2.227-2.735-1.106-1.743-2.082-3.573-3.142-5.344-.632-1.06-.835-2.181-.767-3.403.075-1.66.295-3.306,1.46-4.555,1.532-1.629,1.907-3.558,2.06-5.683.211-2.97-.709-3.66-3.582-3.592-.867.029-1.743.278-2.585.542-2.258.704-4.497,1.469-6.741,2.219-.419.136-.823.329-1.244.467-3.263,1.029-5.357-1.145-5.727-3.814-.138-1.014-.058-2.07.036-3.096.123-1.322.361-2.638.549-3.957-.031-.002-.063-.005-.089-.01"/>
  <path id="_Path_성주" data-name="&amp;lt;Path&amp;gt;성주" class="cls-1" d="m97.623,409.489c.155-1.92.298-3.836.484-5.749.077-.806.627-1.302,1.312-1.658.136-.065.259-.177.397-.194,3.309-.486,6.039-2.28,8.849-3.906,2.099-1.22,4.311-1.907,6.763-1.694,1.917.167,3.81.138,5.749-.073,1.728-.191,3.539.087,5.279.368,1.602.257,3.166.753,4.717,1.227.692.211,1.336.622,1.99.954.847.44,1.365,1.125,1.394,2.101.056,2.128,1.111,3.602,2.876,4.691.62.382,1.111.971,1.682,1.438.869.712,1.271,1.677,1.246,2.737-.041,1.474-.087,2.975-.414,4.4-.431,1.893-.53,3.803-.719,5.717-.111,1.101.269,2.041.835,2.924,1.05,1.634,2.266,3.166,4.074,3.986,2.454,1.118,3.887,3.035,4.928,5.439,1.3,3.008,3.098,5.707,5.315,8.145,2.048,2.258,4.516,3.853,7.46,4.507,2.469.545,4.187,2.101,5.899,3.718.37.351.455,1.055.586,1.614.061.266-.06.581-.118.874-.385,2.031-.525,4.151-1.244,6.058-.663,1.762-2.011,3.258-2.953,4.933-1.452,2.566-2.614,5.306-4.584,7.569-.373.426-.498,1.065-.76,1.59-.547,1.099-.823,2.232-.431,3.435.348,1.077.111,2.004-.487,2.936-1.041,1.614-1.939,3.326-3.04,4.894-.879,1.263-1.382,2.607-1.501,4.107-.201,2.505-.334,5.02-.566,7.523-.065.717-.322,1.418-.583,2.096-.08.206-.441.363-.7.431-.271.068-.595.06-.864-.029-1.542-.516-3.081-1.038-4.604-1.612-2.793-1.053-5.332-2.537-7.564-4.541-1.099-.992-2.217-1.961-3.321-2.945-2.118-1.898-4.514-3.311-7.179-4.316-.992-.37-1.982-.564-3.018-.636-1.675-.116-2.42.53-2.604,2.258-.121,1.179-.128,2.341.143,3.524.327,1.44.516,2.909.719,4.371.119.895-.397,1.781-1.275,2.12-.68.254-1.411.496-2.123.503-1.326.014-2.653-.157-3.981-.225-.697-.034-1.489.498-1.74,1.157-.426,1.092-.813,2.193-1.256,3.28-.128.312-.453.348-.772.186-1.36-.687-2.382-1.786-3.166-3.021-1.346-2.118-2.679-4.275-3.713-6.552-.719-1.59-.92-3.41-1.37-5.122-.249-.951-.893-1.564-1.859-1.653-3.386-.312-6.779-.6-10.173-.825-1.275-.082-2.205.82-2.369,2.152-.286,2.353-.554,4.71-.022,7.072.128.564.085,1.171.089,1.76.005.578-.445,1.184-.922,1.377-.484.194-.934.048-1.237-.242-1.3-1.266-2.762-2.169-4.548-2.614-.85-.208-1.653-.649-2.421-1.096-1.169-.69-2.069-1.619-2.493-2.987-.523-1.709-.966-3.418-1.06-5.206-.085-1.561-.753-2.88-1.927-3.868-1.256-1.063-2.321-2.241-3.166-3.662-.966-1.617-2.374-2.607-4.323-2.713-.445-.017-.9-.075-1.305-.232-.395-.152-.847-.38-1.067-.712-.474-.733-.881-1.534-1.191-2.353-.138-.365-.094-.913.087-1.268.397-.787.92-1.508,1.402-2.249.324-.491.765-.932.971-1.469.431-1.145.518-2.343-.339-3.362-1.046-1.241-2.183-2.411-3.241-3.647-2.558-2.994-4.078-6.48-4.771-10.343-.286-1.602-.629-3.188-.893-4.8-.286-1.762-.276-3.534.024-5.303.157-.91.571-1.665,1.329-2.219.891-.661,2.091-.67,2.856.051.758.704,1.421,1.51,2.186,2.2.653.591,1.351,1.155,2.103,1.607,1.135.67,2.725.38,3.691-.554.76-.741,1.333-1.58,1.505-2.65.145-.874.191-1.784.465-2.621.399-1.256.91-2.488,1.486-3.674.329-.683.985-1.13,1.791-1.106,1.481.051,2.97.048,4.427.264,2.452.356,4.703-.266,6.927-1.116,1.128-.431,2.072-1.13,2.834-2.072.273-.348.552-.697.799-1.063,1.52-2.229,3.326-4.154,5.727-5.458.123-.07.237-.172.363-.249,1.264-.745,1.791-1.922,1.912-3.318.08-.884.121-1.769.165-2.658.036-.886.051-1.777.073-2.66.022,0,.049.002.07.002"/>
  <path id="_Path_칠곡" data-name="&amp;lt;Path&amp;gt;칠곡" class="cls-1" d="m176.343,387.395c2.261.675,4.023,1.37,5.761,2.212,2.382,1.152,4.882,2.062,7.341,3.055.261.109.586.068.879.092.489.034,1.293-.448,1.409-.888.191-.709.329-1.435.528-2.142.278-.995.469-2.035.917-2.948.6-1.21,1.007-2.442,1.285-3.759.312-1.503,1.227-2.662,2.452-3.58.857-.632,1.791-.961,2.885-.961,2.587-.005,4.935.76,7.162,2.026.915.52,1.709,1.164,2.358,1.985.738.925,1.45,1.874,2.149,2.825,1.588,2.144,3.282,4.19,5.347,5.911,1.481,1.235,2.764,2.636,3.735,4.345.654,1.142,1.508,2.207,2.44,3.139,1.23,1.234,2.769,1.663,4.492,1.084,2.66-.9,5.31-1.818,7.98-2.694.976-.322,1.98-.588,2.984-.816,1.024-.23,2.053.634,2.13,1.728.099,1.358-.036,2.662-.83,3.824-.167.242-.322.501-.518.721-2.009,2.321-2.072,5.134-1.98,7.97.034,1.063.603,1.961,1.138,2.851.755,1.271,1.523,2.539,2.195,3.848.588,1.123.228,2.096-.833,2.573-.404.179-.808.38-1.234.499-1.803.518-3.074,1.714-4.149,3.176-.177.237-.387.467-.506.728-1.063,2.396-3.178,3.43-5.485,4.127-1.694.513-3.439.91-5.18,1.198-1.946.322-3.737.864-5.158,2.319-.303.315-.678.607-1.072.757-.385.15-.929.259-1.268.097-1.196-.566-2.309-1.314-3.51-1.888-1.055-.506-2.159-.971-3.292-1.256-.876-.223-1.782.058-2.394.811-.598.733-.758,1.641-.484,2.512.215.694.673,1.309,1.019,1.963.636,1.196,1.005,2.486.944,3.834-.089,2.065-.145,4.151-.501,6.184-.348,2.028-.976,4.025-1.607,5.991-.52,1.629-1.598,2.808-3.323,3.282-1.285.353-2.561.724-3.836,1.099-1.699.506-2.902,1.428-2.972,3.389-.015.419-.16.922-.424,1.22-.257.288-.804.566-1.138.487-2.227-.528-4.066-1.714-5.449-3.553-.38-.503-.433-1.162-.131-1.68.518-.888,1.164-1.702,1.762-2.544.811-1.15,1.036-2.382.794-3.785-.445-2.604-1.648-4.73-3.696-6.373-1.038-.83-2.062-1.69-3.175-2.406-1.428-.908-3.355-.484-4.35.871-.436.591-.76,1.266-1.191,1.869-.433.61-1.012,1.053-1.757,1.276-2.268.673-4.526,1.338-6.417,2.905-.578.479-1.438.298-2.099-.109-.753-.467-1.481-.98-2.186-1.513-1.075-.816-2.248-1.3-3.565-1.673-3.028-.847-5.703-2.367-7.765-4.858-1.421-1.723-2.754-3.478-3.715-5.499-.571-1.203-1.125-2.418-1.779-3.575-.956-1.702-2.149-3.178-4.037-3.955-1.702-.7-2.982-1.915-3.938-3.464-.549-.891-.939-1.878-.83-2.943.135-1.317.257-2.658.595-3.931.506-1.883.665-3.793.665-5.712,0-1.368-.455-2.621-1.537-3.558-.893-.777-1.738-1.614-2.699-2.295-1.539-1.101-1.827-3.105-1.099-4.775.116-.269.266-.54.455-.762.804-.971.84-2.164,1.05-3.328.397-2.217-.089-4.083-1.764-5.649-.525-.494-.942-1.133-1.336-1.748-.133-.208-.165-.627-.046-.837.954-1.658,1.852-3.357,3.292-4.669.482-.438,1.082-.516,1.658-.424.578.09,1.15.283,1.677.525,1.077.498,2.128,1.041,3.168,1.597,1.191.639,2.45.98,3.769,1.225,1.518.283,2.691,1.193,3.497,2.527.455.757.883,1.534,1.3,2.319.559,1.07,1.334,1.951,2.232,2.735.685.591,1.44,1.053,2.377,1.077,1.174.031,2.367.126,3.526-.005,1.755-.196,3.486-.658,5.243-.835,2.154-.215,3.943-1.159,5.62-2.42,1.298-.976,2.612-1.924,4.042-2.977"/>
  <path id="_Path_경산-2" data-name="&amp;lt;Path&amp;gt;경산" class="cls-1" d="m302.626,525.236c-.429.576-.871,1.155-1.283,1.753-.837,1.212-2.026,1.733-3.439,1.639-1.467-.099-2.926-.322-4.388-.532-.729-.104-1.438-.382-2.166-.433-.874-.061-1.798-.112-2.631.104-2.72.692-5.407,1.493-8.106,2.265-2.249.646-3.894,1.869-4.744,4.216-.932,2.58-3.05,4.308-5.071,6.046-.513.438-1.542.431-2.074.015-.467-.361-.951-.721-1.331-1.162-.472-.567-.883-1.191-1.259-1.83-1.333-2.239-3.248-3.824-5.601-4.868-2.316-1.036-4.272-2.633-6.392-3.967-.792-.494-1.188-1.302-1.024-2.287.288-1.774.237-3.546-.121-5.301-.329-1.612-.303-3.234-.206-4.863.131-2.207.363-4.415-.08-6.63-.184-.925.215-1.789.888-2.406.864-.794,1.808-1.518,2.767-2.2,1.203-.857,2.457-1.641,3.691-2.459.791-.525,1.205-1.302,1.246-2.237.065-1.622.172-3.246.085-4.865-.099-1.876.218-3.524,1.709-4.805,1.786-1.547,2.568-3.524,2.67-5.867.07-1.571.479-1.835,1.869-1.646.874.119,1.757.312,2.631.332,1.861.044,3.471-.574,4.713-2.021.973-1.135,1.825-2.374,2.29-3.774.98-2.943,1.84-5.903,2.028-9.055.152-2.551.024-4.998-.695-7.455-.591-2.002-1.205-3.931-2.832-5.41-1.034-.949-1.351-2.282-1.326-3.653.056-2.66.022-5.351.922-7.9.724-2.055.578-4.049-.01-6.087-.409-1.418-.699-2.871-1.004-4.316-.155-.755.494-1.464,1.275-1.421.733.044,1.523-.014,2.181.249,1.811.729,3.703,1.014,5.608,1.266,2.418.317,4.584,1.108,6.24,3.006.194.218.448.385.668.588,2.517,2.333,5.248,4.236,8.731,4.964,1.566.327,3.001,1.225,4.524,1.798,1.159.44,2.031,1.21,2.675,2.229.549.869,1.031,1.796,1.474,2.73.859,1.817,1.092,3.681.23,5.567-.629,1.368-.835,2.82-1.046,4.296-.39,2.755.085,5.291,1.641,7.615.334.489.624,1.007.898,1.53.864,1.668,1.104,3.362.211,5.105-.138.261-.213.552-.344.818-1.135,2.261-.842,4.265,1.002,6.049.762.738,1.111,1.694,1.293,2.759.194,1.164.52,2.309.891,3.432.661,2.038,1.748,3.783,3.875,4.565,1.619.596,2.723,1.711,3.616,3.125.758,1.2,1.866,1.796,3.318,1.895,3.248.213,6.491.513,9.735.775.736.063,1.472.111,2.207.201,1.036.128,1.585.922,1.297,1.842-.31.985-.574,1.994-.985,2.939-.787,1.822-1.113,3.657-.603,5.62.15.561.165,1.174.15,1.757-.022.898-.182,1.767-.801,2.481-.39.445-.786.888-1.154,1.348-.554.702-1,1.455-1.138,2.367-.673,4.504-3.739,7.293-7.232,9.616-1.985,1.319-4.328,1.881-6.799,1.433-.932-.167-1.663-.566-2.154-1.38-.15-.257-.235-.547-.395-.791-.905-1.384-1.527-1.687-2.912-1.341-1.145.288-2.297.576-3.401.985-2.081.772-4.187,1.416-6.501,1.639"/>
  <path id="_Path_울릉도" data-name="&amp;lt;Path&amp;gt;울릉도" class="cls-1" d="m614.377,141.604c.104-1.261.199-2.143.242-3.028.065-1.351-.145-2.635-.857-3.835-.441-.758-.792-1.583-1.096-2.408-.148-.402-.126-.872-.136-1.312-.012-.654.583-1.576,1.186-1.72,1.854-.436,3.633-1.145,5.594-1.239,2.2-.102,4.432-.379,6.513-1.19,2.362-.925,4.65-.499,6.92.248.973.319,1.876.865,2.842,1.23.683.258,1.404.426,2.12.555,1.07.19,2.072-.03,2.902-.759,1.217-1.066,2.399-2.182,3.628-3.24.6-.516,1.322-.639,2.057-.26.52.27,1.021.58,1.534.87,1.752.991,3.602,1.225,5.557.758.562-.131,1.154-.197,1.731-.188.24.005.571.232.685.449.111.203.005.535-.056.795-.027.132-.169.236-.264.352-.097.114-.177.237-.288.337-1.036.967-1.418,2.213-1.534,3.575-.225,2.644-.663,5.274.288,7.895.414,1.13.14,2.355-.261,3.481-.39,1.11-.835,2.216-1.348,3.274-.777,1.582-.895,3.091.145,4.6.16.231.312.574.257.82-.085.399-.242.95-.54,1.106-.78.402-1.639.646-2.476.916-2.67.851-5.369,1.604-7.903,2.861-1.895.944-3.575,2.06-4.541,4.03-.189.386-.518.706-.789,1.048-.228.288-.973.426-1.21.21-.661-.582-1.356-1.138-1.948-1.781-2.06-2.239-4.8-3.398-7.431-4.707-.77-.382-1.714-.422-2.583-.578-3.096-.547-5.412-2.233-7.121-4.823-.404-.617-.835-1.222-1.198-1.861-.833-1.447-1.266-2.987-.934-4.677.138-.721.249-1.452.312-1.805"/>
  <path id="_Path_고령" data-name="&amp;lt;Path&amp;gt;고령" class="cls-1" d="m154.098,491.451c.216-6.262.248-6.377,3.698-11.585.328-.493.673-.979,1.037-1.45.988-1.285,2.844-1.85,4.371-1.34.981.323,1.984.607,2.943.996,1.535.622,3.123,1.02,4.765.991,4.13-.073,7.846,1.447,11.554,2.946,1.904.767,3.04,2.309,3.563,4.286.073.279.119.614.036.877-.459,1.437-1.105,2.831-2.484,3.555-1.581.828-3.322,1.452-5.129.865-2.008-.651-4.053-.867-6.129-1.037-1.345-.107-2.642.097-3.956.422-1.877.471-3.159,1.629-3.992,3.281-.537,1.054-.93,2.188-1.297,3.312-1.076,3.302-2.848,6.182-5.141,8.761-.889,1.001-1.758,2.016-2.596,3.055-.602.748-.716,1.656-.422,2.535,1.161,3.448,2.851,6.527,6.178,8.402,2.1,1.175,3.674,2.999,5.401,4.614,1.476,1.379,2.037,3.232,1.986,5.257-.022,1.018-.731,2.011-1.68,2.421-2.773,1.207-5.495,1.188-8.118-.367-1.404-.826-2.817-1.673-4.06-2.712-2.266-1.892-4.866-1.974-7.861-.221-3.171,1.848-4.05,5.578-2.268,8.9.488.918.925,1.87,1.506,2.727,1.43,2.1,2.608,4.298,3.103,6.826.202,1.051.845,1.892,1.617,2.605.869.809,1.821,1.542,2.642,2.394.605.629,1.149,1.355,1.581,2.118.546.947.6,2.035.068,2.992-1,1.824-2.067,3.606-3.176,5.362-.906,1.428-3.405,1.758-4.769.69-.221-.172-.418-.444-.498-.709-.126-.415-.24-.881-.189-1.302.308-2.69-.889-4.932-2.154-7.11-1.161-2.001-2.826-3.417-5.226-3.793-.879-.139-1.729-.423-2.6-.59-1.962-.374-3.647-1.178-4.91-2.805-.755-.981-1.845-1.45-3.094-1.569-1.916-.185-3.807-.309-5.738.165-2.436.597-4.966.748-7.278,1.906-.966.478-2.057.16-2.839-.699-.695-.765-1.326-1.593-2.052-2.331-.668-.677-1.554-.813-2.477-.721-.634.058-1.202.379-1.437.911-.544,1.212-.925,2.501-1.43,3.735-.233.573-.736.911-1.372.986-1.867.236-3.519-.279-4.995-1.425-1.43-1.1-2.557-2.47-3.555-3.958-.714-1.066-1.683-1.617-2.958-1.714-1.481-.112-2.958-.257-4.437-.401-1.032-.109-2.066-.214-3.091-.376-1.025-.155-1.71-.913-1.668-1.751.039-.787.777-1.6,1.719-1.797,1.45-.294,2.904-.576,4.366-.806,5.25-.826,8.416-3.941,10.08-8.878.682-2.016,1.032-4.046.809-6.124-.291-2.661-.865-5.301-2.081-7.695-.952-1.872-1.714-3.771-2.156-5.813-.122-.578-.34-1.139-.571-1.685-.35-.831-.86-1.569-1.634-2.059-.874-.558-1.78-1.068-2.666-1.61-1.103-.665-1.627-1.712-1.797-2.931-.204-1.484-.27-3.026.43-4.368,1.029-1.965.969-4.002.784-6.08-.078-.884-.284-1.77-.289-2.654-.01-.882.126-1.773.272-2.644.136-.811,1.088-1.649,1.884-1.659,2.824-.036,5.641.095,8.39.777.498.126.881.721,1.297,1.119.097.095.131.27.153.413.612,3.917,2.797,7.137,4.66,10.495.146.257.284.537.471.755,1.549,1.792,3.103,3.584,4.677,5.355.454.512,1.666.248,1.901-.384.158-.415.337-.826.437-1.255.226-1.01.384-2.038.624-3.05.226-.974.95-1.554,1.88-1.569.59-.007,1.185.007,1.777.029.593.019,1.188.099,1.778.083,2.977-.095,4.393-1.729,4.06-4.575-.187-1.617-.568-3.208-.823-4.815-.095-.58-.107-1.175-.08-1.758.029-.792,1.137-1.639,1.914-1.503.435.078.874.168,1.285.304,3.009.996,5.587,2.705,7.933,4.808,1.328,1.187,2.717,2.297,4.055,3.47,2.161,1.889,4.725,3.057,7.336,4.121,1.37.558,2.783,1.022,4.196,1.45.556.168,1.173.163,1.76.18.719.029,1.523-.578,1.613-1.27.223-1.765.393-3.531.585-5.296"/>
  <g id="_Group_독도" data-name="&amp;lt;Group&amp;gt;독도">
    <path class="cls-1" d="m671.17,193.126c-.213-.123-.67-.156-.818-.019-1.106,1.01-1.934,2.186-1.844,3.787.027.494.349.806.77.969.409.158.852.223,1.244.322.482-.015.922-.024,1.36-.045.148-.007.29-.057.436-.086.453-.092,1.016-.828.99-1.319-.082-1.576-.76-2.813-2.137-3.609Z"/>
    <path class="cls-1" d="m676.873,198.145c-.032-.12-.184-.296-.286-.3-.757-.034-1.474.09-2.015.695-.167.186-.164.413-.072.622.09.203.225.385.33.56.177.167.339.321.503.471.055.05.124.084.187.125.195.129.66.068.826-.118.534-.593.734-1.278.527-2.056Z"/>
  </g>
</svg>