<?xml version="1.0" encoding="UTF-8"?>
<?xml-stylesheet type="text/css" href="../../../css/svg-map.css"?>
<svg xmlns="http://www.w3.org/2000/svg" width="464.688" height="633.095" viewBox="0 0 464.688 633.095">
    <path id="양평" data-name="양평" d="M157.973,103.563c1.337.162,2.719.274,4.08.507A13.371,13.371,0,0,0,169.766,103c2.1-.91,4.163-1.894,6.278-2.757a19.3,19.3,0,0,1,3.029-.848,2.553,2.553,0,0,1,2.212,1.187c.919,2.625,2.218,5.1,2.08,8.063a10.442,10.442,0,0,0,2.919,7.689c1.426,1.55,2.781,3.17,4.169,4.764a4.779,4.779,0,0,1,1.055,2.366,27.861,27.861,0,0,1,.006,10.491,18.409,18.409,0,0,0-.371,6.287,2.887,2.887,0,0,0,1.938,2.28,9.007,9.007,0,0,0,1.034.2c2.1.186,4.207.339,6.31.539a7.456,7.456,0,0,0,4.979-1.373c.872-.589,1.679-1.279,2.534-1.9a5.671,5.671,0,0,1,3.983-1.064c2.274.215,4.555.374,6.841.533a17.319,17.319,0,0,0,2.106.024,2.892,2.892,0,0,0,2.687-3.273c-.068-.513-.3-1-.371-1.517a17.559,17.559,0,0,1-.209-2.6,2.521,2.521,0,0,1,1.24-2.2c.91-.53,1.888-.937,2.816-1.429a3.5,3.5,0,0,0,1.284-4.961c-.639-1.055-1.391-2.036-2.053-3.073a1.388,1.388,0,0,1,1.208-2.224,6.179,6.179,0,0,0,4.97-2.519c.772-.954,1.561-1.9,2.4-2.8a2.087,2.087,0,0,1,1.9-.707,8.355,8.355,0,0,0,5.138-.486c1.04-.477,2.05.109,2.922.748a2.334,2.334,0,0,1,.725.757,12.243,12.243,0,0,0,6.384,6A3.744,3.744,0,0,1,253.3,120.7a18.921,18.921,0,0,1,.828,1.936,7.089,7.089,0,0,0,1.013,1.827c1.927,2.033,3.668,4.334,6.325,5.485a29.187,29.187,0,0,1,10.27,8.087,8.818,8.818,0,0,1,.681.807c1.582,2.354,3.912,2.79,6.5,2.525.7-.071,1.373-.268,2.068-.4a9.428,9.428,0,0,1,7.1,1.14c1.19.748,2.439,1.4,3.615,2.174a24.732,24.732,0,0,0,3.786,1.8,9.731,9.731,0,0,0,7.156.61,2.856,2.856,0,0,1,2.875.881c1.956,1.768,3.909,3.541,5.939,5.22a26.8,26.8,0,0,0,3.88,2.725,14.763,14.763,0,0,1,5.692,6.06,1.882,1.882,0,0,1-.972,2.613,13,13,0,0,1-5.129,1.037c-2.7-.1-5.194.793-7.7,1.6a4.42,4.42,0,0,0-3,2.755c-.115.333-.259.657-.362.99-.952,2.949-3.247,4.534-5.924,5.606-1.953.784-4,1.3-6.007,1.968a12.492,12.492,0,0,0-1.938.79,2.959,2.959,0,0,0-1.561,2.027,15.469,15.469,0,0,0-.351,2.074c-.262,3.064.348,4.027,3.488,4.831a6.424,6.424,0,0,1,3.865,2.516c1.134,1.567,2.162,3.214,3.37,4.722a4.606,4.606,0,0,1,.975,4.867,8.306,8.306,0,0,0,1.122,8.019c.2.292.377.6.554.9a2.509,2.509,0,0,1-.18,2.955,29.082,29.082,0,0,0-4.64,9.395,14.246,14.246,0,0,0-1.019,3.512,7.916,7.916,0,0,1-2.952,5.9,6.529,6.529,0,0,0-2.039,4.183c-.1.7-.2,1.4-.233,2.1A5.607,5.607,0,0,1,288.211,241a3.562,3.562,0,0,1-4.354.6,11.081,11.081,0,0,1-1.759-1.161c-1.682-1.476-3.32-2.186-5.745-1.4-2.327.742-4.876.191-7.283-.412a1.867,1.867,0,0,1-1.237-1.556,7.475,7.475,0,0,1,.271-2.566,32.188,32.188,0,0,1,1.782-3.217,37.163,37.163,0,0,0,2.139-4.228,9.546,9.546,0,0,0,.418-3.093,2,2,0,0,0-1.055-1.723,7.165,7.165,0,0,0-5.082-.866c-1.128.2-1.779,1.078-2.563,1.759-1.824,1.591-3.609.7-4.593-.557a25.8,25.8,0,0,1-1.891-3.164c-1.4-2.439-3.768-2.887-5.624-.931a9.955,9.955,0,0,1-1.128,1.1,4.223,4.223,0,0,1-6.089-.454,4.482,4.482,0,0,0-3.126-1.712,7.067,7.067,0,0,1-5.114-2.351,11.454,11.454,0,0,0-4.139-2.26,3.567,3.567,0,0,0-3.052.227,8.511,8.511,0,0,0-1.335.846c-2.931,2.274-6.263,2.36-9.527,1.273a9.018,9.018,0,0,0-6.145-.247,1.739,1.739,0,0,1-1.04.021,2.558,2.558,0,0,1-1.343-.7,8.233,8.233,0,0,1-1.352-2.816,10.1,10.1,0,0,0-3.152-5.353c-1.231-1.246-2.363-2.6-3.553-3.883a3.388,3.388,0,0,0-4.307-.686,5.37,5.37,0,0,0-.846.627,6.122,6.122,0,0,1-4.893,1.491,3.318,3.318,0,0,0-3.149,1.541,7.613,7.613,0,0,1-3.1,2.775,2.709,2.709,0,0,1-3.335-.683c-.563-.672-1.119-1.361-1.614-2.083a13.28,13.28,0,0,0-4.811-4.018,10.635,10.635,0,0,0-3.467-1.173c-4.5-.745-8.75-.277-12.644,2.3a3.745,3.745,0,0,1-1.482.486,1.31,1.31,0,0,1-.987-.23c-1.361-1.364-2.713-2.743-3.971-4.2a5,5,0,0,1-.881-1.88c-.486-1.688-.9-3.4-1.32-5.1a1.579,1.579,0,0,1,1.228-1.974c.492-.174,1.028-.242,1.511-.436a3.972,3.972,0,0,0,2.354-2.678,14.167,14.167,0,0,0,.4-2.6c.224-2.277.315-4.569.633-6.835a13.848,13.848,0,0,0-.622-6.749c-1.547-4.292-2.475-8.814-4.743-12.842-.345-.613-.6-1.282-1-1.856a4.087,4.087,0,0,0-3-1.924c-3.143-.3-6.269-.825-9.433.035a27.518,27.518,0,0,1-4.172.533c-.583.062-1.317-.71-1.379-1.355a8.526,8.526,0,0,1,.619-4.646q1.268-2.6,2.654-5.144c2.442-4.475,5.035-8.87,7.324-13.419a53.9,53.9,0,0,0,3.238-8.331,19.409,19.409,0,0,1,4.066-7.285c.934-1.055,1.791-2.174,2.7-3.247s1.933-2.065,2.734-3.214a41.932,41.932,0,0,0,2.13-3.809" transform="translate(257.734 193.375)"/>
    <path id="가평" data-name="가평" d="M198.791,233.938c-1.393-1.567-2.943-3.249-4.419-5-2.645-3.111-3.149-3.733-3.191-7.536-.035-3.111-1.226-5.818-2.062-8.664a2.923,2.923,0,0,0-2.336-1.936,6.641,6.641,0,0,0-4.145.233c-1.287.569-2.554,1.187-3.868,1.685-2.3.869-4.619,1.688-6.947,2.486a6.848,6.848,0,0,1-4.154-.015c-1.343-.374-2.551-1.894-2.162-3.2,1.09-3.647-.018-7.342.374-11a3.6,3.6,0,0,0-.557-1.98,52.325,52.325,0,0,0-2.831-4.451,8.87,8.87,0,0,1-1.673-4.908,14.236,14.236,0,0,1,0-1.585,9.123,9.123,0,0,0-1.29-5.032c-.9-1.706-1.715-3.465-2.66-5.153a37.009,37.009,0,0,1-3.409-8.267,17.717,17.717,0,0,0-.681-2c-1.361-3.323-3.205-6.26-6.413-8.131-1.821-1.064-3.574-2.245-5.441-3.205a15.476,15.476,0,0,0-6.564-1.824c-.7-.024-1.4-.13-2.1-.189-2.678-.247-3.765-1.4-2.2-3.736,2.628-3.945,2.569-8.29,2.528-12.689-.015-1.582-.124-3.158-.153-4.737a8.133,8.133,0,0,1,2.354-5.7,8.5,8.5,0,0,1,.757-.737,7.831,7.831,0,0,0,2.816-4.929,11.071,11.071,0,0,1,2.3-4.681,2.486,2.486,0,0,1,2.725-1.134c1.373.286,2.755.539,4.148.7a3.205,3.205,0,0,0,3.4-1.968,6.855,6.855,0,0,0,.739-1.4,40.906,40.906,0,0,1,3.06-7.255,17.074,17.074,0,0,0,1.738-6.581,17.751,17.751,0,0,1,1.617-6.623,12.036,12.036,0,0,1,1.776-2.584,2.28,2.28,0,0,1,2.887-.333c.819.666,1.579,1.4,2.38,2.083a4.055,4.055,0,0,0,2.931.99,3.179,3.179,0,0,0,1.94-.617c1.965-2.006,3.871-4.08,5.689-6.228a11.165,11.165,0,0,0,2.607-8.844,15.847,15.847,0,0,0-.306-2.083,9.816,9.816,0,0,1,.43-5.188,4.867,4.867,0,0,1,3.294-3.75,9.415,9.415,0,0,0,4.7-3.267,1.347,1.347,0,0,1,.4-.339,9.532,9.532,0,0,0,5.111-7.545,5.231,5.231,0,0,1,1.276-2.248,8.3,8.3,0,0,1,1.576-1.391,8.489,8.489,0,0,0,3-4.228,30.593,30.593,0,0,1,1.835-4.363,5.281,5.281,0,0,1,1.5-1.411,1.364,1.364,0,0,1,1.444.289,12.15,12.15,0,0,1,1.114,2.354,24.8,24.8,0,0,0,4.054,7.951,12.906,12.906,0,0,0,10.606,5.98c.53.018,1.058.027,1.585.038a8.879,8.879,0,0,1,4.513,1.27c1.04.645,2.183,1.134,3.226,1.782,2.124,1.308,4.3,2.369,6.9,2.192a1.5,1.5,0,0,1,1.349,1.385c0,1.226-.08,2.454-.05,3.683a19.211,19.211,0,0,0,.253,3.129,10.458,10.458,0,0,0,5.83,7.683,30.879,30.879,0,0,0,5.886,2.28c2.024.589,4.063,1.143,6.054,1.832a2.275,2.275,0,0,1,1.482,2.033c.091,1.22-.029,2.457-.012,3.688a7.438,7.438,0,0,0,2.027,5.259,13.126,13.126,0,0,1,1.679,2.018,4.522,4.522,0,0,1,.654,1.962,12.24,12.24,0,0,1-.563,4.684,18.03,18.03,0,0,0-1.022,3.532,16.93,16.93,0,0,1-2.625,7.344,5.475,5.475,0,0,1-2.5,2.522c-1.3.548-2.545,1.193-3.839,1.753a6.037,6.037,0,0,1-2.469.845c-2.911-.218-4.475,1.656-6.072,3.556a37.786,37.786,0,0,1-3.037,3.612c-1.208,1.1-3.008.851-4.466,1.447a17.116,17.116,0,0,0-2.41,1.049c-1.5.919-2.946,1.921-4.4,2.92a5.105,5.105,0,0,0-2.286,3.411c-.3,1.729-.554,3.47-.736,5.217a8.285,8.285,0,0,0,.71,4.628,7.187,7.187,0,0,1-.654,7.5c-.474.737-.913,1.5-1.355,2.257a7.388,7.388,0,0,0-.878,3.011,5,5,0,0,0,1.441,4.342c1.5,1.479,3.061,2.9,4.569,4.369a2.118,2.118,0,0,1,.027,2.457,7.2,7.2,0,0,1-1.022,1.2c-1.237.975-2.484,1.953-3.8,2.825-1.614,1.064-3.314,1.992-4.949,3.031-1.037.657-2.048,1.364-3.023,2.106a3.343,3.343,0,0,0-1.37,2.189c-.239,1.918-.477,3.833-.586,5.759a2.875,2.875,0,0,0,2.716,2.722c.7-.009,1.393-.147,2.092-.191,2.628-.165,5.226-.748,7.881-.489a5.506,5.506,0,0,0,2.978-.857c1.14-.548,1.909.027,2.26,1.335a7.384,7.384,0,0,1-.174,4.664,8.86,8.86,0,0,1-.613,1.458c-1.706,2.831-1.941,5.986-2.036,9.165-.077,2.634-.127,5.276-.2,7.913a5.385,5.385,0,0,1-1.838,4.216,4.4,4.4,0,0,1-.4.339c-3.526,2.316-3.406,5.874-3.146,9.43a3.278,3.278,0,0,0,1,1.8,17.112,17.112,0,0,0,2.448,1.983,29.707,29.707,0,0,1,6.891,7.206,3.031,3.031,0,0,1,.613,1.432,1.8,1.8,0,0,1-.427,1.4,19.169,19.169,0,0,1-2.731,1.541,4.014,4.014,0,0,0-2.277,3.332,38.441,38.441,0,0,0-.082,4.2c.018,1.317-.507,2.21-2.26,2.239-.7.015-1.4,0-2.109-.044-1.226-.08-2.454-.2-3.686-.28-4.142-.265-4.5-.471-7.777,2.192a8.978,8.978,0,0,1-6.381,1.974c-.354-.012-.7-.038-1.055-.068-5.309-.374-5.683-1.114-5.082-6.157.144-1.22.324-2.445.442-3.671.454-4.714.427-5.091-.636-10.67" transform="translate(251.699 80.461)"/>
    <path id="포천" data-name="포천" d="M150.281,60.018c.056-.7.1-1.408.174-2.109a8.966,8.966,0,0,0-2.324-7.3c-.474-.521-.934-1.055-1.423-1.564a5.052,5.052,0,0,1-.913-5.863c1.058-2.6,2.416-5.091,2.967-7.875.309-1.55.545-3.111.772-4.672A6.625,6.625,0,0,0,149,27.026c-.209-.486-.348-1-.589-1.464-1.476-2.872-.465-5.447.954-7.957.15-.268.551-.4.843-.583a.624.624,0,0,1,.949.165,5.817,5.817,0,0,1,.987,1.785c.212,1.019.124,2.1.247,3.146a15.8,15.8,0,0,0,7.739,11.964,2.888,2.888,0,0,0,3.459-.2,22.083,22.083,0,0,1,9.489-5.394,8.947,8.947,0,0,0,5.138-4.313c1.553-2.725,4.289-3.42,7.126-3.842a2.129,2.129,0,0,1,.521.059c.672.059,1.393.957,1.117,1.488-2.118,4.071-2.637,8.711-4.684,12.827-1.361,2.74-1.326,5.827-.881,8.8a6.967,6.967,0,0,0,3.685,4.911,3.946,3.946,0,0,0,1.488.457,20.653,20.653,0,0,1,2.619.23,3.376,3.376,0,0,1,1.706,1.1,22.708,22.708,0,0,1,1.567,2.737c.524.913,1.037,1.835,1.6,2.722,2.1,3.291,5.326,4.4,9.012,4.528.922.035,1.992-.415,2.174-1.228.736-3.344,2.822-3.541,5.542-2.728a9.314,9.314,0,0,0,2.1.168,3.921,3.921,0,0,0,2.525-.58c1.939-1.391,4.18-1.753,6.443-2.159a4.662,4.662,0,0,1,3.927,1.046,15.087,15.087,0,0,0,1.635,1.332,6.381,6.381,0,0,0,1.944.739,4.472,4.472,0,0,0,4.384-1.158,4.539,4.539,0,0,1,3.794-1.429,4.656,4.656,0,0,1,4.2,2.666,8.279,8.279,0,0,1,1.134,6.063c-.342,1.358-.46,2.778-.837,4.124a50.136,50.136,0,0,0-1.818,10.385c-.056.875-.165,1.75-.224,2.628-.18,2.719-.851,5.161-3.152,6.973a8.766,8.766,0,0,0-2.834,4.369c-.315,1-.778,1.962-1.178,2.94a7.261,7.261,0,0,1-2.1,2.984c-.545.448-1.111.869-1.626,1.343A5.946,5.946,0,0,0,227,102.217a12.291,12.291,0,0,1-.678,2.539,5.767,5.767,0,0,1-2.177,2.908,14.024,14.024,0,0,0-2.548,1.856,11.154,11.154,0,0,1-4.876,3.02,4.313,4.313,0,0,0-2.763,2.978,15.006,15.006,0,0,0-.781,8.8,11.968,11.968,0,0,1,.183,3.138,5.834,5.834,0,0,1-.928,2.981,37.925,37.925,0,0,1-6.855,7.978,2,2,0,0,1-1.994.121c-.952-.775-1.856-1.609-2.822-2.363a4.215,4.215,0,0,0-5.709.63,11.292,11.292,0,0,0-3.029,6.614,29.581,29.581,0,0,1-4.13,13.463,22.436,22.436,0,0,0-.751,2.51,10.54,10.54,0,0,1-1.364,2.236,2.335,2.335,0,0,1-2.345.893c-1.022-.2-1.994-.639-3.011-.9a3.758,3.758,0,0,0-4.525,1.8,17.078,17.078,0,0,0-2.466,5.226,8.589,8.589,0,0,1-2.893,4.893,8.5,8.5,0,0,0-2.946,6.531,35.193,35.193,0,0,0-.009,6.328,18.826,18.826,0,0,1,.015,3.158A12.777,12.777,0,0,1,165.3,197c-.206.283-.321.63-.518.916-3.087,4.466-2.922,5.907-9.651,8.42a13.424,13.424,0,0,0-1.9.922c-1.938,1.1-3.629,1.155-5-.931a2.969,2.969,0,0,0-2.295-1.128,7.685,7.685,0,0,0-3.635.342,14.783,14.783,0,0,1-6.738.943,7.7,7.7,0,0,0-4.107.716,9.3,9.3,0,0,1-2,.663,2.965,2.965,0,0,1-2.478-.607,4.04,4.04,0,0,1-.7-.784,5.741,5.741,0,0,0-4.6-2.159,31.811,31.811,0,0,1-3.665-.439,2.891,2.891,0,0,1-2.6-2.3,6.579,6.579,0,0,0-3.627-4.87,2.49,2.49,0,0,1-1.04-2.3,7.577,7.577,0,0,1,.869-3.553c1.022-2.047,2-4.116,3.061-6.137,1.88-3.585,2.009-7.459,1.729-11.33-.109-1.505-.978-2.975-1.585-4.431a18.675,18.675,0,0,1-1.37-10.815,3.192,3.192,0,0,1,2.177-2.719,23.6,23.6,0,0,1,3.037-.825c1.382-.259,2.784-.415,4.174-.6a3.981,3.981,0,0,0,2.7-1.517c1.282-1.67,2.481-3.411,3.618-5.182a4.8,4.8,0,0,0,.627-2,52.507,52.507,0,0,0,.439-5.259,5.893,5.893,0,0,0-4.569-6.272,7.943,7.943,0,0,1-5.939-5.4c-.118-.333-.2-.681-.345-1-1.2-2.6-2.672-4.976-5.424-6.216a3.638,3.638,0,0,1-2.212-4.3c.077-.519.05-1.055.118-1.579a9.3,9.3,0,0,0-.678-4.649,14.241,14.241,0,0,1-.642-2,2.03,2.03,0,0,1,.5-1.965c1.679-1.532,3.423-3,5.179-4.451a2.005,2.005,0,0,1,2.419.342c.678.8,1.284,1.667,1.941,2.492a3.225,3.225,0,0,0,3.783.987,9.493,9.493,0,0,0,5.527-6.655,10.294,10.294,0,0,0-.191-5.733c-.177-.5-.327-1-.495-1.5a7.073,7.073,0,0,1,.171-4.664,20.236,20.236,0,0,1,1.267-2.9c1.479-2.749-.51-6.776-3.741-7.409-1.723-.336-3.441-.7-5.15-1.111a2.138,2.138,0,0,1-1.4-1.458,7.352,7.352,0,0,1,.127-5.65,1.945,1.945,0,0,1,1.641-1.173,21.312,21.312,0,0,1,3.152-.165c2.133.082,4.2.112,6.081-1.226a1.819,1.819,0,0,1,2.354.58c.76.963,1.479,1.959,2.192,2.961a3.305,3.305,0,0,0,3.718,1.32c1.37-.3,2.722-.681,4.074-1.055,3.833-1.069,5.827-3.709,6.36-7.557.121-.869.153-1.75.224-2.631l.015.006" transform="translate(214.979 32.84)"/>
    <path id="파주" data-name="파주" d="M147.439,156.075c-1.034.038-2.26.029-3.473.147a3.95,3.95,0,0,0-3.04,1.88c-.66,1.031-1.2,2.148-1.844,3.191a11.779,11.779,0,0,1-1.264,1.688,4,4,0,0,1-3.223,1.535c-1.228-.044-2.457-.159-3.683-.265A5.627,5.627,0,0,1,128,163.1c-.707-.524-1.4-1.078-2.151-1.529a7.847,7.847,0,0,0-7.062-.678c-1.971.739-3.98,1.379-5.91,2.207a8.743,8.743,0,0,1-4.13.516,5.285,5.285,0,0,1-4.357-2.569c-.48-.734-.922-1.494-1.429-2.207a1.78,1.78,0,0,0-2.766-.094q-3.982,4.211-7.9,8.476c-.837.9-1.585,1.885-2.413,2.8a2.386,2.386,0,0,1-2.813.784,21.978,21.978,0,0,0-11.943-.639,55.4,55.4,0,0,0-8.146,2.165,8.559,8.559,0,0,1-5.179.345,2.9,2.9,0,0,1-2.242-1.989,10.441,10.441,0,0,1-.221-6.237,21.714,21.714,0,0,0,.9-4.646,7.481,7.481,0,0,0-.607-3.6c-.356-.8-.781-1.582-1.108-2.4a34.027,34.027,0,0,1-2.743-16.462c.165-1.576.292-3.155.4-4.731a11.4,11.4,0,0,1,1.594-5.506c1.444-2.283,1.667-4.988,2.124-7.574a13.155,13.155,0,0,1,3.149-6.576,24.484,24.484,0,0,1,2.675-2.507c.946-.784,2.042-1.393,2.961-2.2a7.743,7.743,0,0,0,2.973-6.469c-.085-1.4-.112-2.811-.289-4.2a20.137,20.137,0,0,1,1.276-10.862c.351-.8.442-1.72.831-2.5a12.762,12.762,0,0,0,1.161-6.682,46.688,46.688,0,0,0-.719-6.281,14.5,14.5,0,0,0-1.576-3.877,15.445,15.445,0,0,0-2.121-3.014A6.758,6.758,0,0,1,68.8,57.487c.1-.342.159-.689.262-1.022a1.919,1.919,0,0,1,1.382-1.452c3.641-.819,7.271-1.3,10.877.268,2.413,1.058,4.849.489,7.227-.224A4.239,4.239,0,0,0,90.3,53.943c1.22-1.264,2.377-2.6,3.5-3.948a18.431,18.431,0,0,1,4.775-4.107,6.12,6.12,0,0,1,5-.975,7.223,7.223,0,0,0,5.615-.619,1.706,1.706,0,0,1,2.369,1.376c.589,4.372,3.146,7.772,5.432,11.3a4.729,4.729,0,0,0,4.566,2.083,3.246,3.246,0,0,0,2.648-1.482,16.448,16.448,0,0,0,2.295-4.717c.5-1.676,1.075-3.338,1.644-4.991a2.047,2.047,0,0,1,2.587-1.173,9.061,9.061,0,0,1,4,2.448c1.078,1.161,2.106,2.369,3.173,3.538a4.46,4.46,0,0,0,3.238,1.55c.527.018,1.052.077,1.582.088a2.815,2.815,0,0,0,2.964-2.433c.136-1.567.106-3.149.118-4.725,0-.524-.112-1.046-.15-1.567-.041-.583.916-1.408,1.423-1.175,2.068.96,4.328,1.673,6.122,3.011,3.733,2.778,7.884,2.619,12.114,2.324a3.585,3.585,0,0,0,1.868-.878,42.737,42.737,0,0,0,3.865-3.579,15.328,15.328,0,0,1,6.3-3.709,2.729,2.729,0,0,1,2.911.766,4.364,4.364,0,0,1,1.019,1.193,9.1,9.1,0,0,0,5.3,4.84,10.147,10.147,0,0,1,1.771,1.1,1.943,1.943,0,0,1,.457,1.947c-.545,1.376-1.447,2.669-2.872,2.858-3.32.436-5.353,2.3-6.855,5.1a23.912,23.912,0,0,1-2.233,2.937,17.084,17.084,0,0,0-2.162,2.981c-1.031,2.265-2.112,4.381-4.5,5.556A3.627,3.627,0,0,0,168.9,72.5a35.717,35.717,0,0,0-1.718,3.833,15.224,15.224,0,0,1-2.112,4.225,13.382,13.382,0,0,0-2.858,6.154,11.194,11.194,0,0,1-.642,2.006,44.027,44.027,0,0,0-2.719,11.784,10.675,10.675,0,0,1-1.782,5.459,11.285,11.285,0,0,0-1.959,5.924,1.413,1.413,0,0,1-1.417,1.287c-1.228-.021-2.46-.05-3.685-.127-1.756-.106-3.12.383-3.715,2.215a4.6,4.6,0,0,1-.448.952,5.46,5.46,0,0,1-3.129,2.648c-1.276.407-1.5,1.2-1.072,2.489.277.831.6,1.647.9,2.475a8.784,8.784,0,0,1-.377,7.168c-.4.784-.807,1.558-1.167,2.363a2.508,2.508,0,0,0,1.965,3.562c.513.118,1.037.2,1.561.268a6.474,6.474,0,0,1,3.358,1.414,21.653,21.653,0,0,0,9.578,4.166,18.492,18.492,0,0,1,7.421,3.815c.445.345.274,1.564-.247,1.874a6.512,6.512,0,0,1-1.37.739,35.789,35.789,0,0,1-5.091,1.337,15.52,15.52,0,0,0-9.7,4.814,7.422,7.422,0,0,1-1.025.734" transform="translate(108.275 80.629)"/>
    <path id="연천" data-name="연천" d="M74.73,121.656a10.927,10.927,0,0,1,1.782-1.249c1.284-.56,2.625-1,3.945-1.476a6.009,6.009,0,0,0,3.683-3.547,31.682,31.682,0,0,1,2.843-5.636,25.422,25.422,0,0,1,4.384-5.238c3.152-2.811,6.322-5.627,10.1-7.589,4.145-2.151,6.06-5.689,6.631-10.125.2-1.573.312-3.152.421-4.734a7.009,7.009,0,0,1,3.029-5.321,13.412,13.412,0,0,1,3.167-1.865,8.884,8.884,0,0,0,3.794-2.69A32.1,32.1,0,0,1,134.19,62a16.167,16.167,0,0,0,8.078-5.606c1.726-2.08,3.052-4.292,2.392-7.206a4.935,4.935,0,0,1,1.164-3.942,18.132,18.132,0,0,1,2.083-2.377,9.24,9.24,0,0,0,2.69-7.695,15.521,15.521,0,0,0-.465-2.587,3.674,3.674,0,0,1,2.478-4.121c.663-.227,1.335-.439,2.012-.607.848-.212,1.72-.342,2.566-.572a8.243,8.243,0,0,0,6.169-6.564c1.075-5.014.683-4.46,5.256-8.019,3.04-2.363,6.411-4.313,9.681-6.378,2.525-1.594,5.114-3.09,7.689-4.619a24.014,24.014,0,0,1,2.775-1.5,2.545,2.545,0,0,1,2.507.286,8.255,8.255,0,0,1,3.485,6.231,12.356,12.356,0,0,1-.124,3.158c-.41,2.763.516,5.238,1.712,7.595a6.046,6.046,0,0,0,4.879,3.574c2.619.3,5.238.675,7.831,1.14a5.072,5.072,0,0,1,4.245,4.166c.236,1.022.354,2.077.539,3.114.427,2.425.893,4.843,1.281,7.274a16.449,16.449,0,0,0,2.4,6.911,4.452,4.452,0,0,1,.365,4.054c-.58,1.835-1.332,3.618-2.059,5.4a5.306,5.306,0,0,0,0,4.6c2.578,4.87,1.417,9.522-.651,14.156-.433.96-.869,1.927-1.22,2.92a16.753,16.753,0,0,0-.678,2.542,5.889,5.889,0,0,0,1.694,5.789c.133.124.245.262.374.374,2.646,2.316,3.258,5.318,2.872,8.626a30.1,30.1,0,0,1-.784,4.664,6.178,6.178,0,0,1-4.236,4.348c-.333.109-.681.191-1.019.277-4.525,1.137-4.484,1.358-7.053-2.23-.1-.144-.209-.283-.321-.418-1.532-1.859-2.81-2.257-5.067-1.049a8.493,8.493,0,0,1-5.064.978,26.916,26.916,0,0,0-3.158-.141,3.425,3.425,0,0,0-3.323,2.834c-.2,1.567-.342,3.149-.4,4.728a6.554,6.554,0,0,0,.371,2.056,4.173,4.173,0,0,0,3.344,3.026c1.547.312,3.143.371,4.7.642a3.515,3.515,0,0,1,2.489,4.068,19,19,0,0,1-.754,1.956,12.16,12.16,0,0,0-.663,8.231,12.735,12.735,0,0,1,.536,4.684,7.194,7.194,0,0,1-4.248,6.216,1.748,1.748,0,0,1-1.941-.336c-.666-.813-1.317-1.641-1.941-2.484-1.04-1.414-4.36-1.773-5.724-.327a27.163,27.163,0,0,1-2.687,2.522,6.553,6.553,0,0,1-8.219-.383,6.764,6.764,0,0,1-1.14-1.741,2.817,2.817,0,0,0-4.021-1.314,36.491,36.491,0,0,0-3.7,2.006,5.7,5.7,0,0,0-2.937,4.16,19.031,19.031,0,0,1-.492,2.05,6.136,6.136,0,0,1-2,3.043c-.943.787-1.962,1.482-2.94,2.23a6.918,6.918,0,0,0-2.743,3.741,11.44,11.44,0,0,1-2.852,4.988,2.182,2.182,0,0,1-2.825.616q-3.425-1.966-6.832-3.971a8.534,8.534,0,0,1-1.249-.96,2.768,2.768,0,0,1-.589-3.361c.745-1.19,1.561-2.336,2.38-3.473,1.025-1.426,2.145-2.787,3.126-4.242a5.107,5.107,0,0,1,3.709-2.572c2.61-.389,4.3-2.177,5.491-4.5a3.175,3.175,0,0,0-1.087-4.172,13.881,13.881,0,0,0-2.784-1.485,5.824,5.824,0,0,1-3.467-3.034,9.015,9.015,0,0,0-1.175-1.744,4.937,4.937,0,0,0-5.686-1.623,16.769,16.769,0,0,0-6.643,4.148,28,28,0,0,1-3.494,3.185,4.424,4.424,0,0,1-2.952.972c-1.408-.056-2.81-.168-4.216-.262a6.82,6.82,0,0,1-3.409-1.243,51.044,51.044,0,0,0-9.351-4.843,2.019,2.019,0,0,0-2.669,1.732,15.521,15.521,0,0,0,.091,2.616c.138,1.217.46,2.416.545,3.635a2.494,2.494,0,0,1-3.683,2.295,7.473,7.473,0,0,1-1.726-1.19c-1-.984-1.912-2.059-2.866-3.1a11.966,11.966,0,0,0-5.318-3.288,3.2,3.2,0,0,0-3.918,1.824c-.633,1.824-1.187,3.677-1.774,5.515a12.87,12.87,0,0,1-2.516,4.59,2.4,2.4,0,0,1-3.317.088,5.226,5.226,0,0,1-.731-.76c-2.118-3.223-4.463-6.313-5.094-10.305a31.2,31.2,0,0,0-1.461-4.578" transform="translate(145.426)"/>
    <path id="화성" data-name="화성" d="M82.4,237.584c.23-2.808.306-5.456.707-8.052a41.265,41.265,0,0,0,.757-8.384c-.077-1.411.89-2.236,2.086-2.752a11.008,11.008,0,0,1,5.173-.725c2.46.165,4.923.25,7.383.345a4.43,4.43,0,0,0,3.3-1.426,3.622,3.622,0,0,0,1.161-3.35,6.01,6.01,0,0,0-1.134-2.917,16.363,16.363,0,0,0-1.338-1.632c-3.235-3.023-2.772-3.247-2.5-7.486.112-1.756.265-3.515.245-5.267a3.277,3.277,0,0,0-3.488-3.2,6.227,6.227,0,0,0-4.737,1.977,9.245,9.245,0,0,1-4.9,2.864,20.136,20.136,0,0,0-3.435,1.332,13.454,13.454,0,0,0-6.911,6.231c-2.716,5.238-7.45,8.323-12.223,11.324-2.6,1.635-5.382,1.335-8.149.454a3,3,0,0,1-1.9-2.887,5.093,5.093,0,0,1,.863-2.984c.748-.981,1.547-1.93,2.2-2.967a9.092,9.092,0,0,0,1.019-2.407,3.6,3.6,0,0,0-1.992-4.4,10.185,10.185,0,0,0-3.974-1.323,9.158,9.158,0,0,1-2.554-.554c-.4-.159-.931-.784-.887-1.128.333-2.6.707-5.212,1.255-7.777a2.29,2.29,0,0,1,2.321-1.812c1.6-.021,3.2-.021,4.387-1.332,1.043-1.14.89-2.634.993-4.012a39.987,39.987,0,0,0,.174-5.783c-.224-3-.834-5.919-2.828-8.367a4.219,4.219,0,0,1-.825-1.924c-.678-4.375-.754-6.472,4.493-7.807.342-.085.672-.209,1.013-.295,5.689-1.435,4.251-2,9.127,1.467A12.456,12.456,0,0,0,74.138,163c2.46.106,4.911.412,7.371.61a3.559,3.559,0,0,1,3.326,2.151c1.093,2.46,3.058,4.281,4.887,6.172a3.044,3.044,0,0,0,4.973-.463,29.516,29.516,0,0,0,4.546-8.287c.471-1.511.981-3.011,1.517-4.5a3.284,3.284,0,0,1,3.191-2.33,27.855,27.855,0,0,1,7.851.781c.507.136.984.4,1.5.513a14.312,14.312,0,0,0,7.286-.112,123.485,123.485,0,0,0,12.476-4.219,41.109,41.109,0,0,1,5.494-1.821,2.567,2.567,0,0,1,2.816,1c.622.848,1.193,1.738,1.773,2.619a7.35,7.35,0,0,0,5.235,3.2,15.863,15.863,0,0,0,6.773-.651c.672-.177,1.311-.5,1.977-.7a1.672,1.672,0,0,1,1.694.978,6.539,6.539,0,0,1,.622,1.989,13.272,13.272,0,0,1-1.544,7.645,12.427,12.427,0,0,0-1.762,7.07,7.89,7.89,0,0,0,.507,2.009,3.266,3.266,0,0,0,.516.919c2.522,3.388,2.587,5.371,9.3,5.715,2.1.106,4.189.5,6.278.763,2.592,1.753,4.507.7,6.431-1.3a18.738,18.738,0,0,1,4.566-3.562,10.293,10.293,0,0,0,4.655-4.787,2.475,2.475,0,0,1,1.561-1.281c2.466-.327,4.045-2.024,5.83-3.429a2.112,2.112,0,0,1,2.469-.162c.76.421,1.514.869,2.245,1.349a1.978,1.978,0,0,1,.321,1.974c-.521.7-1.09,1.37-1.62,2.059-.427.56-.86,1.117-1.231,1.712a3.655,3.655,0,0,0-.5,3.034,17.875,17.875,0,0,0,4.722,8.119,3.8,3.8,0,0,0,3.951.56c.913-.521,1.753-1.175,2.678-1.676a3.337,3.337,0,0,1,3.523.085,39.575,39.575,0,0,1,3.753,2.9,10.528,10.528,0,0,0,6.107,2.846,4.417,4.417,0,0,1,1.511.43,2.466,2.466,0,0,1,1.5,2.015,8.115,8.115,0,0,1,.035,1.582,13.893,13.893,0,0,0,.6,6.24,6.714,6.714,0,0,1,.342,2.077,6.865,6.865,0,0,1-3.465,6.649,16.051,16.051,0,0,1-2.881,1.3,6.707,6.707,0,0,0-3.249,2.59c-1.1,1.588-2.083,3.258-3.276,5.15-1.915.6-4.2.828-6.237,1.883a1.966,1.966,0,0,1-2.766-1.588c-.159-.863-.194-1.756-.412-2.6a17.41,17.41,0,0,0-1.019-2.978,3.18,3.18,0,0,0-2.389-1.894c-1.037-.177-2.089-.236-3.138-.356a1.567,1.567,0,0,1-1.485-1.243c-.224-1.388-.38-2.787-.636-4.169-.507-2.766-1.031-5.533-1.609-8.284a3.024,3.024,0,0,0-2.5-2.422,6.564,6.564,0,0,0-1.04-.156,9.684,9.684,0,0,1-6.231-2.525,5.024,5.024,0,0,0-5.391-1.043c-1.164.4-2.357.722-3.506,1.155a6.141,6.141,0,0,0-4.045,3.859c-.713,2.165-2.466,3.347-4.289,4.457a3.093,3.093,0,0,0-1.367,2.7,2.289,2.289,0,0,0,1.912,2.7c1.181.351,2.377.642,3.535,1.058a8.585,8.585,0,0,1,5.568,5.907c.748,2.525,1.364,5.094,2,7.648a2.526,2.526,0,0,1-1.414,2.59,7.977,7.977,0,0,1-3.026.81,40.97,40.97,0,0,0-4.672.728,4.6,4.6,0,0,0-3.747,3.971,39.009,39.009,0,0,1-2.61,9.089c-.848,2.189-.81,4.484-1.034,6.755-.138,1.391-.295,2.781-.492,4.166a1.844,1.844,0,0,1-1.538,1.243c-.7,0-1.4-.012-2.1-.074-2.1-.183-4.2-.451-6.307-.572a23.394,23.394,0,0,0-4.213.121,4.648,4.648,0,0,0-4.045,2.931,50.123,50.123,0,0,1-2.245,4.761c-.893,1.662-3.768,2.537-5.571,1.773a1.607,1.607,0,0,1-.745-.7,8.012,8.012,0,0,1-.745-1.941c-.283-1.376-.5-2.769-.657-4.169a4.809,4.809,0,0,0-4.257-4.048c-.524-.062-1.052-.1-1.573-.171-4.6-.633-7.777,1.426-10.008,5.279a24.22,24.22,0,0,0-1.276,2.31c-1.806,4.154-4.961,7.227-8.2,10.2a6,6,0,0,1-7.321.409c-.739-.477-1.435-1.019-2.162-1.514a20.831,20.831,0,0,0-6.708-2.984c-2.719-.7-5.376-1.656-8.078-2.439a10.668,10.668,0,0,1-6.631-5.63c-.787-1.476-.156-2.8,1.667-2.911a43.4,43.4,0,0,1,5.8.268,6.534,6.534,0,0,0,3.565-.745,5.444,5.444,0,0,0,1.647-1.261,2.788,2.788,0,0,0-.233-4.222,22.363,22.363,0,0,1-5.612-6.917c-.348-.613-.736-1.2-1.335-2.162" transform="translate(91.775 294.632)"/>
    <path id="여주" data-name="여주" d="M182.032,135.7a2.918,2.918,0,0,1,.957.4c1.535,1.444,3.034,2.922,4.528,4.4a7.318,7.318,0,0,1,2.1,3.6c.277,1.2.6,2.383.934,3.568a2.63,2.63,0,0,0,2.66,2.106,3.2,3.2,0,0,0,1.046.009,13.226,13.226,0,0,1,7.783-.041,13.757,13.757,0,0,0,1.57.18c2.875.345,5.63.082,8.04-1.712,1.835-1.364,3.618-1,5.388.1a9.053,9.053,0,0,1,1.7,1.229,6.314,6.314,0,0,0,3.647,1.956,6.056,6.056,0,0,1,4.018,2.3,3.171,3.171,0,0,0,2.324,1.09c.521.047,1.055.071,1.573.156a4.955,4.955,0,0,0,4.4-1.3c3-2.919,3.641-1.835,5.229,1.229.083.156.177.3.256.46a5.08,5.08,0,0,0,5.158,2.94,4.66,4.66,0,0,0,1.983-.545c.754-.43,1.349-1.128,2.074-1.614a3.323,3.323,0,0,1,3.5-.024,2.023,2.023,0,0,1,.913,1.765,28.535,28.535,0,0,1-1.261,3.441,20.014,20.014,0,0,1-1.732,2.646,10.329,10.329,0,0,0-1.753,5.969,3.555,3.555,0,0,0,2.687,3.485,19.58,19.58,0,0,0,6.8.436c.872-.118,1.729-.33,2.6-.415a3.568,3.568,0,0,1,2.489.666c1.14.816,2.313,1.6,3.459,2.41a1.838,1.838,0,0,1,.448,1.918c-.138.324-.271.651-.436.957a14.289,14.289,0,0,0-.851,12.205,11.325,11.325,0,0,1,.692,5.158,20.145,20.145,0,0,0,0,5.259,10.613,10.613,0,0,1-1.29,6.617c-.477.94-.978,1.865-1.494,2.784a4.126,4.126,0,0,0,.28,4.92c.545.686,1.052,1.408,1.532,2.145a2.081,2.081,0,0,1-.545,2.813c-1.114.843-2.3,1.6-3.479,2.357a6.016,6.016,0,0,0-3,5.247c-.009.881-.177,1.765-.1,2.637a25.6,25.6,0,0,1-1.609,10.317c-.678,2-.574,4.174-1.635,6.086-.934,1.685-1.667,3.482-2.489,5.229-.38.8-.71,1.612-1.146,2.369a5.993,5.993,0,0,1-4.419,3.4,10.772,10.772,0,0,0-6.251,3.656,7.4,7.4,0,0,0-2.2,4.127,21.1,21.1,0,0,1-1.656,6.051,15.022,15.022,0,0,0-.572,3.1,2.5,2.5,0,0,1-2.31,1.824,5.974,5.974,0,0,1-4.454-1.264,18.671,18.671,0,0,1-2.949-2.978,11.414,11.414,0,0,0-6.434-4.325c-.339-.085-.675-.194-1.01-.295a3.277,3.277,0,0,1-2.263-2.03c-.189-.495-.306-1.013-.486-1.505a2.98,2.98,0,0,0-2.336-1.912c-.857-.189-1.729-.315-2.587-.513a3.389,3.389,0,0,1-2.887-2.7c-.071-.342-.106-.7-.183-1.037a9.32,9.32,0,0,0-3.75-5.55,8.245,8.245,0,0,0-4.817-1.862c-.527-.018-1.049-.115-1.579-.13-1.208-.035-2.469-.386-3.55.48-.913.731-.851,1.877-1.187,2.855a2.041,2.041,0,0,1-1.95,1.473c-1.579-.044-3.161-.1-4.734-.242a16.111,16.111,0,0,0-6.278.368,6.01,6.01,0,0,1-2.077.28,5.165,5.165,0,0,1-2-.554,2.692,2.692,0,0,1-1.049-3.656c1.046-1.4,2.2-2.737,3.361-4.048a5.194,5.194,0,0,0,1.311-2.822c.189-1.393.28-2.8.48-4.2.433-3.037.268-5.945-1.561-8.585a8.084,8.084,0,0,1-.79-1.947,2.369,2.369,0,0,1,1-2.746c.607-.359,1.234-.672,1.841-1.031.907-.53,1.8-1.081,2.707-1.623,2.9-1.741,3-5.117,2.083-7.433-.386-.981-.854-1.93-1.282-2.9a7.565,7.565,0,0,1-.551-3.606A4.925,4.925,0,0,1,187,207.309a8.888,8.888,0,0,0,1.237-.978,3.891,3.891,0,0,0,1.267-2.26c.15-.686.227-1.385.336-2.08.53-3.356-.062-6.307-2.981-8.44a3.525,3.525,0,0,1-1.4-2.725,20.959,20.959,0,0,1-.1-3.158,5,5,0,0,0-1.556-3.783,10.071,10.071,0,0,0-3.771-2.81c-.975-.392-1.933-.834-2.931-1.149a10,10,0,0,1-6.841-6.06c-.124-.327-.321-.628-.465-.946a3.611,3.611,0,0,0-3.249-2.3c-1.582-.115-3.155-.274-4.731-.427-4.569-.457-4.761-.654-4.887-5.017-.029-1.055-.032-2.112-.106-3.164a17.964,17.964,0,0,0-1.476-6.11,3.748,3.748,0,0,0-3.229-2.345c-1.349-.171-2.952.622-4.018-.6a15.036,15.036,0,0,1-1.8-3.179,11.334,11.334,0,0,0-4.06-4.743,2.372,2.372,0,0,1-.857-1.267,7.819,7.819,0,0,1,.548-5.645,2.655,2.655,0,0,1,.66-.807c6.119-5.465,15.967-3.833,19.653,1.847a21.367,21.367,0,0,0,2.248,2.92,2.92,2.92,0,0,0,2.917.787,8.13,8.13,0,0,0,4.1-2.251c.492-.5.893-1.087,1.379-1.588a2.82,2.82,0,0,1,2.3-1.1,7.783,7.783,0,0,0,5.848-1.859,3.754,3.754,0,0,1,.978-.38" transform="translate(274.563 260.708)"/>
    <path id="용인" data-name="용인" d="M186.486,168.426c-.071.878-.174,1.753-.209,2.637a17.1,17.1,0,0,1-1.759,7.1,11.483,11.483,0,0,0-.919,7.7,30.424,30.424,0,0,1,.15,5.247,2.692,2.692,0,0,0,1.214,2.239c2.374,1.529,4.829,2.881,7.792,2.9a3.576,3.576,0,0,0,3.276-1.3c1.1-1.567,2.625-1.611,4.236-1.276a7.207,7.207,0,0,1,1.906.822,1.716,1.716,0,0,1,.678,1.835c-1.4,2.934-1.626,6.1-1.862,9.256-.18,2.457-.351,4.917-.6,7.371a11.636,11.636,0,0,0,2.307,8.408,17.96,17.96,0,0,0,7.094,6.107c1.279.577,2.492,1.3,3.724,1.983a3.9,3.9,0,0,1,1.744,1.912c.345.81.61,1.662,1.028,2.43,1.143,2.074,2.637,3.738,5.179,4.054a6.172,6.172,0,0,1,1.535.365c3.193,1.3,4.169.628,4.192,4.926a13.914,13.914,0,0,1,.389,5.754,3.846,3.846,0,0,0,1.838,3.568c.716.5,1.558.822,2.236,1.361a2.131,2.131,0,0,1,.7,1.32,7.4,7.4,0,0,1-1.1,5.05c-.881,1.308-1.812,2.59-2.8,3.818a6.846,6.846,0,0,0-1.432,3.9,4.107,4.107,0,0,0,.76,2.987c.321.418.619.854.9,1.3a3.334,3.334,0,0,1,.074,3.5c-.754,1.57-2.283,1.93-3.3.675-.666-.819-1.223-1.72-1.891-2.534a4.646,4.646,0,0,0-3.1-1.844c-2.975-.295-5.954-.616-8.935-.725a13.552,13.552,0,0,0-3.594.725c-1.022.25-2.009.639-3.037.875a2.262,2.262,0,0,1-2.383-.763c-1.756-2.192-3.462-4.437-5.2-6.646-1.282-1.623-2.613-1.986-4.667-1.2-.981.374-1.909.887-2.872,1.317a2.1,2.1,0,0,1-2.784-.739A26.4,26.4,0,0,1,182.743,257a4.343,4.343,0,0,0-2.631-3.082,5.429,5.429,0,0,1-2.784-3.043c-.769-1.582-1.417-3.226-2.183-4.808a2.433,2.433,0,0,0-4.015-.144,12.228,12.228,0,0,0-1.992,4.826,52.339,52.339,0,0,1-1.317,5.094,5.854,5.854,0,0,1-4.2,4.325c-1.685.5-3.338,1.111-4.994,1.706a5.842,5.842,0,0,1-4.127.077,3.989,3.989,0,0,0-1.022-.233,3.067,3.067,0,0,0-2.837,1.1c-1.19,1.517-2.289,3.114-3.329,4.737a20.483,20.483,0,0,1-3.255,4.136,6.092,6.092,0,0,1-3.255,1.606,15.883,15.883,0,0,1-7.312-.43,11.261,11.261,0,0,1-3.208-1.756,8.433,8.433,0,0,0-4.935-1.588c-1.579-.05-3.161-.13-4.74-.25a3.535,3.535,0,0,1-2.967-1.947,54.6,54.6,0,0,1-3.264-7.2c-.957-2.858-.524-5.615,2.059-7.6,1.532-1.181,3.155-2.242,4.737-3.347a5.167,5.167,0,0,0,2.215-2.843,27.173,27.173,0,0,1,3.158-6.652,7.249,7.249,0,0,1,3.951-3.323,12.113,12.113,0,0,0,2.831-1.4,8.464,8.464,0,0,0,3.995-8.582,5.468,5.468,0,0,0-.348-1.544c-1.069-2.531-.954-5.15-.689-7.8.035-.351.032-.7.038-1.055a2.377,2.377,0,0,0-2.027-2.64,11.246,11.246,0,0,0-1.567-.209,9.759,9.759,0,0,1-5.733-2.4c-.969-.76-1.939-1.526-2.834-2.372a6.48,6.48,0,0,0-4.337-1.62,4.74,4.74,0,0,0-3.462.957,11.575,11.575,0,0,1-1.305.89,2.256,2.256,0,0,1-2.855-.524,8.293,8.293,0,0,1-1.037-1.2c-.566-.884-1.1-1.794-1.582-2.734-1.234-2.436-1.364-4.722,1.04-6.6a7.121,7.121,0,0,0,.737-.754c1.715-1.844,1.547-3.544-.619-5.412a20.987,20.987,0,0,0-2.681-1.667,1.8,1.8,0,0,1-.9-1.771,18.833,18.833,0,0,1,.333-2.607,4.313,4.313,0,0,1,2.142-2.881c.916-.521,1.894-.931,2.8-1.473a7.707,7.707,0,0,0,1.644-1.3c1.715-1.832.952-3.747-.869-4.1-3.188-.613-4.787-2.693-5.689-5.568-.371-1.175-.716-2.366-1.175-3.5a5.872,5.872,0,0,0-3.476-3.718,5.568,5.568,0,0,1-3.358-3.827c-.215-.669-.471-1.326-.672-2a13.768,13.768,0,0,0-2.7-5.094,14.174,14.174,0,0,1-.919-1.287c-1.55-2.366-2.115-4.8-.566-7.415.265-.457.389-.99.66-1.441.928-1.544,1.93-2.548,3.653-.7a13.663,13.663,0,0,0,5.721,3.612c2.984,1.022,5.568,2.949,8.538,4.071a5.121,5.121,0,0,1,2.622,2.507,20.034,20.034,0,0,0,3.164,4.843,3.583,3.583,0,0,0,2.26,1.234c6.134.563,12.258,1.29,18.407,1.62a37.758,37.758,0,0,0,10.464-1,10.6,10.6,0,0,1,2.092-.25,1.917,1.917,0,0,1,1.747.984c.619,1.061,1.12,2.2,1.759,3.238,1.258,2.071,3.158,2.13,4.628.059a38.592,38.592,0,0,0,3.011-4.94,11.637,11.637,0,0,1,2.05-3.034,5.508,5.508,0,0,1,4.778-1.744,8.271,8.271,0,0,1,5.8,3.279,7.5,7.5,0,0,1,.775,1.376,5.675,5.675,0,0,0,5.023,3.3c1.223.124,2.439.3,3.653.507a1.981,1.981,0,0,1,1.449,1.962c-.127,1.93-.309,3.856-.465,5.786Z" transform="translate(182.435 272.469)"/>
    <path id="안성" data-name="안성" d="M199.989,254.734c-.6,1.986.351,4.177.607,6.431a2.49,2.49,0,0,1-1.337,2.634c-1.125.495-2.268.957-3.435,1.343A7.138,7.138,0,0,0,191.08,269a2.481,2.481,0,0,1-2.631,1.367,10.075,10.075,0,0,1-1.573-.174,6.439,6.439,0,0,0-5.486,1.125,8.438,8.438,0,0,1-5.471,1.535,56.025,56.025,0,0,0-6.313.377,20.7,20.7,0,0,0-2.569.554c-3.73.81-4.169,2.354-4.292,5.586a10.935,10.935,0,0,0,.937,4.086,9.861,9.861,0,0,1,.739,4.118c-.059.763-.851,1.818-1.626,1.841a14.848,14.848,0,0,1-3.111-.192,2.053,2.053,0,0,1-1.2-.922,13.316,13.316,0,0,1-1.069-2.392c-.477-1.32-.831-2.693-1.337-4a7.591,7.591,0,0,0-3.376-3.921,3.759,3.759,0,0,0-3.518-.409c-1.128.486-2.2,1.108-3.338,1.561a2.65,2.65,0,0,1-2.937-.61,32.425,32.425,0,0,1-2.374-2.811,5.274,5.274,0,0,0-3.488-2.174,8.448,8.448,0,0,1-1.541-.351,2.643,2.643,0,0,1-1.983-2.215c-.077-.518-.041-1.061-.138-1.573a9.979,9.979,0,0,0-.6-2.542c-2-4.136-4.923-7.268-9.654-8.2-1.726-.342-3.479-.539-5.212-.834a4.212,4.212,0,0,1-3.14-1.738c-1.087-1.821-2.787-2.566-4.7-3.117a1.5,1.5,0,0,1-.887-2.13c.607-1.647,1.2-3.3,1.85-4.923a4.292,4.292,0,0,1,.863-1.29,5.626,5.626,0,0,1,1.237-.978c2.433-1.449,3.008-3.756,2.973-6.349a6.179,6.179,0,0,0-.147-1.57,7.77,7.77,0,0,1,.371-5.653,3.8,3.8,0,0,0,.18-1.034c.392-2.613-.784-3.685-3.061-3.9-2.625-.244-5.259-.457-7.884-.719a16.032,16.032,0,0,1-2.062-.427,2.286,2.286,0,0,1-1.231-1.576c-.015-.7,0-1.411.053-2.106a2.689,2.689,0,0,1,1.24-2.207c1.04-.657,2.142-1.226,3.129-1.956a3.164,3.164,0,0,0-.5-5.306c-1.4-.719-2.89-1.279-4.337-1.915-1.066-.471-1.632-1.17-1.526-1.894a1.958,1.958,0,0,1,1.3-1.517c.8-.362,1.629-.666,2.4-1.081a9.027,9.027,0,0,0,3.244-2.637,3.578,3.578,0,0,1,1.532-1.388,8.328,8.328,0,0,1,6.64.3,9,9,0,0,1,1.311.89c1.261.96,2.481,2.021,4.16,2.118,2.787.165,5.559.925,8.367-.091a7.342,7.342,0,0,0,3.12-1.871c1.058-1.175,2.074-2.386,3.026-3.65a27.21,27.21,0,0,0,1.662-2.687c1.161-1.994,2.631-3.22,5.167-2.634a7.528,7.528,0,0,0,4.637-.56c1.782-.739,3.665-1.237,5.48-1.9a6.622,6.622,0,0,0,3.709-3.559,19.336,19.336,0,0,0,1.694-6.066,7.038,7.038,0,0,1,1.558-3.853,1.162,1.162,0,0,1,1.423-.029,7.1,7.1,0,0,1,1,1.2c.421.763.713,1.6,1.117,2.377a8.108,8.108,0,0,0,3.406,3.918,4.834,4.834,0,0,1,2.227,2.816,31.069,31.069,0,0,0,4.684,8.225,3.258,3.258,0,0,0,3.282,1.22,6.312,6.312,0,0,0,1.447-.6c.787-.368,1.553-.8,2.363-1.122a2.407,2.407,0,0,1,2.866.7c1.438,1.776,2.837,3.585,4.242,5.385.433.557.787,1.178,1.264,1.682a3.043,3.043,0,0,0,2.837,1.063,14.843,14.843,0,0,0,3.538-.96,11.048,11.048,0,0,1,6.184-.834c.7.074,1.4.1,2.106.174,4.334.442,5.047-.094,7.845,4.186a6.437,6.437,0,0,0,1.98,1.679,2.673,2.673,0,0,0,3.332-.713,16.1,16.1,0,0,0,1.641-3.279,4,4,0,0,0-.439-3.553c-.492-.734-1.055-1.417-1.488-2.18a2.972,2.972,0,0,1,.094-3.023,14.939,14.939,0,0,1,1.541-2.136,15.816,15.816,0,0,0,3.473-7.02,16.9,16.9,0,0,1,.837-2.486,1.858,1.858,0,0,1,1.809-.778A3.472,3.472,0,0,1,226.221,184a69.04,69.04,0,0,1,4.566,5.795,10.089,10.089,0,0,0,7.825,4.681c1.226.127,2.439.3,3.653.516a1.807,1.807,0,0,1,1.455,1.367c1,3.73,2,7.462,2.934,11.21a62.28,62.28,0,0,1,.769,12.076c-.318,3.358-2.4,5.344-5.2,6.776a1.8,1.8,0,0,1-1.022.162,18.136,18.136,0,0,1-2.047-.486c-3.411-.955-6.237.159-8.676,2.51a31.586,31.586,0,0,0-2.881,3.076,7.679,7.679,0,0,0-1.965,4.242c-.174,2.466-1.626,4.127-3.364,5.748a30.272,30.272,0,0,1-6.676,4.189,5.768,5.768,0,0,1-2.575.3,23.329,23.329,0,0,0-9.7,2.18,4.96,4.96,0,0,0-3.176,4.46c-.041.527-.085,1.052-.159,1.924" transform="translate(195.255 343.667)"/>
    <path id="남양주" data-name="남양주" d="M132.842,84.1a4.788,4.788,0,0,1,1.282.675,5.965,5.965,0,0,0,6.844,1.134,12.116,12.116,0,0,1,6.175-.9c2.189.283,4.139-.551,6.137-1.223a2.837,2.837,0,0,1,3.3,1c.56.672.957,1.485,1.564,2.1a2.576,2.576,0,0,0,1.411.489,1.77,1.77,0,0,0,1.013-.227c3.848-2.092,8.155-3.3,11.637-6.092a4.63,4.63,0,0,1,2.97-.9,27.69,27.69,0,0,1,15.85,4.864,15,15,0,0,1,6.411,8.093,80.515,80.515,0,0,0,6.817,15.387,8.272,8.272,0,0,1,1.075,5.055,8.559,8.559,0,0,0,2.106,6.841,21.909,21.909,0,0,1,1.815,2.59,7.33,7.33,0,0,1,1.22,5c-.171,1.393-.074,2.811-.191,4.21a12.741,12.741,0,0,1-1.55,6.042,9.878,9.878,0,0,0-1.084,2.946,10.078,10.078,0,0,1-2.572,4.522c-1.541,1.685-2.978,3.462-4.49,5.176a14.268,14.268,0,0,0-3.111,5.441,74.3,74.3,0,0,1-7.739,17.258c-1.267,2.109-2.422,4.278-3.618,6.422-1.458,2.61-2.872,5.209-3.114,8.311a13.7,13.7,0,0,1-1.117,3.494,16.557,16.557,0,0,0-1.187,2.9c-.454,2.737-2.239,4.734-3.6,6.958a2.111,2.111,0,0,1-3.55-.059,5.812,5.812,0,0,1-.907-2.41c-.15-1.567-.038-3.155-.1-4.737A3.431,3.431,0,0,0,171,191.81a17.374,17.374,0,0,0-2.775-1.482c-1.108-.521-2.245-.993-3.385-1.444a3.574,3.574,0,0,1-1.862-1.776c-.648-1.246-1.287-2.5-1.824-3.8a12.159,12.159,0,0,0-4.1-5.4c-2.875-2.015-4.581-4.8-6.054-7.819-.463-.949-.828-1.947-1.349-2.861a41.372,41.372,0,0,0-2.283-3.523,8.715,8.715,0,0,0-6.649-3.747c-1.918-.159-3.827-.507-5.73-.828a2.682,2.682,0,0,1-1.732-1.1c-1.95-2.707-3.927-5.394-5.863-8.116a6.812,6.812,0,0,1-.946-6.036,31.735,31.735,0,0,1,1.432-3.391,5.884,5.884,0,0,0,.324-3.621,2.372,2.372,0,0,0-1.709-1.838,7.265,7.265,0,0,0-3.644-.077,13.8,13.8,0,0,1-3.1.424,2.6,2.6,0,0,1-2.808-1.891c-.8-2.507-2.687-3.538-5.214-3.612a3.9,3.9,0,0,1-1.535-.186,1.915,1.915,0,0,1-.99-1.114,8.345,8.345,0,0,1-.112-2.61c.28-2.622.642-5.235.981-7.851a5.747,5.747,0,0,0-1.768-5.27,10.064,10.064,0,0,1-2.622-3.258,1.558,1.558,0,0,1,.678-1.8c.978-.374,1.983-.672,2.964-1.031,2.648-.978,5.267-1.983,6.8-4.637a4.08,4.08,0,0,1,2.1-1.523,6.377,6.377,0,0,0,4-5.164,7.006,7.006,0,0,1,2.165-4.1c.371-.371.713-.781,1.108-1.128q3.354-2.956,6.738-5.886a1.968,1.968,0,0,1,.6-.2" transform="translate(205.52 155.983)"/>
    <path id="이천" data-name="이천" d="M181.763,147c.527.047,1.055.085,1.579.133,4.522.412,4.758.4,6.537,4.118a10.377,10.377,0,0,0,6.26,5.309,28.56,28.56,0,0,1,3.921,1.535,14.092,14.092,0,0,1,2.89,2.242,4.246,4.246,0,0,1,1.27,2.828,8.361,8.361,0,0,1,.059,1.579c-.309,2.66.356,4.775,2.755,6.346a4.584,4.584,0,0,1,1.821,4.669c-.085.7-.127,1.405-.2,2.1a3.674,3.674,0,0,1-1.414,2.722,7.89,7.89,0,0,1-.834.645c-2.124,1.146-2.64,3.064-2.813,5.3a10.265,10.265,0,0,0,1.061,6.122,12.106,12.106,0,0,1,1.019,2.427A3.374,3.374,0,0,1,204.6,198.9a20.877,20.877,0,0,1-2.578,1.809c-.745.463-1.576.784-2.348,1.211a3.925,3.925,0,0,0-2.071,4.419,12.6,12.6,0,0,0,1.773,4.378,6.364,6.364,0,0,1,.89,4.042c-.115,1.049-.209,2.1-.242,3.161a7.857,7.857,0,0,1-2.587,6.11,12.336,12.336,0,0,0-2.015,2.427,4.892,4.892,0,0,0-.6,4.543,4.232,4.232,0,0,0,3.862,3.105,5.224,5.224,0,0,0,2.095.006c2.592-1.016,5.214-.5,7.836-.336,1.229.077,2.46.2,3.688.23,2.454.053,3.1-.454,4.133-3.079a4.849,4.849,0,0,1,.684-1.4,2.384,2.384,0,0,1,1.3-.807,7.5,7.5,0,0,1,5.07.881c2.4,1.435,4.121,3.273,4.543,6.128a6.094,6.094,0,0,0,.368,1.532,4.069,4.069,0,0,0,3,2.7c.863.159,1.744.23,2.607.409a2.494,2.494,0,0,1,1.909,3.211c-.159.684-.4,1.349-.589,2.024a13.383,13.383,0,0,0,.242,9.292c1.2,2.864.893,5.889.191,8.832a8.848,8.848,0,0,1-1.376,2.81,27.76,27.76,0,0,1-2.086,2.374,7.5,7.5,0,0,1-4.381,2.749,10.481,10.481,0,0,0-2.009.636,4.028,4.028,0,0,0-2.257,2.109c-.418.969-.728,1.983-1.125,2.961-.539,1.343-1.535,1.685-3,1.049a26.777,26.777,0,0,0-3.388-1.435,2.963,2.963,0,0,0-2,.345,4.409,4.409,0,0,0-2.242,2.822c-.66,2.778-2.286,5.132-3.2,7.8a2.846,2.846,0,0,1-4,1.355,5.679,5.679,0,0,1-.919-.51c-4.116-3.1-8.906-2.869-13.667-2.769-1.226.024-2.2,1.19-3.515.8a.816.816,0,0,1-.4-.327.772.772,0,0,1-.1-.5c.224-1.122,1.208-1.67,1.927-2.4a7.7,7.7,0,0,0,2.186-4.684,16.273,16.273,0,0,0,.192-2.1c-.071-5.992-.365-11.955-2.363-17.694a20.613,20.613,0,0,1-.993-3.547c-.583-3.635-.6-3.8-4.717-4.207a25.854,25.854,0,0,1-2.619-.318,9.224,9.224,0,0,1-6.084-3.824c-1.287-1.888-2.79-3.627-4.157-5.462a6.265,6.265,0,0,0-4.4-2.6c-1.57-.194-3.14-.421-4.69-.751-1.85-.4-2.831-1.5-2.663-3.353.245-2.675-.356-5.253-.583-7.869a3.38,3.38,0,0,0-2.59-3.011,25.117,25.117,0,0,0-3.618-.716,6,6,0,0,1-4.731-3.759c-.218-.477-.38-.981-.557-1.482a6.471,6.471,0,0,0-3.526-3.73c-1.423-.692-2.861-1.358-4.254-2.112A16.211,16.211,0,0,1,131,204.591a4.29,4.29,0,0,1-.468-2.027c.362-5.091.763-10.178,1.24-15.257a3.838,3.838,0,0,1,2.41-3.258c3.3-1.326,3.848-3.762,3.1-6.867a6.037,6.037,0,0,1-.106-1.567,2.275,2.275,0,0,1,.972-1.785,3.509,3.509,0,0,1,.9-.536,5.614,5.614,0,0,0,4.071-4.387c.283-1.308,1.338-2.448,2.012-3.683a2.539,2.539,0,0,1,2.059-1.458,20.783,20.783,0,0,0,7.012-2.112c2.086-.907,4.3-1.529,6.443-2.3a14.924,14.924,0,0,0,5.65-3.789c2.207-2.271,4.516-4.448,6.643-6.8a5.945,5.945,0,0,1,5.671-2.024c1.043.156,2.106.189,3.155.274V147" transform="translate(254 285.391)"/>
    <path id="평택" data-name="평택" d="M69.109,227.364c1.579.133,3.158.274,4.734.4,2.083.153,2.875-.342,3.638-2.239A3.277,3.277,0,0,0,77.6,225a2.625,2.625,0,0,1,1.517-2,6.544,6.544,0,0,0,1.8-1.043c3.441-3.264,7.006-6.422,9.006-10.9a25,25,0,0,1,2.089-3.659c1.455-2.168,3.4-3.535,6.169-3.285,1.226.112,2.454.206,3.668.4a2.545,2.545,0,0,1,2.165,2.039c.356,1.541.5,3.129.854,4.664a16.718,16.718,0,0,0,1.069,2.955,2.7,2.7,0,0,0,2.634,1.388,3.321,3.321,0,0,0,.519-.068c4.31-1.355,4.69.3,7.218-5.774.268-.651.657-1.255.907-1.909a3.951,3.951,0,0,1,4.154-2.622c2.808.08,5.612.386,8.42.58,1.226.088,2.451.177,3.68.2a2.69,2.69,0,0,0,1.992-1.547,7.733,7.733,0,0,0,.389-1.526,31.418,31.418,0,0,0,.18-3.158,21.384,21.384,0,0,1,1.547-8.219,20.745,20.745,0,0,0,1.891-7.1,3.76,3.76,0,0,1,.477-1.5,4.348,4.348,0,0,1,2.681-2.372c2.386-.7,4.884-.56,7.285-1.025a3.377,3.377,0,0,1,3.317.949,3.15,3.15,0,0,0,3.886.536c.312-.156.651-.28.949-.46a10.9,10.9,0,0,1,7.607-1.405c1.04.159,2.112.124,3.155.277a7.333,7.333,0,0,0,5.933-1.541,3.826,3.826,0,0,1,2.908-1c1.47.183,2.755-.439,4.1-.81.937-.259,1.7-.044,1.774.463.115.822-.421,1.3-.963,1.732-1.785,1.426-3.6,2.8-5.371,4.245a3.265,3.265,0,0,0-1.155,2.3c-.121,1.226-.221,2.451-.33,3.68a5.554,5.554,0,0,0,.569,3.061c1.573,3.135,2.654,6.525,4.952,9.283a1.6,1.6,0,0,1-.518,2.292c-1.214.692-2.475,1.308-3.73,1.924a5.4,5.4,0,0,0-2.737,3.067,2.409,2.409,0,0,0,.916,2.79,5.724,5.724,0,0,0,1.888.854,13.289,13.289,0,0,1,4.3,1.927,1.591,1.591,0,0,1,.141,2.307,11.888,11.888,0,0,1-2.245,1.332c-1.723.683-2.292,2.053-2.483,3.718-.021.174-.047.345-.068.521-.445,4.749.412,5.265,4.675,5.633,2.1.18,4.21.351,6.307.586a11.129,11.129,0,0,1,2.027.536A2.249,2.249,0,0,1,190.823,230a4.222,4.222,0,0,1-.18,1.028,9.261,9.261,0,0,0-.206,6.2,7.71,7.71,0,0,1,.174,2.092,4.25,4.25,0,0,1-1.726,3.668,11.877,11.877,0,0,0-1.706,1.231,10.222,10.222,0,0,0-1.5,2.106c-.409.772-.636,1.641-.972,2.448-1.3,3.123-3.591,4.658-7.029,4.31a7.644,7.644,0,0,0-4.993,1.326c-.887.572-1.694,1.261-2.557,1.868a5.732,5.732,0,0,0-2.7,4.292,2.31,2.31,0,0,1-1.968,2.18,16.8,16.8,0,0,0-5.824,2.372,5.678,5.678,0,0,1-3.55.748c-3.335-.221-6.679-.359-10-.642-2.321-.2-4.552-.209-6.626,1.09a2.98,2.98,0,0,1-2.56.08c-.669-.224-1.3-.533-1.953-.8a4.81,4.81,0,0,0-3.1-.165,46.124,46.124,0,0,0-10.408,3.7,25.878,25.878,0,0,1-8.926,3.031,40.819,40.819,0,0,0-6.623,1.67,8.477,8.477,0,0,0-4.714,3.2,2.488,2.488,0,0,1-1.329.775c-.227.062-.816-.283-.816-.442-.021-2.08-.48-4.16.015-6.237a16.454,16.454,0,0,0,.359-2.077,3.089,3.089,0,0,0-.725-2.46c-1.167-1.308-2.386-2.569-3.621-3.812a15.027,15.027,0,0,0-1.284-.91,148.236,148.236,0,0,0-12.518-9.622,8.174,8.174,0,0,1-1.47-1.5,4.138,4.138,0,0,1-.963-2.4,14.822,14.822,0,0,1,.362-4.183,45.7,45.7,0,0,0,.6-5.226,4.593,4.593,0,0,0-2.062-4.057,16.177,16.177,0,0,0-8.65-3.562c-1.927-.124-3.842-.421-5.754-.71a2.613,2.613,0,0,1-2-1.535,1.527,1.527,0,0,1,.975-2.065,8.852,8.852,0,0,1,1.57-.13c1.756.109,3.509.274,5.262.418l-.009.062" transform="translate(119.068 342.452)"/>
    <path id="광주" data-name="광주" d="M203.063,143.786c-.215,1.567-.348,3.152-.675,4.693a2.985,2.985,0,0,1-2.475,2.439c-.689.133-1.4.127-2.089.268-1.24.256-2.239,1.791-1.694,2.8a24.873,24.873,0,0,1,2.162,6.466,6.169,6.169,0,0,0,2.1,3.553,4.608,4.608,0,0,1,1.906,3.588,2.893,2.893,0,0,0,.492,1.476A6.316,6.316,0,0,1,204.047,173a4.843,4.843,0,0,0,.418,2.05,4.722,4.722,0,0,0,1.358,2.177c2.752,1.7,4.065,4.3,4.952,7.227a6.882,6.882,0,0,0,.433.963,2.182,2.182,0,0,0,2.156,1.223c.875-.015,1.741-.215,2.616-.283a2.685,2.685,0,0,1,2.881,1.832,18.183,18.183,0,0,1,1.258,6.163c-.018,1.055-.141,2.106-.23,3.155a4.38,4.38,0,0,1-1.279,2.816c-2.834,2.884-5.736,5.709-8.455,8.7a19.848,19.848,0,0,1-8.923,5.394,46.482,46.482,0,0,0-6.44,2.286,7.369,7.369,0,0,1-3.064.586,4.222,4.222,0,0,0-4.083,2.772c-.657,1.435-1.426,2.819-2.048,4.272a4.025,4.025,0,0,1-2.475,2.569c-2.672.769-3.585,2.554-3.388,5.167a28.8,28.8,0,0,1-.021,3.149,1.328,1.328,0,0,1-1.535,1.084,6.749,6.749,0,0,1-1.476-.545,10.52,10.52,0,0,0-4.519-1.3,5.066,5.066,0,0,0-4.781,1.582c-1.228,1.411-2.775,1.34-4.351.716-.648-.259-1.228-.692-1.871-.969-2.186-.925-3.382-2.392-3.067-4.911A9.34,9.34,0,0,0,158,227.73a8.706,8.706,0,0,1,.8-6.151,17.954,17.954,0,0,0,1.691-7.121c.242-2.8.58-5.6.845-8.4a14.732,14.732,0,0,0,.018-2.1,2.669,2.669,0,0,0-1.918-2.283c-1.72-.362-3.456-.63-5.185-.957a4.035,4.035,0,0,1-3.17-2.4c-2.171-4.472-7.062-5.771-10.615-5.138a6.384,6.384,0,0,0-3.968,2.442,27.682,27.682,0,0,0-1.706,2.654c-.716,1.211-1.34,2.472-2.08,3.668-1.158,1.859-2.539,1.818-3.532-.077-.407-.781-.731-1.6-1.122-2.386a2.677,2.677,0,0,0-2.64-1.391,3,3,0,0,0-1.04.118c-3.7,1.34-7.613,1.17-11.431,1.67a12.5,12.5,0,0,1-2.631-.062,2.435,2.435,0,0,1-2.548-2.7,35.623,35.623,0,0,1,.312-3.677,3.854,3.854,0,0,1,2.975-3.329,10.559,10.559,0,0,1,1.561-.239,3.941,3.941,0,0,0,3-1.93,10.791,10.791,0,0,1,3.945-4.136c2.943-1.688,4.4-4.46,5.126-7.654.468-2.056.837-4.136,1.211-6.21a6.763,6.763,0,0,1,1.614-3.27c.115-.133.242-.256.351-.4,4.9-6.084,4.012-4.4,4.717-11.828.115-1.229.183-2.457.242-3.688a2.737,2.737,0,0,0-.884-2.383,6.447,6.447,0,0,1-2.566-5.506,5.3,5.3,0,0,0-.914-2.976,22.338,22.338,0,0,1-1.154-2.353c-.245-.551.445-1.449,1.122-1.432a6.776,6.776,0,0,1,2.068.2c1.482.533,2.937,1.164,4.366,1.835a13.664,13.664,0,0,0,6.2.96,4.322,4.322,0,0,0,1.986-.6,8.261,8.261,0,0,1,5.114-.822q2.89.27,5.789.421a2.444,2.444,0,0,0,2.218-1.927,11.906,11.906,0,0,0,0-5.742,9.167,9.167,0,0,1-.28-2.077,1.788,1.788,0,0,1,1.585-1.779,13.937,13.937,0,0,1,2.1-.135c1.4.082,2.811.2,4.2.407a6,6,0,0,1,3.73,1.779,12.511,12.511,0,0,0,2.03,1.676,5.816,5.816,0,0,0,1.42.651,2.433,2.433,0,0,0,2.784-.919,68.837,68.837,0,0,0,3.715-6.378,7.157,7.157,0,0,1,5.592-4.275c1.9-.359,3.8-.739,5.7-1.075a14.985,14.985,0,0,1,6.275.362,3.508,3.508,0,0,1,2.422,1.883c.9,1.912,1.868,3.794,2.6,5.765.922,2.466,1.662,5,2.448,7.524a24.141,24.141,0,0,1,.572,9.943" transform="translate(209.713 229.869)"/>
    <path id="양주" data-name="양주" d="M158.39,124.972c-2.124,1.346-4.036,2.592-5.983,3.783-1.8,1.1-10,3.261-12.158,3.082-4.018-.336-8.1-.336-11.943-1.838a9.747,9.747,0,0,0-2.059-.418c-3.73-.577-6.517,1-8.579,3.957a5.563,5.563,0,0,0-.583,6,22.947,22.947,0,0,1,2.21,7.542c.339,2.26.748,4.51,1,6.779a16.71,16.71,0,0,1-.059,3.68,3.754,3.754,0,0,1-.772,1.894c-1.888,2.31-3.845,4.566-5.815,6.8a2.477,2.477,0,0,1-2.869.707,24.227,24.227,0,0,1-7.892-4.148c-2.313-1.936-4.778-1.93-7.409-.807a5.033,5.033,0,0,0-2.422,1.944c-.462.742-.9,1.505-1.352,2.26-1.558,2.607-3.264,3.191-6.166,1.965A1.473,1.473,0,0,1,85,166.836a39.97,39.97,0,0,1,2.151-4.8,15.936,15.936,0,0,0,1.9-7.065c.1-2.634.333-5.267.457-7.9a6.528,6.528,0,0,1,1.676-4.325c.118-.127.2-.3.324-.415a6.643,6.643,0,0,0,2.162-5.191,3.368,3.368,0,0,1,1.891-2.964,14.648,14.648,0,0,1,5.4-2.015c1.732-.274,3.462-.572,5.17-.955a7,7,0,0,0,3.223-1.718,2.791,2.791,0,0,0,.065-4.2c-2.539-1.868-5.038-3.768-8.355-4.248a21.917,21.917,0,0,1-7.291-2.925A67.955,67.955,0,0,0,87.683,115c-1.261-.536-1.712-1.393-1.258-2.492a14.684,14.684,0,0,0,.728-9.787,2.35,2.35,0,0,1,.7-2.4c.124-.124.239-.256.371-.374,1.555-1.408,1.983-3.833,4.007-4.752,1.812-.828,3.833-.136,5.748-.356l.524-.065a2.191,2.191,0,0,0,1.965-2.109,3.406,3.406,0,0,0-.106-1.043,3.949,3.949,0,0,1,.513-3.541,18.692,18.692,0,0,0,2.893-9.987,18.779,18.779,0,0,1,1.279-5.636,31.777,31.777,0,0,0,2.042-6.522,8.92,8.92,0,0,1,2.174-4.166,12,12,0,0,0,2.722-5.633,5.732,5.732,0,0,1,.8-1.93c1.181-2.015,2.516-3.14,5.212-1.983a33.916,33.916,0,0,1,7.041,3.523,4.674,4.674,0,0,1,2.171,4.5c-.1.872-.088,1.762-.209,2.631a9.819,9.819,0,0,0,1.912,6.97c1.482,2.186,3.161,4.21,5.9,5.023a5.194,5.194,0,0,1,3.311,3.182q.928,2.187,1.968,4.322a6.152,6.152,0,0,0,4.516,3.3,15.555,15.555,0,0,0,2.1.242,11.6,11.6,0,0,1,3.995,1.214c2.69,1.264,5.329,2.7,8.328,3.229a2.212,2.212,0,0,1,1.653,1.874c.189.857.256,1.738.386,2.61a21.807,21.807,0,0,0,2.33,8.049,8.5,8.5,0,0,1,.975,4.593c-.024,1.061-.021,2.115-.038,3.17a8.828,8.828,0,0,1-1.019,4.048c-1.066,2.021-2.047,4.083-3.037,6.142-.613,1.267-1.17,2.557-1.883,4.124" transform="translate(165.339 100.714)"/>
    <path id="김포" data-name="김포" d="M91.139,100.419c-.047.318-.077.672-.147,1.016A3.99,3.99,0,0,1,89.02,104.4a13.407,13.407,0,0,0-2.21,1.414,3.146,3.146,0,0,0-.843,1.29,5.155,5.155,0,0,0-.309,1.544q-.354,5.267-.66,10.535a5.055,5.055,0,0,0,1.114,3.447,19.478,19.478,0,0,0,3.223,3.465,48.424,48.424,0,0,1,5.365,5.058,18.735,18.735,0,0,0,3.644,3.014,10.726,10.726,0,0,0,4.278,1.953c.678.091,1.3.574,1.977.713,4.31.89,7.7,3.444,10.815,6.287,3.63,3.329,7.344,6.549,11.1,9.734a14.379,14.379,0,0,1,1.818,1.874c.18.224.115.666.112,1.008a.729.729,0,0,1-.2.468c-2.2,2-2.831,4.775-3.727,7.427a1.782,1.782,0,0,1-2.109,1.111,1.885,1.885,0,0,1-.516-.1c-2.864-1.682-5.709-1.314-8.588-.009a2.321,2.321,0,0,1-2.808-.846,8,8,0,0,1-.672-.813A5.917,5.917,0,0,0,105,160.159a8.876,8.876,0,0,1-1.558-.28,3.111,3.111,0,0,1-1.947-1.653,6.655,6.655,0,0,1-.574-1.47,6.631,6.631,0,0,0-3.467-4.425,3.429,3.429,0,0,1-1.662-1.971c-1.308-3.476-4.172-5.636-6.923-7.754a65.12,65.12,0,0,1-5.391-4.183,6.109,6.109,0,0,0-7.309-1.152,61.517,61.517,0,0,1-6.852,2.675,3.3,3.3,0,0,0-2.436,3.114c-.2,4.97-.7,4.911-5.45,6.178-3.594.96-6.805,2.813-10.179,4.292a4.621,4.621,0,0,0-2.563,3.17c-.518,1.756-1.874,1.906-3.358,1.429-1.335-.424-2.687-.813-4-1.308a3.629,3.629,0,0,1-2.36-4.661,6.406,6.406,0,0,1,1.064-2.366A9.709,9.709,0,0,0,42,141.843c-.645-4.051-.2-8.078.2-12.1a32.74,32.74,0,0,1,.907-5.179,8.169,8.169,0,0,0-1.317-7.486,7.978,7.978,0,0,1-.6-.872,4.5,4.5,0,0,1-.539-3.052c.121-.689.4-1.355.507-2.042a16.991,16.991,0,0,0-.1-7.839,23.2,23.2,0,0,1-.633-3.63,3.032,3.032,0,0,1,.6-2.492c3.291-3.847,2.852-4.7,3.4-9.707a13.4,13.4,0,0,0-1.167-6.664c-.586-1.455-1.37-2.864-1.276-4.522.021-.4.513-1.128.9-1.149,1.924-.1,3.85-.309,5.762-.224A5.16,5.16,0,0,1,50.97,76a3.181,3.181,0,0,1,.946,1.243c1.181,2.351,3.771,3.093,5.488,4.826a2.546,2.546,0,0,0,1.482.474c3.5.321,7.012.6,10.511.9a4.761,4.761,0,0,0,2.973-.9,9.957,9.957,0,0,0,2.1-1.579c2.018-2.2,4.357-4.121,5.895-6.732,1.031-1.753,2.651-2.162,4.51-2.1a2.016,2.016,0,0,1,1.874,1.55,39.229,39.229,0,0,1,.1,4.2,37.551,37.551,0,0,0,.2,7.365A38.359,38.359,0,0,0,90.155,95.82a7.493,7.493,0,0,1,.984,4.6" transform="translate(75.515 140.347)"/>
    <path id="성남" data-name="성남" d="M123.415,185.244c-1.393-.183-2.793-.324-4.177-.563a4.834,4.834,0,0,1-3.391-2.286,19.22,19.22,0,0,1-1.338-2.274,8.665,8.665,0,0,0-4.932-4.46c-3.223-1.382-6.319-3.046-9.51-4.51a7.737,7.737,0,0,1-3.774-3.529,6.163,6.163,0,0,1-.362-5.571c1.255-2.9,2.351-5.866,3.544-8.791a3.85,3.85,0,0,0-.021-3.526c-1.084-1.983-.451-3.762.937-5.315a3.524,3.524,0,0,1,3.252-1.4,9.339,9.339,0,0,0,6.964-1.8,9.932,9.932,0,0,1,4.3-1.838,4.584,4.584,0,0,0,2.975-2.036c1.149-1.547,2.283-3.117,3.444-4.661a2.365,2.365,0,0,1,2.351-.843,5.52,5.52,0,0,1,1.541.327,8.253,8.253,0,0,0,5.677.1,4.378,4.378,0,0,0,3.226-2.492c.94-2.333,2.76-3.541,4.955-4.41a3.168,3.168,0,0,1,3.017.138q.9.561,1.8,1.1a3.825,3.825,0,0,0,3.523.354,4.878,4.878,0,0,1,1.016-.268,3,3,0,0,1,3.167,2.2,7.384,7.384,0,0,1,.156,1.567,6.257,6.257,0,0,0,1.9,4.767,5.415,5.415,0,0,1,1.461,4.826c-.645,7.353-.059,5.739-4.422,11.413-2.162,1.856-2.56,4.519-3.176,7.068a13.365,13.365,0,0,0-.227,2.1,10.031,10.031,0,0,1-4.89,8.267,10.979,10.979,0,0,0-3.992,4.095,3.493,3.493,0,0,1-3.029,1.815c-2.943.133-4.369,1.933-4.943,4.608-.336,1.544-.589,3.1-.952,4.64a2.215,2.215,0,0,1-2.4,1.606c-1.226-.091-2.448-.2-3.674-.3,0-.035.006-.074.006-.109" transform="translate(185.702 243.355)"/>
    <path id="시흥" data-name="시흥" d="M100.528,175.591a12.614,12.614,0,0,1-6.222-.454c-1.85-.545-3.718-1.061-5.6-1.479a4,4,0,0,0-4.284,1.335,3.735,3.735,0,0,1-.348.4c-3.571,3.541-2.737,3.261-8.34,3.2-1.408-.018-2.813-.15-4.216-.274-2.366-.2-4.534.068-6.3,1.938-.946,1-2.13.928-3.385.3-2.884-1.441-5.491-3.164-7.047-6.11a3.333,3.333,0,0,1-.516-1.464,5.118,5.118,0,0,1,.463-2,3.528,3.528,0,0,1,1.09-1.122c3.2-2.481,6.428-4.935,10.4-6.122a5.032,5.032,0,0,0,3.3-3.17,42.862,42.862,0,0,0,1.729-4.964,15.507,15.507,0,0,0,.136-3.261,4.791,4.791,0,0,1,1.061-.952,7.125,7.125,0,0,0,4.077-5.17A5.7,5.7,0,0,1,80.5,141.7a6.073,6.073,0,0,0,3.223-2.6,3.837,3.837,0,0,0,.669-3c-.141-.686-.38-1.358-.489-2.05-.41-2.619-1.323-3.553,1.941-5.851a5.98,5.98,0,0,0,1.815-2.542c1.078-2.342,1.29-2.469,3.444-2.089a25.882,25.882,0,0,1,3.55.928,62.351,62.351,0,0,0,5.966,2.056,4.116,4.116,0,0,1,3.37,2.846c1.146,3.011,1.971,6,1.361,9.256a11.112,11.112,0,0,0-.177,2.631,8.862,8.862,0,0,0,.474,2.548,33.6,33.6,0,0,0,3.683,6.985c1.379,2.062,2.887,3.974,5.55,4.563a2.415,2.415,0,0,1,1.638,1.93c.312,1.373.51,2.766.79,4.148.734,3.638,1.691,7.185,4.06,10.19a4.692,4.692,0,0,1,.846,1.9,2.385,2.385,0,0,1-.315,1.473,3.491,3.491,0,0,1-1.1,1.1c-1.031.669-2.159,1.193-3.164,1.9a7.159,7.159,0,0,1-6.051.943A1.985,1.985,0,0,1,110,177.144c-.08-.7-.015-1.42-.159-2.1a4.945,4.945,0,0,0-4.425-3.877,2.285,2.285,0,0,0-1.921.681c-1.022,1.2-1.962,2.466-2.97,3.744" transform="translate(105.605 240.157)"/>
    <path id="수원" data-name="수원" d="M84.706,190.135A9.567,9.567,0,0,1,86.2,185a14.148,14.148,0,0,0,1.549-4.449c.557-2.993.6-5.933-.9-8.726a3.193,3.193,0,0,1-.1-3.037,13.412,13.412,0,0,0,1.193-5.1c.324-4.3,2.165-8.093,3.912-11.92a2.567,2.567,0,0,1,2.092-1.411c.524-.074,1.052-.1,1.576-.141s1.049-.077,1.57-.13c1.449-.15,2.274-1.685,3.777-1.712,1.223-.021,2.451.071,3.662-.032a2.046,2.046,0,0,0,1.547-1.308c.521-1.1.922-2.257,1.447-3.353a1.574,1.574,0,0,1,2.3-.221c2.083,3.017,4.619,5.771,5.344,9.557a7.235,7.235,0,0,0,4.469,5.485,5.157,5.157,0,0,1,2.955,3.491c.05.168.1.336.153.5a6.991,6.991,0,0,1,.324,1,9.809,9.809,0,0,0,5.733,7.683,1.435,1.435,0,0,1,.648.778c.094.292.085.807-.1.96a15.773,15.773,0,0,1-2.156,1.438,7.117,7.117,0,0,0-4.042,5.757,9.973,9.973,0,0,1-2.937,5.488,4.667,4.667,0,0,1-3.158,1.744,3.727,3.727,0,0,0-3.32,2.242,10.74,10.74,0,0,1-3.895,4.139c-1.992,1.438-3.889,3-5.812,4.531a2.489,2.489,0,0,1-2.442.607c-3.347-1.258-6.858-1.441-10.355-1.744a5.65,5.65,0,0,1-1.555-.25,4.394,4.394,0,0,1-1.785-1.019,27.033,27.033,0,0,1-2.713-3.871,5.178,5.178,0,0,1-.471-1.844" transform="translate(164.84 278.392)"/>
    <path id="동두천" data-name="동두천" d="M149.275,85.31c.05,4.722-2.086,7.477-4.6,10a3.78,3.78,0,0,1-1.88.81c-1.022.2-2.1.15-3.126.351-2.239.436-4.484.916-6.325,2.4a4.509,4.509,0,0,1-3.995.8,16.961,16.961,0,0,1-3.989-1.261,24.281,24.281,0,0,0-8.417-2.878,7.327,7.327,0,0,1-1.514-.436,4.505,4.505,0,0,1-2.728-2.33c-.7-1.417-1.393-2.84-2.033-4.284a6.075,6.075,0,0,0-3.694-3.538c-3.7-1.223-5.612-4.018-6.791-7.48a7.684,7.684,0,0,1,.239-5.665,21.855,21.855,0,0,1,2.28-4.13,20.369,20.369,0,0,0,3.5-6.425,5.072,5.072,0,0,1,1.523-2.074c.763-.716,1.7-1.24,2.528-1.885,2.159-1.673,3.765-3.694,3.951-6.552a4.219,4.219,0,0,1,2.242-3.361c.6-.377,1.181-.757,1.788-1.117,1.423-.846,2.919-.648,3.618.71a4.662,4.662,0,0,0,3.111,2.619,8.1,8.1,0,0,1,2.345,1.161,4.791,4.791,0,0,1,1.535,1.382c1.373,2.274,2.489,4.646,2.236,7.43-.112,1.22-.13,2.454-.156,3.683a2.86,2.86,0,0,0,1.532,2.572,8.335,8.335,0,0,0,.954.454,9.948,9.948,0,0,1,5.365,6.157,16.547,16.547,0,0,0,1.3,2.869,7.235,7.235,0,0,0,3.906,3.358q1.5.513,2.934,1.164a4.165,4.165,0,0,1,2.481,3.747,7.282,7.282,0,0,1-.118,1.741" transform="translate(194.122 89.044)"/>
    <path id="안산" data-name="안산" d="M127.6,177.789c-.524-.044-1.049-.1-1.576-.13a4.047,4.047,0,0,1-3.09-1.791c-.719-.993-1.305-2.086-2-3.1a3.685,3.685,0,0,0-4.575-1.638,44.855,44.855,0,0,0-5.96,2.08A88.438,88.438,0,0,1,98.889,177a1.842,1.842,0,0,1-2.339-1.541,62.836,62.836,0,0,0-2.964-9,13.693,13.693,0,0,0-1.14-2.369,3.941,3.941,0,0,0-2.961-2,23.886,23.886,0,0,0-4.72-.138,14.472,14.472,0,0,1-5.695-.628c-3.023-.89-6.122-1.553-9.221-2.145a9.849,9.849,0,0,1-5.491-2.887c-1.827-1.9-3.721-3.736-5.577-5.609a1.637,1.637,0,0,1-.088-1.941,2.947,2.947,0,0,1,2.554-1.594c1.579.041,3.161.153,4.74.256,1.4.088,2.8.221,4.21.315a6.241,6.241,0,0,0,4.808-1.768c1.031-.955,2.006-1.968,3.049-2.911a2.687,2.687,0,0,1,2.466-.607c1.025.23,2.027.577,3.031.887a30.648,30.648,0,0,0,7.265,1.24c1.915.112,3.467-.33,4.351-2.212a7.419,7.419,0,0,1,.866-1.317,2.149,2.149,0,0,1,3.506.577,9.438,9.438,0,0,1,.548,2.015c.165,1.034.165,2.1.371,3.12a1.75,1.75,0,0,0,1.449,1.385c2.816.354,5.594.412,8.137-1.273,1.609-1.069,3.323-1.974,5-2.934,1.482-.846,2.634-.557,3.459,1.072a21.373,21.373,0,0,0,3.836,5.642,5.022,5.022,0,0,1,1.352,3.35c.062.878-.009,1.771.136,2.634a7.657,7.657,0,0,0,.769,2.489c1.131,1.98,2.333,3.927,3.621,5.81a5.924,5.924,0,0,0,4.776,2.9,20.774,20.774,0,0,1,3.1.513,1.781,1.781,0,0,1,1.146,1.6,3.3,3.3,0,0,1-.1,1.037,32.191,32.191,0,0,1-2.071,4.248,5.627,5.627,0,0,1-5.359,2.737c-.7-.047-1.4-.112-2.106-.168Z" transform="translate(113.684 273.126)"/>
    <path id="하남" data-name="하남" d="M152.01,136.025c1.694.692,3.323,1.332,4.923,2.027a17.592,17.592,0,0,1,2.345,1.2,3.035,3.035,0,0,1,1.461,3.146,3.9,3.9,0,0,1-.374,1.511c-.242.412-.7.922-1.114.966a26.807,26.807,0,0,1-3.674.021c-1.759-.065-3.509-.218-5.265-.268a2.446,2.446,0,0,0-2.115,2.047,24.872,24.872,0,0,0,.141,3.14c.121,1.22.395,2.428.468,3.647a2.7,2.7,0,0,1-2.89,2.99c-1.228-.024-2.46-.08-3.685-.2a11.68,11.68,0,0,0-6.684.925,5.375,5.375,0,0,1-4.6-.059c-1.794-.728-3.544-1.547-5.329-2.283a11.323,11.323,0,0,0-2.489-.825,3.374,3.374,0,0,0-3.317,1.187c-.769.946-1.361,2.042-2.186,2.931-1.049,1.143-3.361.569-4-.919a1.445,1.445,0,0,1-.144-1.008c.471-.937,1.081-1.806,1.585-2.725a6.548,6.548,0,0,0-.919-7.813c-.713-.766-1.585-1.385-2.369-2.089-1.069-.96-1.255-1.723-.539-2.734,1.62-2.3,3.185-4.649,4.988-6.794a20.869,20.869,0,0,0,3.35-4.693,4.335,4.335,0,0,1,2.239-2.139c.474-.221.963-.415,1.449-.622,3.615-1.57,3.956-2.569,3.453-6.652a56.413,56.413,0,0,0-1.647-6.646c-.339-1.361-.645-2.731-.946-4.1-.127-.569.648-1.393,1.279-1.4.7-.006,1.4-.035,2.106-.021.527.015,1.055.138,1.576.106,4.092-.247,6.493,2.159,8.376,5.344.445.754.734,1.6,1.125,2.38.713,1.414,1.467,2.808,2.171,4.225a12.385,12.385,0,0,0,3.992,4.829,14.975,14.975,0,0,1,5.323,7.035c.586,1.458,1.282,2.872,1.938,4.334" transform="translate(215.638 209.72)"/>
    <path id="의정부" data-name="의정부" d="M111.37,112.5c-.574.035-1.1.1-1.626.094a2.357,2.357,0,0,1-1.847-.848c-.436-.542-.822-1.134-1.228-1.706a3.8,3.8,0,0,0-2.613-1.6c-.689-.118-1.388-.218-2.071-.38a2.024,2.024,0,0,1-1.438-1.393,6.674,6.674,0,0,1-.415-1.517c-.3-2.436-.566-4.87-.845-7.306-.383-3.32-.863-6.623-2.545-9.6-.907-1.611-.424-3.067.518-4.437a6.865,6.865,0,0,1,7.8-2.934c2.678.946,5.48,1.181,8.193,1.885a18.84,18.84,0,0,0,9.389-.28c1.529-.4,3.046-.843,4.584-1.193a12.676,12.676,0,0,0,4.8-2.056,18.444,18.444,0,0,1,1.788-1.1,2.19,2.19,0,0,1,2.472.068c.993.7,1.93,1.5,2.952,2.168a3.854,3.854,0,0,1,1.762,2.5c.074.342.177.678.271,1.019a4.223,4.223,0,0,0,2.348,2.687,5.71,5.71,0,0,0,.987.356c3.052.869,3.046,2.139.642,4.254Q143.076,93.071,141,95.1a6.477,6.477,0,0,0-2.015,3.621,8.813,8.813,0,0,1-.613,2.006,4.356,4.356,0,0,1-2.38,2.69,6.678,6.678,0,0,0-3.632,2.884,6.1,6.1,0,0,1-3.273,2.51A94.784,94.784,0,0,1,115.48,112.8c-1.467.3-2.775-.256-4.11-.3" transform="translate(187.318 151.339)"/>
    <path id="안양" data-name="안양" d="M114.318,148.306a39.947,39.947,0,0,1-2.265,5.217,27.49,27.49,0,0,1-3.618,4.516c-1.726,1.838-2.478,2.307-5,.825a19.313,19.313,0,0,0-7.568-2.1,6.147,6.147,0,0,0-5.326,1.723c-.628.613-1.231,1.252-1.862,1.859a8.806,8.806,0,0,1-1.2,1.025c-3.3,2.183-4.717,1.888-6.82-1.373a20.024,20.024,0,0,1-2.737-7.916c-.436-2.8-.813-5.527-2.425-7.934a1.209,1.209,0,0,1,.451-1.376,6.1,6.1,0,0,1,1.473-.477,2.652,2.652,0,0,0,2.369-1.8c1.019-2.752,3.12-4.611,5.173-6.552,1.62-1.529,3.288-2.578,5.636-2.174a5.919,5.919,0,0,0,4.425-1.37c.857-.6,1.626-1.332,2.451-1.983a1.693,1.693,0,0,1,1.974-.044c1.167.781,2.295,1.626,3.485,2.363,3.747,2.313,4.393,1.794,4.048,6.929a5.073,5.073,0,0,0,.952,2.97,16.738,16.738,0,0,0,3.824,4.325,13.988,13.988,0,0,1,1.915,1.794,5.721,5.721,0,0,1,.654,1.558" transform="translate(146.746 249.23)"/>
    <path id="의왕" data-name="의왕" d="M106.486,164.736a2.988,2.988,0,0,0-3.789.8,3.74,3.74,0,0,1-3.3,1.273,9.815,9.815,0,0,0-2.1-.015,2.625,2.625,0,0,0-2.077,1.432c-.4.775-.742,1.585-1.069,2.4-.913,2.271-1.8,4.557-2.716,6.829a2.223,2.223,0,0,1-2.062,1.37,14.678,14.678,0,0,1-2.619.006c-4.649-.51-5.368-5.008-3.35-7.831a16.575,16.575,0,0,1,2.419-2.755,7.358,7.358,0,0,0,2.79-4.885,3.4,3.4,0,0,1,1.726-2.5,5.838,5.838,0,0,0,2.369-3.951c.094-.519.212-1.037.259-1.558a10.816,10.816,0,0,1,3.3-6.97,23.632,23.632,0,0,0,1.7-2.006,16.486,16.486,0,0,0,3.712-6.275,11.011,11.011,0,0,1,1.108-2.377,2.05,2.05,0,0,1,1.6-1.246c3.562-.08,6.8-1.332,10.146-2.369a16.831,16.831,0,0,1,7.309-.074,1.525,1.525,0,0,1,1.234,1.93,155.047,155.047,0,0,1-6.246,15.6c-.607,1.261-1.332,2.478-1.824,3.783-.766,2.039-1.709,3.786-3.98,4.534-.524.171-.937,1-1.184,1.62a21.425,21.425,0,0,0-.648,2.534,1.642,1.642,0,0,1-1.7.946c-.342-.065-.678-.159-1.016-.242" transform="translate(160.238 260.119)"/>
    <path id="부천" data-name="부천" d="M75.232,110.715c1.446.737,3.329.742,4.625,2.133a7.755,7.755,0,0,0,6.137,2.507,2.361,2.361,0,0,1,2.307,1.806,28.4,28.4,0,0,1,1.264,7.235,4.239,4.239,0,0,1-.395,2.045,21.547,21.547,0,0,1-1.959,3.712,8.02,8.02,0,0,0-1.494,4.952,16.634,16.634,0,0,0,1.794,7.091,11.874,11.874,0,0,0,2.127,2.3,3.132,3.132,0,0,1-3.229,4.949q-4.49-1.5-8.968-3.034a17.714,17.714,0,0,1-4.725-2.265,37,37,0,0,0-3.688-2.006c-4.266-2.383-6.543-6.222-7.76-10.782a3.912,3.912,0,0,1,.1-2.074c.734-2.239,1.885-4.16,4.339-4.923.834-.262,1.629-.651,2.457-.94a3.362,3.362,0,0,0,2.43-3.108c.144-1.75.191-3.512.336-5.262a5.493,5.493,0,0,1,1.809-3.7,2.3,2.3,0,0,1,2.5-.633" transform="translate(119.038 215.168)"/>
    <path id="오산" data-name="오산" d="M122.768,191.7a5.344,5.344,0,0,1-5.265,5.332q-2.894-.084-5.783-.38a9.485,9.485,0,0,0-6.1,1.043,5.869,5.869,0,0,1-1.98.622,1.1,1.1,0,0,1-.931-.321,11.328,11.328,0,0,1-1.511-2.734c-.834-2.675-1.5-5.4-2.251-8.1a14.034,14.034,0,0,0-1.55-3.889,11.774,11.774,0,0,0-6.5-5.061c-.822-.274-1.662-.507-2.489-.757-.345-.109-.539-1.117-.283-1.4a7.21,7.21,0,0,1,1.075-1.122,9.8,9.8,0,0,0,3.874-4.855,4.724,4.724,0,0,1,3-2.766c1.146-.427,2.357-.678,3.535-1a3.648,3.648,0,0,1,3.488.651,11.672,11.672,0,0,0,6.19,2.663,6.861,6.861,0,0,1,1.511.436,2.742,2.742,0,0,1,1.756,1.818,50.29,50.29,0,0,1,1.682,8.782c.124,1.22.227,2.445.4,3.662a2.463,2.463,0,0,0,3.014,2.192c1.2-.106,2.5-.716,3.5.321a5.783,5.783,0,0,1,1.659,4.3,4.649,4.649,0,0,1-.044.577" transform="translate(171.266 323.286)"/>
    <path id="광명" data-name="광명" d="M71.626,129.6c.2-.954.439-2.154.713-3.347a2.113,2.113,0,0,1,1.311-1.529q4.609-1.9,9.23-3.774a1.551,1.551,0,0,1,2.183.81,10.613,10.613,0,0,1,.787,1.938,9.325,9.325,0,0,0,3.538,5.671,4.392,4.392,0,0,1,1.588,2.663q1.277,5.643,2.392,11.313a2.131,2.131,0,0,1-.4,1.467,11.349,11.349,0,0,1-1.791,1.912,21.058,21.058,0,0,0-5.421,6.369,2.742,2.742,0,0,1-2.513,1.623,6.907,6.907,0,0,0-3.456,1.084,1.83,1.83,0,0,1-2.675-.816c-.851-1.326-1.7-2.66-2.428-4.063a12.087,12.087,0,0,1-1.491-7.607,15.868,15.868,0,0,0-1.022-8.773c-.642-1.526-.265-3.129-.542-4.943" transform="translate(139.386 235.047)"/>
    <path id="군포" data-name="군포" d="M88.434,138.484a17.655,17.655,0,0,1,6.761,1.894,2.934,2.934,0,0,1,1.688,1.915,17.489,17.489,0,0,1,.6,3.609A4.258,4.258,0,0,1,95.6,150a4.692,4.692,0,0,0-2.313,3.355,8.367,8.367,0,0,1-2.878,4.879c-1.019.952-1.974,1.971-2.993,2.928-.412.389-1.514-.077-1.8-.613a6.12,6.12,0,0,1-.486-3.073,5.4,5.4,0,0,0-1.706-4.251,16.987,16.987,0,0,1-4.228-7.177,1.76,1.76,0,0,1,.539-1.906c1.532-1.432,3.079-2.849,4.613-4.281a4.371,4.371,0,0,1,4.083-1.382" transform="translate(153.938 269.281)"/>
    <path id="과천" data-name="과천" d="M116.556,139.009a24.245,24.245,0,0,0-2.118,4.378,3.615,3.615,0,0,1-3.37,2.828,17.982,17.982,0,0,1-3.668.2,7.813,7.813,0,0,0-4.086.792c-.778.407-1.614.7-2.413,1.063a6.21,6.21,0,0,1-3.085.527c-.527-.038-1.055-.1-1.582-.1-4.4-.032-7.129-2.563-9.1-6.16-1-1.829-.689-3.765-.13-5.642a2.694,2.694,0,0,1,1.008-1.164,5,5,0,0,1,1.414-.689c.831-.28,1.688-.48,2.531-.728,3.783-1.117,7.262-2.687,9.53-6.157a6.777,6.777,0,0,1,1.111-1.122,1.718,1.718,0,0,1,1.956-.1c.769.716,1.526,1.444,2.251,2.2a4.919,4.919,0,0,0,5.206,1.679,1.42,1.42,0,0,1,1.606,1.034,38.8,38.8,0,0,0,1.158,4.033,24.456,24.456,0,0,0,1.785,3.126" transform="translate(168.286 246.51)"/>
    <path id="구리" data-name="구리" d="M113.36,110.983a7.547,7.547,0,0,0-1.768-4.717c-.46-.527-1-.981-1.455-1.517a2.216,2.216,0,0,1-.4-1.986,3.686,3.686,0,0,1,3.609-3.238,45.06,45.06,0,0,0,7.863-.436c1.161-.233,2.233,1.429,1.762,2.593-.465,1.14-1.04,2.236-1.458,3.385a8.625,8.625,0,0,0,1.143,8.487c1.14,1.558,2.357,3.058,3.506,4.613a18.623,18.623,0,0,1,1.42,2.207,2.6,2.6,0,0,1-1.137,3.585c-4.086,1.561-7.948,3.685-12.317,4.522a35.22,35.22,0,0,0-4.955,1.712,1.215,1.215,0,0,1-1.532-.981,6.486,6.486,0,0,1-.109-3.632,10.64,10.64,0,0,1,1.956-4.272c2.154-2.475,2.734-5.645,3.724-8.626a9.973,9.973,0,0,0,.15-1.7" transform="translate(208.843 192.787)"/>
    <path id="고양" data-name="고양" d="M102.346,83.79c1.349.457,1.921,1.632,2.775,2.489a4.936,4.936,0,0,0,2.766,1.4c2.628.445,5.2.66,7.733-.589,1.723-.851,3.688-1.069,5.427-2a4.282,4.282,0,0,1,4.057.242,6.573,6.573,0,0,1,1.759,1.149c1.591,1.688,3.644,1.992,5.786,2.127a19.963,19.963,0,0,1,2.625.215c2.43.468,4.068-.707,5.368-2.534a40.136,40.136,0,0,0,2.239-3.562,3.144,3.144,0,0,1,3.568-1.588,11.849,11.849,0,0,1,1.523.377,1.3,1.3,0,0,1,.58,1.329,6.009,6.009,0,0,1-.689,1.4,9.639,9.639,0,0,0-2.045,6.387c-.065,2.28-.162,4.566-.253,6.849a12.391,12.391,0,0,1-1.311,5.064c-1.1,2.192-1.912,4.528-3.438,6.508a7.044,7.044,0,0,0-.8,1.912c-.141.386.283,1.261.657,1.326,1.547.262,3.1.46,4.652.728,2.993.516,5.147-.368,6.2-3.435a6.76,6.76,0,0,1,1.455-2.174c1.128-1.27,2.71-1.514,4.3-1.632a1.7,1.7,0,0,1,1,.271,67.531,67.531,0,0,0,9.542,5.565,1.588,1.588,0,0,1,.869,1.756c-.368,2.625-.76,5.241-2.878,7.168a4.614,4.614,0,0,0-1.343,2.8c-.168,1.034-.156,2.1-.28,3.143A1.942,1.942,0,0,1,161,127.736a3.91,3.91,0,0,1-1.6-2.024c-.253-.837-.392-1.7-.589-2.557s-.371-1.709-.636-2.542a4.116,4.116,0,0,0-4.943-2.97c-3.444.625-6.944,1.246-9.628,3.868-1.261-.292-2.428-.625-3.615-.825a2.175,2.175,0,0,0-2.207,1.155,5.39,5.39,0,0,0-.76,1.941,21.8,21.8,0,0,0-.421,4.18c.2,5.7-1.122,11.168-2.457,16.627a11.292,11.292,0,0,1-1.114,2.374,1.381,1.381,0,0,1-1.818.53,6.853,6.853,0,0,0-6.52-.675,3.7,3.7,0,0,0-3.5,1.918,2.416,2.416,0,0,1-2.31.943,8.448,8.448,0,0,1-1.573-.144,59.678,59.678,0,0,1-10.992-3.576,7,7,0,0,1-4.063-5.217,5.936,5.936,0,0,0-2.475-3.868c-5.362-4-10.3-8.487-15.252-12.968A27.464,27.464,0,0,0,72.2,117.074a15.628,15.628,0,0,1-8.028-4.8,36.639,36.639,0,0,0-5.8-5.35,12.708,12.708,0,0,1-2.121-2.321,4.379,4.379,0,0,1-1.14-2.887c.015-3.512-.23-7.041.433-10.517a1.95,1.95,0,0,1,.81-1.255c.359-.183,1.305-.044,1.373.162.5,1.488.857,3.031,1.243,4.56a2.962,2.962,0,0,0,1.63,1.945,8.1,8.1,0,0,0,7.112.445,54.361,54.361,0,0,1,10.164-2.7c3.553-.672,6.985-.675,10.223,1.2a3.111,3.111,0,0,0,1,.3,2.058,2.058,0,0,0,1.936-.563,29.334,29.334,0,0,0,2.062-2.38,68.207,68.207,0,0,1,7.954-8.414,5.912,5.912,0,0,1,1.293-.719" transform="translate(107.181 157.769)"/>
  
</svg>
