<?xml version="1.0" encoding="UTF-8"?>
<?xml-stylesheet type="text/css" href="../../../css/svg-map.css"?>
<svg version="1.0" xmlns="http://www.w3.org/2000/svg" x="0px" y="0px" viewBox="0 0 466.6 622.9">

<path id="중동" data-name="중동" d="M214.6,351.4c-1.5-5.3-3.1-10.7-5-15.9c-1.1-3-2.5-5.9-4.3-8.5c-4.7-7.2-9.6-14.4-14.6-21.4
   c-1.1-1.6-2.6-2.9-4.4-3.8c-4.9-2.4-10.1-4.3-13.9-8.4c-0.8-0.7-1.6-1.3-2.4-1.9c-1.8,2-0.1,3.3,0.8,4.7c-7.4-0.4-24.7-11.2-24.7-15
   c-1.8-0.3-3.7-0.1-5.1-0.9c-2.2-1.4-4.2-3-6-4.8c-1.9-1.7-3.6-3.4-5.5-5.1l0.3-0.3c-0.3-0.2-0.7-0.3-1-0.5c-0.4-0.2-0.7-0.4-1.1-0.6
   c-0.4-0.2-0.7-0.5-1-0.8c-0.1-0.1-0.1-0.1-0.2-0.2l-0.1,0.4c-1.6,0.3-3.6,1.4-4.8,0.8c-1.8-0.9-2.3-2.6-2.3-4.5
   c-0.3-1-0.5-1.9-0.9-2.8c-0.3-0.7-0.5-1.5-0.6-2.3l-0.1,0c-0.2-1.6-0.2-3.3-0.2-4.9c0.1-2.3-0.8-3-3.1-3c-3.5,0-7.1-0.3-10.6-0.4
   c-3.9-0.2-4-0.1-5,3.6c-0.3,1.3-0.7,2.5-1,3.8c-4.2,17.7-8.4,35.4-12.7,53.1c-3.9,16.3-8,32.5-11.9,48.7c-0.9,3.7-0.4,4.4,3.5,5.1
   c7.4,1.4,14.8,2.9,22.2,4.2c1.9,0.3,2.5,1,2.1,2.9c-1,5-1.8,10.1-2.9,15.1c-0.6,2.6,0.5,3.4,2.7,3.8c6.2,1.2,12.4,2.5,18.6,3.8
   c3.4,0.7,3.5,0.9,2.6,4.1c-2.1,7-4.2,13.9-6.3,20.9c-0.5,1.5-0.5,2.6,1.5,2.6c1.6,0,1.8,0.9,1.4,2.3c-0.6,1.8-1.1,3.6-1.6,5.5
   c-0.1,0.6-0.1,1.7,0.3,1.8c2.4,1.2,4.8,2.7,7.4,3.3c11.1,2.5,22.4,4.7,33.6,7c2.3,0.5,4.5,0.9,7.4,1.5c-0.3-0.5-0.6-0.9-1-1.3
   c-3.1-2.3-5.4-5.5-6.6-9.1c-3.9-10.9-7.7-21.7-11.4-32.7c-0.4-1.4-0.7-2.9-1-4.4c0.3,0.1,0.6,0.3,0.9,0.4c0.9-0.9,1.9-1.8,3-2.6
   c0.7-0.5,1.5-0.7,2.3-0.7c2.8,0.5,5.6,1.1,8.4,1.9c0.8,0.4,1.4,1.1,1.6,2c-0.1,2,1.2,2.3,2.6,2.5c1.3,0.2,2.7,0.9,3.4-1.1
   c0.5-0.9,1.2-1.6,2.1-2c2.7-1.4,5.5-2.8,8.4-4c1.1-0.3,2.2-0.3,3.2,0c1.6,0.3,3.1,0.9,4.8,1.4c0.4-1.8,0.7-3.3,0.9-4.7
   c0.4-1.9,1.1-2.6,2.9-1.3c2.9,2.1,5.9,3.9,8.8,5.8c0.7,0.4,1.5,0.7,2.3,0.9c-2.2-2.7-0.7-4.1,0.6-5.6c1-1.3,2.2-2.5,3.1-3.8
   c1.6-2.2,3.8-4.3,4.5-6.9c2.1-7.5,3.7-15.1,5.2-22.8C215.1,354.6,215,353,214.6,351.4"/>
<path id="약대동" data-name="약대동" d="M152.9,257.8c-0.2,0-0.4-0.1-0.4-0.3c0-0.2,0.1-0.3,0.2-0.4c-1.1-2.7-3.8-3.9-5.6-5.9
   c-0.9-1.1-2.3-1.7-3.8-1.6c-3.4,0-3.5-0.1-3.5-3.6c0-0.6-0.1-1.2,0-1.8c0.2-2.2-0.2-3.8-3-3.3c-1.5,0.2-3.1-0.2-4.7,0
   c-1.7,0.2-2.4-0.2-2.9-2c-0.3-1-1.9-1.9-3.1-2.3c-0.5-0.2-1.5,1.1-2.2,1.7c-0.7,0.6-1.2,1.4-1.8,2.1c-0.3-0.2-0.5-0.3-0.8-0.5
   c1-2.1,2.1-4.2,3.2-6.5c-0.5-0.2-1.1-0.3-1.6-0.4c-6.8-0.2-13.5-0.3-20.3-0.6c-2.3-0.1-2.9,0.9-2.8,2.9c0.1,4.1,0.1,8.3,0,12.4
   c0,1.7,0.7,2.3,2.3,2.4c4.5,0.1,9,0.2,13.5,0.5c1,0.1,2.6,0.9,2.7,1.5c0.2,2.3,0.3,4.6,0.1,6.9c0,0,0,0.1,0,0.2
   c0,0.9,0.2,1.8,0.6,2.6c0.4,1.1,0.8,2.2,1,3.4c0,0.1,0,0.1,0,0.2c0.8,2.6,1.6,5,6.7,1.3l-0.1,0.4c0.1,0,0.1,0.1,0.1,0.2
   c0,0.1,0.1,0.2,0.2,0.3c0.1,0.1,0.2,0.2,0.3,0.3c0.3,0.2,0.6,0.4,0.9,0.6c0.3,0.2,0.7,0.4,1,0.6c0.4,0.2,0.7,0.4,1.1,0.5
   c0.1-0.1,0.1-0.1,0.2-0.2c0.3,0.7,0.5,1.6,1.1,2c4.5,3.3,7.8,8.8,14.6,8.5c2.6-0.1,3.6,1.5,3,3c4.8,5.7,11.2,9.8,18.5,11.6
   c0.2-0.8,0.3-1.3,0.4-1.8c0.7-2.6,1.7-3,3.7-1.2c1.6,1.4,2.9,3.1,4.7,4.1c3.7,2.2,7.6,4,11.5,6c0.2-0.2,0.3-0.5,0.5-0.7
   c-1.1-2.1-2.3-4-3.6-5.9c-5.4-6.7-7.6-14.4-7.7-22.9c0-4-1.6-6.4-5-6.8c-3.8-0.4-5.7-2.4-6.7-5.8c-0.5-1.7-1.6-2.1-3.2-1.4
   c-0.7,0.3-1.4,0.6-2.1,0.8c0,0.2-0.2,0.4-0.4,0.3c0,0-0.1,0-0.1,0l-0.1-0.1l-0.4,0.1c0-0.1,0-0.2,0.1-0.3c-1-0.3-2-0.2-3-0.5
   c-0.5-0.1-1-0.3-1.6-0.4c-0.4-0.1-0.8-0.2-1.2-0.1"/>
<path id="삼정동" data-name="삼정동" d="M99.6,228.7c-0.1,2.1,0.4,2.6,2.4,2.6c7,0.1,14,0.3,21,0.5c0.8,0,1.5,0.1,2.3,0.2
   c0.7,1.5,0.9,2.8,1.6,3.3c1.6,1.1,3.8,1.4,3.9,4c0,0.2,1,0.6,1.5,0.6c0.9,0.1,1.9,0.1,2.9,0.1c5.6,0,5.7,0,5.7,5.5
   c0,2.1,0.8,3.1,2.9,2.9c1.9-0.4,3.9,0.6,4.7,2.3c0.7,0.8,1.4,1.5,2.3,2.1c1.2,1,2.1,2.5,2.3,4.1c1,0,2,0.2,2.9,0.6
   c1.1,0.3,2.2,0.2,3.2,0.5c0.1-0.1,0.2-0.2,0.3-0.2c1.9-0.7,3.9-1.5,5.9-2.1c4-1.2,4.3-1.7,2.5-5.3c-0.5-1.1-1.2-2.1-1.8-3.2
   c-4.6-8.2-9.3-16.2-9.2-26.1c0-2.1,0.6-2.5,2.5-2.5c3.9,0.1,7.8,0.1,11.7,0c3.4,0,3.7-0.1,3.5-3.4c-0.4-4.7,1-9.4,3.9-13.1
   c1.6-2.1,2.8-4.5,4.4-7.1c-0.9-0.2-1.9-0.2-2.8-0.2c-2.6,0.3-3.4-1-3.4-3.3c0-0.6-0.1-1.2,0-1.8c0.3-3.3-1.4-6.5-4.4-8
   c-4.6-2.4-6.2-6.6-6.4-11.1c-0.3-5.7-2.2-10-7.4-12.6c-0.7-0.4-1.3-0.9-1.9-1.4c-3.5-2.8-3.9-2.8-7.7-0.3c-1.2,1-2.8,1-4.1,0.2
   c-1.2-0.8-2.4-1.7-3.7-2.4c-1.4-0.9-2.8-1.6-4.4-2.1c-4.5-0.9-9.1-1.6-13.7-2.4c-1.4-0.2-1.9-0.7-1.5-2.3c0.8-3,1.3-6.1,1.8-9.2
   c0.1-0.8-0.6-2.3-1.1-2.4c-2.4-0.3-2.9-2.1-3.9-3.8c-1-1.8-2.1-3.5-3.4-5c-0.8-0.9-2.2-1.3-3.3-2c-2.4-1.6-4.9-3.3-7.4-5
   c-0.8,3.6-1.9,6.7-2.2,9.8c-0.4,3.8-0.1,7.7-0.1,11.6c0.1,1.1,0.1,2.3-0.2,3.3c-0.8,1.9-1.6,3.6,0.3,5.3c0.2,0.2,0,0.8,0,1.2
   c-0.4,2.9-0.8,5.8-1.1,8.6c-0.2,2.6-0.3,5.1-0.2,7.7c0,2.6,0.5,5.1,0.3,7.7c-0.2,4.4-1.1,8.8-1.1,13.1c0,5.5,0.7,11,0.9,16.5
   c0.2,4.2,0,8.3,0,12.5c0,2.1-0.6,4.1-1.9,5.7C98.2,224.3,99.8,226.9,99.6,228.7"/>
<path id="상동" data-name="상동" d="M31.4,252.3c1.4,0,2.9,0.2,4.2,0.6c2.2,0.9,4.3,1.9,6.3,3.2c1.9,1.3,2.8,1.2,3.2-1.1
   c0.5-2.4,1.2-3.7,4.1-3.9c2.5-0.2,5-1.8,7.4-3c1.5-0.8,0.7-1.9-0.2-2.7c-1.4-1.4-1.4-1.4-0.4-3.4c2.3,2.9,4,1.4,5.7-0.8
   c0.7-0.6,1.6-0.7,2.4-0.4c2,1.2,3.9,0.8,6,0.9c3.2,0.1,7-0.3,9.6,3.1c1,1.2,3.6,1.2,5.4,1.6c1.8,0.6,3.6,0.9,5.4,1
   c2.7-0.3,5.5-0.7,8.2-1.3c0,2.1-0.2,4.1-0.6,6.1c-3.9,16.3-8,32.5-12,48.7c-3.6,14.6-7,29.2-10.5,43.8c-1.6,6.6-3.2,13.1-5,20.1
   c1.7,0.7,3.5,1.3,5.3,1.8c7.1,1.4,14.1,2.6,21.2,3.8c2.2,0.4,2.8,1.3,2.3,3.5c-1.1,4.8-1.7,9.7-2.8,14.6c-0.6,2.5,0.4,3.3,2.6,3.7
   c6.3,1.2,12.6,2.6,18.8,3.9c3.3,0.7,3.4,0.8,2.5,3.9c-2,6.5-3.9,12.9-5.9,19.4c-1.2,3.9-1.3,3.9,2.9,5.1c-0.8,2.6-1.6,5.2-2.4,7.8
   c-0.3,0.4-0.7,0.7-1.2,0.7c-5.3-1.1-10.6-2.4-15.9-3.5c-1.8-0.3-3.7-0.5-5.6-0.5c-2.3-0.2-4.6-0.2-6.9-0.4c-4.3-0.3-8.6-0.5-12.9-1
   c-4.4-0.5-8.7-1.3-13.1-1.8c-3.6-0.4-7.2-0.4-10.8-0.8c-10.1-1.1-20.1-2.2-30.2-3.3c-4.6-0.5-9.1-1-13.7-1.3
   c-1.7-0.1-2.5-0.7-2.5-2.5c-0.1-4.6-0.1-9.1-0.5-13.7c-0.4-5-1.3-9.9-1.7-14.9c-0.6-6.9-0.5-13.6,1.9-20.4
   c3.5-10.2,5.8-20.8,8.4-31.3c0.4-2.1,0.2-4.3-0.5-6.4c-3-8.5-4.1-17.3-5.7-26c-0.3-1.8-0.1-3.6-0.3-5.4c-0.3-1.4-0.6-2.8-1-4.2
   c-0.6-2.2-1.2-4.5-1.7-6.7c-0.1-0.4,0.3-1.1,0.7-1.5c0.4-0.3,0.9-0.6,1.3-0.8c5.5-2.5,9.5-7.4,10.7-13.4c1.5-6.4,4.1-12.5,6.5-18.6
   c0.6-1.7,2.2-3,3.4-4.5c1.4,1.6,2.3,3.1,3.6,4C29.6,255.4,30.6,253.4,31.4,252.3"/>
<path id="고강동" data-name="고강동" d="M365.6,221.5c-1.6-1.9-3.3-3.5-4.3-5.4c-0.7-1.4-0.5-3.2-0.5-4.9c0-1.7,0.2-3.5,0.2-5.2
   c0.2-11.4,0.2-22.9,0.6-34.3c0.1-3.2-0.3-6.8,2.7-9.8c-3.2-0.9-6.2-1.9-9.2-2.7c-2.2-0.6-3.3-1.5-2.6-4c0.4-1.6,0-3.5,0.3-5.2
   c0.4-2.9-0.9-4.1-3.6-4.8c-9.4-2.3-13.4-11.1-9.5-19.7c0.5-1,0.9-2.1,1.2-3.1c1-3.1,0.8-3.4-2.5-4.1c-11.2-2.5-22.3-5.1-33.4-7.7
   c-0.8-0.3-1.4-1.1-1.6-2c-0.2-2.6,0.1-5.3-0.2-7.9c-0.1-1.1-1.1-2.2-1.7-3.3c-0.3-0.6-0.9-1.3-0.9-1.9c0-1.1,4.8-5,5.9-5.1
   c0.6,0,1.2-0.1,1.8-0.2c2.9-0.5,3.7-1.9,2.1-4.3c-1.3-2-0.7-2.9,0.9-4.4c5.6-5.4,12.9-5.4,19.8-6.6c2.6-0.5,5.3-0.7,7.9-1.3
   c3-0.8,6.2-0.1,8.5,2c2,1.6,4,3.4,5.8,5.3c4,4.6,9.1,7.8,14.5,10.4c2.2,1.1,4.8,1.3,7.3,1.6c4.5,0.5,8.9,0.8,13.4,1.1
   c1.2,0.2,2.4,0.2,3.6,0.1c7.6-1.5,15.3-1.2,23-0.9c0.6,0,1.2,0.1,1.8,0.3c0.4,0.2,0.7,0.3,1.1,0.6c-0.3,0.6-0.5,1.3-0.9,1.9
   c-1.2,1.7-1.3,3.8-0.5,5.7c3.6,8.2,3.9,17.5,0.6,25.8c-0.7,2-0.7,3.6,1.1,5.1c0.7,0.5,1.2,1.3,1.4,2.1c0.3,2.4,0.8,4.2,3.8,4.1
   c0.3,0,1.1,1.6,1,2.3c-0.8,5,2,8.6,4.4,12.6c1.3,2.3,2.2,4.9,3.3,7.3c1,2.4,3.5,3.9,6.1,3.7c3.7-0.1,6.4,1.8,9.1,3.9
   c0.5,0.4,1,1.5,0.8,1.9c-2.3,4-0.7,8,0.6,11.6c1.2,3.5-0.8,5.4-2.1,7.8c-0.5,0.9-1.3,1.6-2.3,2c-3.4,1-6.1,3.4-7.4,6.7
   c-0.3,0.8-0.7,1.6-1.1,2.4c-0.2,0.8-0.6,1.6-1.1,2.3c-2.8,2.7-2.6,5.2-1.4,9c1.3,4,0.3,8.7-0.1,13.1c-0.2,2.2-1.7,2.1-3.5,0.8
   c-3-2.3-5.9-4.8-9.3-6.3c-3.1-1.4-6.7-2.4-10,0.3c-0.6,0.4-1.3,0.5-1.9,0.2c-2.9-1.4-5.6-3-8.2-4.8c-3.2-2.4-4-2.5-5.4,1.1
   c-1.1,2.6-3.1,3.5-5.5,3.5c-2.3,0-4.7-0.4-7-0.4c-1,0.2-1.8,0.8-2.2,1.7c-0.2,1.1,0.1,2.5-1.4,2.5c-1.8,0-4.8,0.1-5.2-0.7
   c-1.7-4.2-4.2-2.9-6.9-1.6C366.2,221.4,365.9,221.4,365.6,221.5"/>
<path id="대장동" data-name="대장동" d="M199.6,121.5c-1.3-1.1-2.6-2.2-3.9-3.4c-1.4-1.5-2.5-1.2-3.6,0.3c-0.6,0.9-1.2,1.7-1.9,2.4
   c-0.8,0.5-1.6,0.9-2.5,1.1c-0.6,0.2-1.5,0.2-1.8,0.7c-1.1,1.9-2.4,1.4-3.9,0.7c-2.7-1.2-5.3-2.7-8.1-3.4c-2.3-0.4-4.6-0.2-6.8,0.5
   c-3.5,0.9-7,2.1-10.3,3.6c-2.4,1.1-5.1,1.1-7.5,0.1c-5.8-2.5-11.7-4.9-17.5-7.3c-0.5-0.2-1.1-0.4-1.3-0.8c-2.8-5.7-7.8-4.6-12.4-4
   c-4.2,0.5-8.2,1.8-12.3,2.8c-2.3-4.2-2.3-4.2-1.4-8.6c0.1-0.1,0.3-0.2,0.4-0.2c1.7,0.3,4.1,0.8,4.4-1.3c0.2-1.6-1.3-3.5-2.1-5.2
   c-0.5-0.7-1.1-1.4-1.7-2c0.9-0.1,1.7-0.4,2.5-0.7c1.4-0.7,3-1.3,4-2.5c0.4-0.5-0.5-2.2-0.9-3.3c-0.2-0.6-0.8-1.1-1.1-1.8
   c-0.8-1.5-0.6-2.5,1.4-3.1c1.1-0.3,2-1.3,3-2c-0.6-1-1.3-1.9-2-2.8c-1-1.1-2.2-2.1-3.8-3.6c5.2,0.2,7.9-3.1,11.2-5.1
   c1.8-1.1,1.3-3.2-0.8-3.9c-1.7-0.5-3.4-0.9-5.7-1.5c0.7-0.5,1.4-1,2.1-1.4c2.3-0.8,2.5-2.5,2.3-4.6c0-1.2,0.1-2.4,0.4-3.6
   c0.3-2,1.2-4,1-5.9c-0.4-2.8,0.2-5.6,1.6-7.9c1.4-1.8,2-4.1,1.6-6.3c0-1.4,0.6-2.7,1.6-3.6c2.2-2.1,1.4-3.5-0.7-5
   c-0.6-0.6-1.2-1.3-1.7-2c2.2,0.3,4.4,0.4,6.6,0.3c1.3-0.1,2.4-0.9,3.1-1.9c0.7-1.6-0.5-3.1-2.2-3.5c-1.8-0.5-3.7-0.7-5.8-1.1
   c1.4-1,2.8-2.1,4-3.3c2.1-2.2,5.1-3.9,5.2-7.7c0-0.8,1.3-1.5,2-2.3c1.2-1.3,2.6-2.1,1.8-4.6c-0.6-1.9,1.8-2.6,2.9-2.8
   c0.4,2.6,0.8,5.2,1.2,7.7c0.1,0.9,0.1,1.7,0,2.6c-0.5,3.3,0.9,5.4,4.2,6.1c0.8,0.2,1.7,0.3,2.6,0.5c3.2,0.6,4.3,2.7,4.7,5.7
   c0.2,2.1,2,4,3,6c1,1.6,1.8,3.3,2.4,5.1c1.2,3.8,4.2,4.9,7.6,3c2-1,4.1-1.7,6.2-2c2.1-0.3,4.3-0.5,6.5-0.5c2.7-0.2,8.8,3.7,9.8,6.3
   c0.9,2.4,1.9,4.7,3,6.9c0.6,1,1.6,1.7,2.7,1.9c6.5-0.1,12.5,2.5,18.7,3.9c0.6,0.2,1.1,0.3,1.7,0.3c1.4,0,2.7-0.1,4.1,0
   c2.9,0.2,5.8,0.4,8.7,0.6c2.9,0.2,5.8,0.5,8.7,0.8c1.1,0.2,2.2,0.2,3.4,0.1c2.5-0.6,3.8,0.8,5.2,2.5c1.8,2.2,3.6,4.6,5.9,6
   c4,2.5,8.3,4.4,12.5,6.7c0.5,0.3,1.1,1.6,0.9,2c-1.8,3.1-0.7,6,0.5,8.7c0.7,1.1,1.7,1.8,2.9,2.1c3.4,0.9,6.9,1.5,10.4,2.2
   c2.3,0.4,2.3,0.9,1.2,2.9c-1.2,2.5-3.2,4.5-5.7,5.8c-0.6,0.4-1.2,0.9-1.8,1.5c4.4,3.1,4.4,7.1,3.7,11.6c-0.4,2.7,0.4,5.6,0.7,8.4
   c0.1,1.1,0.4,2.3,0.7,4c-1-0.2-2-0.5-3-0.9c-12.1-5.2-24.2-10.4-36.2-15.8c-1.9-0.8-2.9-0.7-4,1.1c-0.7,0.8-1.7,1.3-2.7,1.4
   c-3.9-0.2-5.1,0.6-7,4.2c-0.2,0.5-1.6,0.8-2.3,0.7c-2.4-0.5-4.7-1.4-7.2-1.8c-0.6-0.1-1.8,0.9-2.1,1.6c-1.4,3.5-4.1,5.4-7.2,7
   c-0.7,0.4-1.4,1-1.9,1.6C200.9,119.3,200.3,120.4,199.6,121.5"/>
<path id="오정동" data-name="오정동" d="M103.7,118.4c-0.7,1-1.1,1.5-1.5,2.2c-1.7-1.5-1.5-3,0.2-3.5c6.5-1.7,13-3.2,19.6-4.3
   c2.9-0.5,5.9,0.2,7.7,3.5c0.6,1.2,2.7,1.7,4.2,2.3c5.6,2.4,11.1,4.8,16.9,6.8c1.7,0.6,4.1,0.2,6-0.4c4.6-1.3,9-3.1,13.6-4.3
   c1.4-0.4,3.3,0.4,4.9,0.9c3,1,5.9,2.4,9,3.4c0.7,0.2,1.9-0.8,3.4-1.5c3.8,1.2,3.5-4.2,7-5.5l4.9,4.5c-0.2,0.2-0.4,0.4-0.5,0.6
   c0.2-0.1,0.6-0.1,0.7-0.2c1.6-3.4,5.3-4.8,7.6-7.5c0.5-0.6,1.1-1.1,1.8-1.4c1.4-0.3,2.4-1.5,2.4-2.9c0.1-1.6,1.1-2,2.6-1.5
   c2.1,0.7,4.3,1.1,6.4,1.8c1.7,0.5,2.6-0.2,3.1-1.8c1-2.7,2.5-3.7,5.3-3.3c1.8,0.3,3.1-0.1,3.9-1.7c0.8-1.5,1.8-1.5,3.2-0.8
   c12.6,5.5,25.3,10.9,37.9,16.6c1.5,0.9,2.7,2.3,3.3,4c3.5,11.2,6.8,22.4,9.9,33.7c0.9,3,2.5,5.7,4.8,7.9c2.1,2.1,3.6,4.7,6.9,5.5
   c2.2,0.5,3.1,5.3,1.8,7.6c-0.2,0.4-0.5,0.7-0.8,1.1c-2.3,2.3-2.8,4.4-0.7,7.4c2.1,2.9,1.7,3.4-1.7,4.8c-0.6,0.4-1.2,0.6-1.9,0.8
   c-4.4,0.6-5.2,3.9-5.8,7.4c-0.4,2.8-1.1,5.6-1.5,8.4c-0.3,1.8-1.2,2.3-2.8,2c-4.6-0.9-9.1-1.9-13.7-2.8c-22.4-4-44.9-8-67.3-12
   c-0.8-0.2-1.7-0.1-2.6-0.2c-0.5-0.1-1.4-0.2-1.4-0.4c-0.6-3.6-4-2.4-6.5-4c9.5-4.1,18.1-10,25.2-17.5c-0.3-0.3-0.4-0.5-0.5-0.5
   c-3.8,1.3-7.6,0.7-11.4,0.2c-1.7-0.2-3.9,0.8-5.4,1.8c-2.7,1.9-5.4,3-8.7,1.7c-1.3-0.5-2.7-0.6-4.1-0.6c-5.8,0.2-9.8-3.4-13.9-6.7
   c-2.9-2.3-6-4.4-8.9-6.7c-2.9-2.3-5.7-4.7-8.5-7.1c-3.6-3.2-4.6-3.4-8.7-0.9c-1.4,1.1-3.4,1-4.7-0.2c-1.2-1-2.5-1.9-3.9-2.6
   c-1.6-0.7-3.2-1.2-4.9-1.5c-4.2-0.8-8.4-1.5-13.2-2.3c0.8-3.6,1.3-6.9,2.2-10c0.6-2.2-0.2-3.5-2.1-3.9c-1.9-0.4-2.7-1.7-3.2-3.3
   c-0.8-2.9-2.9-5.2-5.7-6.3c-0.5-0.2-0.9-0.4-1.3-0.7C109.4,122.4,106.7,120.5,103.7,118.4"/>
<path id="춘의동" data-name="춘의동" d="M197.8,313.1c2.1,0,3.4,0,4.8,0c7.8,0.1,15.6,0.8,23.4,0.3c5.4-0.4,10.8-2.6,16.1-3.9
   c0.7-0.2,1.5-0.5,2.2-0.7c2.4-0.9,4.4-1,5,2.3c2-0.5,4-1.1,5.9-2c2.8-1.5,5.7-1.7,8.8-1.8c1.5-0.1,3.1-0.3,4.6-0.7
   c2.7-0.5,5.3,0.9,6.4,3.4c1.3,2.6,3.2,3.3,5.9,3.2c1.4,0,2.7,0.3,4,0.9c1.7,1.1,4,1,5.5-0.3c0.3-0.2,0.6-0.4,0.9-0.6
   c4.7-5.2,9.6-3,14.6-0.5c1,0.5,2.2,0.7,3.4,0.3c11-4.2,22.2-3.6,33.5-1.4c12.7,2.4,25.4,4.7,38.2,6.3c6.3,0.8,12.8-0.3,19.2-0.5
   c4.4-0.2,8.8-0.4,13.2-0.5c2.1-0.1,2.7,0.9,1.7,2.8c-0.4,0.8-1.1,1.4-1.4,2.1c-0.7,1.6-1.8,3.3-1.6,4.8c0.6,2.8-0.7,5-1,7.5
   c-0.6,5.1-3.1,8-7.6,10.4c-3.8,2-5.7,5.9-4.7,10.6c0.2,0.8,0.3,1.7,0.4,2.6c0.4,2.8-1,4.5-3.9,4.2c-1.9-0.2-2.9,0.7-4.3,1.8
   c-2.7,1.9-5.5,3.7-8.4,5.3c-0.6,0.2-1.4,0.2-2-0.1c-2-0.8-4.1-1.4-5.8-2.7c-2.9-2.3-6.1-1.5-9.2-1.3c-0.9,0.1-1.8,0.5-2.8,0.6
   c-5.1,0.3-9.7,3-12.6,7.2c-1.8,2.6-4.9,2.6-7.1,0.3c-1.2-1.3-3-1.8-4.7-1.3c-2.6,0.7-5,1-7.6-0.8c-1.3-0.9-3.9-0.4-5.7,0.1
   c-3.6,1-7.1,2.6-10.8,3.6c-1.7,0.4-3.6,0-5.4-0.1c-0.5-0.1-1.3-0.5-1.4-0.9c-0.6-2.8-1.4-5.7-1.3-8.6c0-2,0-3.1-2.1-3.6
   c-5.5-1.5-11.1-2.9-16.6-4.6c-3.7-1.2-7.3-2.8-11.3-4.4c-0.2,0.9-0.5,2.1-0.9,3.5c-2.2-0.5-4.6-0.3-4.7-3.6c0-0.8-1.5-1.9-2.5-2.3
   c-3.2-1.3-6.5-2.5-9.8-3.5c-2.6-0.8-5-1.8-6.7-4.2c-1-1.3-2-1.5-3.2-0.3c-5.1,4.6-10.3,9-15.2,13.8c-1.3,1.3-1.7,3.7-2.2,5.7
   c-0.5,2.2-1.3,2.9-3.8,2.5c-10.4-1.9-7.3-0.2-10.7-10.1c-2.5-7.2-4.2-14.7-7.1-21.7c-2.1-5-5.7-9.3-8.6-13.9
   C199.8,316.6,199,315.2,197.8,313.1"/>
<path id="원종동" data-name="원종동" d="M297.4,109.9c8,1.8,15.4,3.5,22.8,5.2c5.8,1.3,11.6,2.8,17.5,3.9c2.5,0.5,2.8,1.4,2,3.7
   c-1.2,3.4-2,7-2.5,10.5c-0.2,1.7,0.9,3.6,1.7,5.2c0.6,1.2,1.8,2.1,2.6,3.3c1.6,2.5,4.3,4.1,7.3,4.4c2.2,0.3,3.2,1.4,3,3.7
   c-0.2,2.1-0.2,4.1-0.5,6.2c-0.3,2.1,0.3,3.3,2.5,3.8c2.2,0.4,4.4,1.1,6.5,1.9c0.8,0.5,1.3,1.3,1.4,2.2c-0.3,7-0.8,14-1,21
   c-0.3,8.3-0.3,16.6-0.6,24.9c-0.2,1.6-0.6,3.2-1.2,4.8l-0.9,0.1c0.8,0.5,1.5,1.1,2.1,1.7c1.3,1.7,2.5,3.5,3.7,5.4
   c0.3,0.4,0.2,1.1,0.5,1.5c3.2,3.1,0.7,5.8-0.6,8.5c-0.3,0.5-0.5,0.9-0.9,1.3c-0.9,1.4-2.5,2.7-2.5,4.1c0,1.2,1.8,2.4,2.7,3.6
   c1.6,2.1-0.4,8-3.1,8.3c-3.4,0.2-6.5,2-8.4,4.9c-0.6,0.9-2.7,1.6-3.6,1.1c-1.5-0.8-2.6-2.4-4.1-3.9c1.1-0.6,1.7-0.8,1.8-1.1
   c0.6-1,1-2.2,1.2-3.3c0-0.4-1.5-1.1-2.4-1.2c-2.7-0.3-5.5-0.4-8.3-0.5c-0.6,0-1.6-0.2-1.7-0.5c-0.9-3.9-5.4-1.7-7.1-4.1
   c-0.6,0.2-1.2,0.6-1.7,1.1c-1,1.3-1.8,2.7-2.9,4.5c-1.4-2.1-2.6-3.8-3.6-5.7c-2.8-5.2-6.3-10-10.3-14.3c-2.2-2.3-1.2-5.3-1.1-8
   c0.2-3.4,0.3-3.5-3-4c-4.4-0.7-8.7-1.5-13.1-2.2c-2.1-0.3-2.7-1.3-2.2-3.4c0.8-3.6,1.2-7.2,2.2-10.7c0.6-1.4,1.6-2.5,2.8-3.3
   c1.4-0.8,2.9-1.5,4.5-2c3-1.4,3.6-2.1,1.6-4.8c-2.3-3.2-1.7-5.3,0.6-8c2.7-3.4,1.2-8.1-2.7-9.9c-4.6-2-8.1-5.8-9.6-10.6
   c-3.9-11.9-7.2-23.9-10.8-35.8c-0.5-1.6,0-2.4,1.3-3.5c4.1-3.4,9.1-5.5,14.3-6.3C295.1,113.3,297.4,113.1,297.4,109.9"/>
<path id="작동" data-name="작동" d="M425.5,301.2c-3.4,1.3-6.1,2.5-8.9,3.4c-1.9,0.6-2.7,1.7-2.5,3.7c0.2,1.6,0.3,3.3,0.5,4.9
   c0.2,1.6-0.4,2.7-2.3,2.7c-0.8,0-1.5,0.2-2.3,0.2c-7.7,0.3-15.4,0.8-23.1,0.8c-5.4-0.1-10.7-0.5-16-1.4c-8.1-1.2-16.2-2.9-24.3-4.3
   c-2.6-0.4-4.2-1.4-3.8-4.4c0.1-0.9,0-1.7-0.5-2.5c-3.1-5.2-2.2-10.8-2.3-16.4c0-2.7-1-5.4-1.7-8.1c-0.7-3.3-1.7-6.5-3-9.6
   c-1.4-3-3.3-5.8-5.6-8.2c-2.5-2.5-4.3-5.2-4.8-8.7c-0.1-0.9-0.3-1.7-0.6-2.5c-1.8-3.7-0.1-6.4,2.2-9c1.1,0.3,2.3,0.5,3.5,0.6
   c1.2-0.2,2.4,0.5,2.8,1.7c0.5,0.9,1.3,1.5,2.3,1.7c2.5,0.4,5,0.3,7.5,0.6c1.1,0.3,2.1,0.6,3.1,1.1c-0.8,0.7-1.5,1.4-2.8,2.6
   c0.8,1.8,1.7,3.5,2.8,5.1c1.5,1.6,4,1.7,5.6,0.3c0.2-0.2,0.4-0.4,0.5-0.6c2.1-3,4.6-4.8,8.3-4.8c1.7,0,2.6-1.1,3-2.7
   c0.2-0.9,0.4-1.9,0.8-2.7c1.1-1.9,0.5-4.3-1.4-5.4c0,0,0,0,0,0c-1.7-1.2-1.6-2.4-0.4-4.1c1.8-2.7,3.4-5.4,4.8-8.3
   c0.2-0.7,0-1.4-0.4-1.9c-1.8-1.5-0.9-2.3,0.7-3c2-0.9,3.8-2.2,4.9,1.3c0.7,2.2,7.4,2.5,8.6,0.6c0.5-0.8,0.4-2,0.6-3.4
   c1.4,0,2.8,0.1,4.2,0.2c5.4,0.8,7.6-0.2,10.2-4.8c0.9-1.6,1.7-1.4,3.1-0.5c2.8,1.9,5.8,3.7,8.8,5.4c0.8,0.4,1.8,0.5,2.7,0.2
   c5.4-2.6,9.5-1.9,14.1,2.1c2,1.8,4.5,3,6.6,4.7c0.6,0.7,0.8,1.6,0.6,2.5c-2.4,4.9-3.5,10.4-7.4,14.4c-0.3,0.3-0.5,0.7-0.9,1
   c-4.2,3.7-3.5,8.3-2.1,12.9c0.2,0.8,0.6,1.4,1.2,2c4.7,3.1,3.5,7.8,3.1,12.1c-0.4,3.9-1.5,7.8-2.1,11.7c-0.2,1.3,0.4,2.8,0.6,4.2
   c0.2,1.3,0.7,2.8,0.3,3.9C423.2,295.7,421.7,298.6,425.5,301.2"/>
<path id="역곡동" data-name="역곡동" d="M291.1,464.2c4-3.4,1.3-7.6,2.8-11.1c3.2-0.1,7.2,2.2,8.3-1.8c-0.1-2.6-0.4-5.2-0.8-7.7
   c-0.7-3.1-1.6-6.2-2.7-9.2c-0.4-1-1.2-1.7-2.2-2c-3.7-0.6-6.7-3.4-7.5-7.1c-0.4-0.9-1.1-1.7-2-2.2c-2.2-1.5-4.5-2.9-6.9-4.2
   c-1.3-0.7-1.8-1.6-1.1-2.9c1.4-2.8,2.6-5.7,4.2-8.3c1.9-3,4.6-4.3,8.4-4c4.1,0.3,4,0.1,4.8-3.9c0.4-1.9,1.2-3.7,1.8-5.6
   c0.4-1.3,1.1-2.7,1-4c-0.4-3.1,1.3-4.8,3.4-6.7c1.6-1.6,3-3.5,3.9-5.6c0.8-1.5,1.6-2.5,3.3-2.2c5.2,0.8,9.7-0.9,14.2-3.1
   c2.5-1.2,4.9-1.9,7.7,0c1.4,1,4,0.5,6,0.3c1.9-0.2,3.5-0.3,4.9,1.3c1.9,2.1,5,2.3,7.1,0.4c0.3-0.2,0.5-0.5,0.7-0.8
   c4.2-6.4,10.8-7.2,17.4-8.2c1,0,2,0.1,3,0.4c0.2,3.1-0.4,5.5-2.7,7.4c-2.6,2.2-3.7,4.6-1.8,7.9c1.4,2.5,2.6,5.1,3.6,7.7
   c0.7,1.7,1.1,3.4,1.3,5.2c0.5,4,1.2,4.8,5,5.4c0.9,0.2,1.7,0.7,2.2,1.4c4,4.6,8.4,8.6,14.8,9.5c1.2,0.3,2.3,0.8,3.2,1.5
   c2.2,1.5,4.3,3,6.5,4.6c-3.7,3.5-7.7,7.3-11.6,11c-2.9,2.8-5.9,5.4-8.5,8.4c-5,5.7-11.4,8.9-18.2,11.6c-10.9,4.2-21.8,8.4-32.7,12.6
   c-5.2,2-10.4,3.7-15.7,5.5c-3.2,1.2-6.6,1.5-10,0.9C301.5,465.6,296.6,465,291.1,464.2"/>
<path id="도당동" data-name="도당동" d="M250,310.4c-0.8-4.7-3.2-3.4-5.5-2.7c-5.4,1.5-10.8,3.2-16.3,4.5c-2.4,0.4-4.8,0.5-7.2,0.3
   c-7-0.1-14-0.4-21-0.4c-2.4,0.2-4.6-1-5.9-3.1c-1.4-2.2-2.7-4.4-4-6.7c-1.9-3.2-3.5-6.6-5.7-9.6c-4.5-6-6-12.8-6.4-20
   c-0.4-6-1.5-7.5-7.2-8.8c-2.6-0.6-5-3.7-4.6-6.1c0.3-0.8,1-1.5,1.8-1.9c12.2-5.4,24.6-10.5,36.7-16.1c10.7-4.9,21.2-10.3,31.6-15.7
   c9.6-4.9,19-10.1,28.5-15.1c1.1-0.5,2.3-0.7,3.5-0.5c2.7,0.3,5.5,1,8.2,1.4c1.6,0,3,1.3,3.1,2.9c0.4,2.8,1,5.6,1.5,8.4
   c-0.1,0.1-0.2,0.3-0.3,0.4c-3.8,0.8-3.8,0.8-3.9,4.9c0,3.3-0.1,6.6,0,9.9c0.1,1.6-0.4,2.4-2,2.7c-5.4,0.8-4.8,1.4-4.8,6.1
   c0,6-0.3,6.3-6.4,7.5c-0.7,0.1-1.5,1.1-1.9,1.9c-1.3,2.7-2.2,5.6-3.7,8.1c-0.6,1.1-2.4,1.6-3.7,2.2c-2.4,1.1-4.3,2-4,5.4
   c0.3,2.7-0.7,5.6-1.1,8.4c-0.4,2.5,0.9,4,3.1,4.8c2.3,0.6,3.8,2.8,3.5,5.1c-0.6,6-1.2,12-2.2,18C253.2,307.8,251.6,308.8,250,310.4"
   />
<path id="여월동" data-name="여월동" d="M278.3,310.5c0.1-0.1-0.4,0.3-1.1,0.8c-0.5-0.7-0.9-1.3-1.3-2c-2.1-3.3-4.7-4.4-8.5-3.4
   c-0.9,0.1-1.7,0.2-2.6,0.2c-3.3,0.4-6.6,0.7-10.2,1.1c0.3-1.9,0.9-4.2,1.1-6.6c0.4-4.5,0.6-8.9,0.7-13.4c0.1-2.1-1.3-4-3.4-4.4
   c-2-0.4-3.2-2.3-2.8-4.3c0.4-3.4,0.6-6.8,1.2-10.2c0.1-0.8,1.4-1.8,2.4-2.1c5.3-1.6,6.9-6.1,8.5-10.6c0.4-0.8,1-1.5,1.8-1.9
   c0.7-0.4,1.7-0.4,2.5-0.8c1.5-0.7,3.3-1.3,4.2-2.5c0.7-1,0.2-2.8,0.2-4.3c0-1,0.1-1.9,0-2.9c-0.3-1.4,0.6-2.8,2-3.1
   c0.2,0,0.4-0.1,0.6-0.1c0.7-0.1,1.3-0.3,2-0.5c1.8-0.3,2.4-1.2,2.3-3.3c-0.3-3.5,0-7.1-0.1-10.7c0-1.9,0.5-3,2.6-2.9
   c1.9,0.1,2.3-0.6,1.6-2.6c-0.9-2.8-1.3-5.8-2.1-9.3c2.4,0.3,4.4,0.6,6.3,0.9c6.1,1,12.1,2.1,18.2,3c1.8,0.3,2.3,0.9,2,2.7
   c-0.9,4.8,0.8,8.5,4.2,12.3c4.2,4.6,7.2,10.4,10.4,15.8c1.3,2.3,2.3,4.8,2.8,7.4c0.7,3.7,2.6,7.2,5.4,9.8c2.6,2.6,5.3,5.4,5.7,9.6
   c0.2,2.4,1.4,4.6,2.2,6.9c1.2,3.4,2.5,6.8,1.5,10.6c-0.1,1,0,2.1,0.3,3.1c0.6,4.2,0,8.6,2.6,12.4c0.3,0.4,0,1.2,0.1,1.8
   c0.3,2.3-0.7,2.8-2.9,2.4c-9.8-2.1-20-1.4-29.4,2c-1.1,0.3-2.2,0.2-3.2-0.2c-2.8-1.1-5.5-2.5-8.3-3.6c-0.7-0.1-1.4,0.1-2,0.5
   c-2.1,1.4-4.1,2.9-6.2,4.3c-1.3,1-3,1.1-4.3,0.2c-1.2-0.7-2.6-0.7-3.9-1.2C280.5,311.6,279.7,311.1,278.3,310.5"/>
<path id="원미동" data-name="원미동" d="M277.6,354.3c2.9,1,6.4,2.3,9.9,3.3c5.3,1.6,10.6,3,15.8,4.6c0.8,0.3,1.4,1,1.6,1.8
   c0.4,2.3,0.2,4.8,0.8,7.1c1.3,5.3-0.5,9.2-4.6,12.2c-2.2,1.3-3.4,3.8-3.1,6.4c0,1.1-0.2,2.2-0.5,3.3c-0.7,2.5-1.5,5-2.5,7.5
   c-0.3,0.8-1.5,2-2.2,1.9c-8.1-1-11.1,4.7-13.7,10.6c-1.2,2.7-2.1,4.8-5.5,5.3c-1.4,0.2-2.8,1.9-4,3.1c-1.4,1.6-3.4,2.5-5.5,2.4
   c-0.9,0.1-1.9,0.3-2.8,0.5c-2,0.4-4,0.6-6.1,0.6c-3.4-0.3-3.9-0.1-5,3c-0.5,1.3-1,2.6-1.6,4.1l-2.4-1.3c-0.5,1.7-1.1,3.4-1.6,5
   c-3.1-1.1-5.6-5.8-5-9c0.1-1.1-0.2-2.2-0.9-3.1c-5.9-6.2-12-12.2-17.9-18.4c-1-1.1-1.6-2.5-1.5-4c2.1-11.2,4.5-22.4,6.7-33.7
   c0.4-2,1-3,3.2-2.4c1.3,0.4,2-0.2,2.1-1.5c0.1-5.4,3.3-8.7,7.3-11.8c3.5-2.7,6.7-5.8,9.9-8.8c1.1-1,2-1.2,2.8,0
   c1.7,2.6,4.5,3.3,7.2,4.2c3,1,6,2.1,9,3.4c0.8,0.4,2.1,1.3,2.1,2c-0.2,3.9,3.1,3.1,5.1,3.9C275.1,356.8,276.3,355.3,277.6,354.3"/>
<path id="심곡동" data-name="심곡동" d="M146.9,397.7c2,0.2,3.5,0,3.8-2.2c0-0.3,1.4-0.6,2-0.5c1.6,0.2,3.2,0.7,4.8,1
   c1.9,0.3,3.9,0.4,3.3,3.3c-0.1,0.4,0.8,1.3,1.4,1.5c1.3,0.3,2.5,0.6,3.8,0.8c1.3,0.3,2-0.1,2.5-1.5c0.4-1,1.2-1.8,2.1-2.3
   c2.5-1.5,5.2-2.7,8-3.6c1.5-0.4,3.3,0.2,5,0.6c3.5,1,3.5,1.1,4.2-2.5c0.2-1,0.5-2,0.8-3.3c2.8,1.7,5.3,3.2,7.7,4.8c1,0.7,2,1.4,3,2
   c0.6,0.3,1.8,0.4,2.1,0.1c0.5-0.7,0.6-1.5,0.4-2.3c-0.9-1.3-0.3-2,0.5-2.9c2.2-2.7,4.3-5.4,6.5-8.1c3.1-3.8,2.9-8.6,4-13
   c1.1-4.2,2-8.4,3.1-13.1c0.3,0.5,0.5,0.9,0.7,1.5c0.5,3.8,2.7,5.8,6.6,6c2,0.1,2.3,1.2,1.9,3.1c-2.3,11.3-4.5,22.6-6.9,33.9
   c-0.5,1.6,0,3.3,1.3,4.4c5.9,6,11.7,12.1,17.5,18.1c0.9,1,1.4,2.3,1.4,3.6c0.2,3,1.4,5.9,3.4,8.1c2.5,2.3,3.6,5.8,2.8,9.2
   c-0.6,3.7,0.2,6.5,2.9,8.9c2.5,2,4.1,4.8,4.7,8c-1.2,0-2.4-0.1-3.6-0.2c-2.9-0.6-5.7-1.3-8.6-2c-10.2-2.5-20.4-5.3-30.7-7.6
   c-4.7-1.1-9.6-1.3-14.3-2.1c-5.5-1-11-2.2-16.5-3.4c-1.7-0.5-3.5-0.9-5.3-1.1c-7-0.3-11.2-4.4-13.6-10.4c-3.1-7.8-5.7-15.8-8.5-23.7
   c-1.3-3.6-2.5-7.2-3.7-10.8C147.1,399.1,146.9,398.4,146.9,397.7"/>
<path id="내동" data-name="내동" d="M184.7,194.2c-2-0.2-3.2-0.4-4.5-0.4c-1.6,0-2.5-0.7-2.3-2.4c0.4-5.5-2.3-9.1-6.8-11.9
   c-1.4-0.9-2.4-2.9-3.1-4.6c-1.4-3.3-1.9-6.9-1.3-10.4c3.3,2.6,6.3,4.7,8.9,7.1c4,3.7,8.4,6.1,13.9,6c0.7,0,1.4,0,2.1,0.2
   c4.5,1.7,8.2,0.6,12-2.4c1.3-1,3.9-0.6,5.9-0.5c2.2,0.1,4.4,0.4,6.5,0.7c-6.6,6.7-15,11.7-24.1,15.5c0,0.3,0,0.5,0,0.8
   c1.3,0.5,2.6,0.9,3.9,1.3c1.7,0.3,3.1,0.8,2.4,2.7l65.3,11.8c0,0.2,0.1,0.5,0.1,0.7c-3.8,2.1-7.5,4.1-11.3,6.1
   c-10.8,5.8-21.6,11.8-32.6,17.3c-10.2,5-20.7,9.3-31.1,13.9c-5.3,2.4-10.7,4.6-16,6.9c-1.3,0.6-2.2,0.6-2.9-0.9
   c-3.9-7.4-8.6-14.5-10.8-22.7c-0.5-2.6-0.8-5.3-0.6-7.9c0-0.4,1.4-1.3,2.2-1.3c4.2-0.1,8.3-0.1,12.5,0c1.9,0,3.2-0.6,2.8-2.7
   c-1.2-7.4,2.4-13.2,6.4-18.9C182.9,197.2,183.6,196.1,184.7,194.2"/>
<path id="소사동" data-name="소사동" d="M246,432.5c2.7,1.8,3.6,1,3.9-0.8c0.1-0.3,0.1-0.5,0.2-0.7c1.7-4.9,1.7-4.2,6.7-4.8
   c5.1-0.6,10.8-0.3,14.7-5.1c2.4-3,5.1-3,8.3-1.1c1.6,0.9,3.1,1.9,4.7,2.7c1.9,1,3.3,2.7,4,4.7c1.2,3.2,4,5.5,7.3,6.1
   c0.8,0.2,1.5,0.7,1.9,1.5c0.8,2.8,1.5,5.6,2,8.4c0.3,1.7,0.1,3.5,0.5,5.1c0.7,2.4-0.3,3.9-2.8,3.8l-0.2,0c-5.1-0.4-5.1-0.4-5.1,4.6
   c0,0.9,0,1.7,0,2.6c0,1.5-0.6,2.2-2.2,2.2c-11.3,0-22.5,0-33.8,0c-2.1,0-2.7-1.5-3.6-2.9c-1.6-2.4-3.3-4.8-5-7.1c-0.7-1-1.9-2-1.9-3
   C245.7,443.7,245.9,438.6,246,432.5"/>
<g id="범박동">
   <path id="범박동-1" data-name="범박동" d="M378.1,586c1.6-0.9,3.6-2.3,4.9-1.9
	   c4,1.3,6.4-0.9,8.5-3.2c1.5-1.7,1.5-4.7,4.6-5c0.3,0,0.5-0.7,0.7-1c0.7-1.2,1.2-2.5,1.8-3.8c0.3-1,0.5-2.1,0.7-3.1
	   c-1.2-0.3-2.4-0.5-3.7-0.5c-2.1,0.2-4.2,0.9-6.3,1.1c-1.4,0.1-2.1-0.6-2.7-2.1c-0.6-1.6-2.3-2.8-3.4-4.2c-0.5-0.6-0.9-1.7-0.7-2.3
	   c0.5-1.7,2.2-2.8,4-2.6c3,0.1,3.9-1.5,3.1-4.4c-0.3-1.8-1.9-3-3.7-3c-3-0.2-6.2-0.1-7.7-3.6c-0.1-0.3-0.7-0.5-1-0.7
	   c-1.7-1.2-3.4-2.4-5-3.7c-0.5-0.5-0.7-1.2-0.6-1.9c1.4-3.6,2.8-7.1,4.3-10.6c0.4-0.6,0.9-1.2,1.4-1.7c0.2,0.1,0.5,0.3,0.7,0.4
	   c-0.3,1.3-0.8,2.5-1.3,3.7c-1.2,2.1-0.4,3.1,1.6,3.9c2.5,1,4.8,2.4,7.3,3.3c6.1,2.1,11.3,6.2,14.9,11.5c0.8,1.2,1.6,1.9,3.2,1
	   c0.4-0.2,1.4,0.2,2,0.5c0.7,0.5,1.4,1,2,1.6l0,0c1.4-3.7,1-4.8-2.2-6.2c-0.9-0.3-1.6-0.9-2.1-1.6c-1.1-2.3-2-4.7-2.7-7.2
	   c-0.4-1.5-1.5-2.7-3-3.1c-3-1.2-6.2-2.3-8.9-4.1c-2.7-1.9-6.2-3-7.6-6.6c-0.4-0.7-1.2-1.2-2.1-1.3c-4.1,0.3-6-2.7-8.6-4.9
	   c-1.9-1.5-4.2-2.6-6.5-3.3c-2.2-0.5-4.4-0.8-6.6-0.8c-2.1-0.2-4.3-0.1-6.4-0.2c-1,0-1.9-0.3-2.7-0.9c-2.1-2.2-4.6-2.2-7.2-1.8
	   c-0.9,0.1-1.8,1.3-2.5,1.1c-3.2-0.8-5.1,1.4-7.5,2.6c-1.5,0.7-1.8,1.5-1,3c1.6,3.2,1.5,3.2-1.8,4.7c-0.6,0.2-1.1,0.4-1.7,0.7
	   c-3.2,1.4-3.5,2-2.6,5.3c0.9,3.4-0.1,5.5-3.3,7.2c-0.5,0.4-0.8,1.1-0.7,1.8c0.8,2.3,1.7,4.6,2.4,6.2c-0.2,1.7-0.3,2.9-0.4,4
	   c-0.1,0.9-0.3,1.8-0.5,2.7c-0.2,0.7-0.8,1.6-0.6,2.1c1.3,2.8,0.3,6.5,5.5,7.7c4.8,1.2,9.4,0.8,14,1.1c0.4,0,1.3-0.8,1.4-1.3
	   c0.4-2.7,1.1-3.3,3.4-1.8c0.9,0.8,1.5,1.9,1.7,3.1c1,6.3,4.4,11.9,9.6,15.6c1.5-3.5,2.7-6.6,4.2-9.6c0.5-1,1.7-1.7,2.5-2.5
	   c0.5,1.3,1.1,2.6,1.6,3.9c0.1,0.3-0.2,0.8-0.3,1.2c-0.5,2.3-1.1,4.5-1.4,6.8c-0.5,3.7,2.1,6.7,5.7,7.3c1.8,0.3,3.5,0.8,5.1,1.7
	   C375.3,587.1,376.5,586.8,378.1,586z"/>
   <path id="범박동-2" data-name="범박동" d="M422.1,609.2c-0.7,0.2-1.5,0.1-2,0.5
	   c-1.7,1.4-3.3,2.9-4.8,4.4c-2.2,2.3-5.4,1.8-6.6-1c-0.3-0.6-0.9-1.1-1.6-1.3c-2.1-0.5-3.1,0.6-3.9,2.5c-0.5,0.8-1.4,1.3-2.3,1.4
	   c-0.6,0-1.6-1-1.8-1.8c-0.6-2.9-2.7-5.3-5.6-6.4c-2.2-0.6-4.2-1.9-5.7-3.5c-1.1-1.3-2.1-0.7-2.2,0.8c0,1.6,0.7,3.3,0.5,4.8
	   c-0.2,1.8-0.5,4.6-1.7,5.1c-1.9,0.9-2.1-1.6-2.9-3c-1.4-2.7-3.3-4.9-6.6-5.5c0,0.4-0.2,0.8-0.1,0.9c2.3,2.9,4.4,5.9,6.9,8.6
	   c1.1,0.9,2.5,1.5,4,1.5c2.2,0.1,4.5-0.1,6.7-0.7c2.4-0.7,4.2,0.1,5.1,1.9c1.5,3,4,3.5,6.9,3.6c1.9,0,3.8,0.2,5.7,0.7
	   c0.1,0,0.2,0.1,0.2,0.1c1.5,0.4,3.1-0.5,3.5-2c1-2.7,2.7-3.9,5.6-3c0.2,0.1,0.5-0.1,0.1,0l0,0c1.1-2.3,2.1-4.1,2.8-6.1
	   C422.6,611,422.2,610.1,422.1,609.2z"/>
</g>
<g id="계수동">
   <path id="계수동-1" data-name="계수동" d="M361,614.1c-0.5-3.5-0.5-3.5-3.9-2.2
	   c-0.5,0.1-1,0.3-1.4,0.6c-0.7,0.6-1.8,1.4-1.8,2.1c0,0.2,0,0.4,0,0.6c0.2,1.2,1.4,2.1,2.6,1.9c1.5,0,2.9,0.6,4.4,1l0,0
	   c0.3,0.1,0.5,0.2,0.8,0.3C361.5,616.9,361.2,615.5,361,614.1z"/>
   <path id="계수동-2" data-name="계수동" d="M355,578c-1.2-1.2-3.1-2-3.8-3.4
	   c-2.1-4.3-6-7.7-5.8-13.1c0.1-1.7-1-2.4-2.7-2.2c-0.1,3.5-0.1,3.5-3.6,3.6c-2.4,0-4.9,0.1-7.3,0c-1.7-0.1-3.4-0.4-5-1.1
	   c-2.9-1.3-3.9-1-4.4,2.2c-0.6,4-2.7,7.1-5.3,9.9c-0.7,0.6-1.3,1.4-1.6,2.3c-0.9,4.4-3.9,6.3-7.9,7.1c-0.9,0.1-1.9,0.5-2.7,0.9
	   c-1.7,1-3.2,2.3-4.5,3.7c-1.4,1.7-0.8,3,1.3,3.8c2.8,0.9,5.4,1.9,6.7,5.2c0.7,2.2,2.7,3.7,4.9,3.7c2.9-0.2,5.9-0.6,8.7-1.3
	   c2.2-0.4,4.5-1.8,6.6-1.5c1.9,0.4,3.9-0.1,5.4-1.4c1.1-1,2.3-1.9,3.4-2.8c2-1.6,3.8-3.6,6.1-3.9l0,0l9.4-4.4
	   c0.6-0.4,1.2-0.8,1.7-1.3C356.8,582.2,357,580.1,355,578z"/>
</g>
<path id="옥길동" data-name="옥길동" d="M466.3,560.5c-0.5-4.1-0.4-8.5-3-12.2c-0.5-0.7-0.4-1.8-0.6-2.8c-1-4.3-2-8.6-2.9-12.9
   c-0.2-1-0.1-2,0.1-3c1-4,2.7-7.8,2-12.1c-0.4-2-0.5-3.9-0.4-5.9c0.2-1.4,0.8-2.6,1.7-3.7c1.2-1.4,1.2-3-0.5-4c-5-2.8-11.3-1-14.2,4
   c-0.7,1.2-1.8,2.7-3,3c-2.6,0.7-5.3,0.9-7.9,0.7c-7.9-0.7-15.7-2.8-23.6,0.3c-1.9,0.8-4,1-4.9,3.4c-0.2,0.4-1.1,1-1.4,0.9
   c-0.9-0.6-1.4-1.7-1.1-2.8c0.1-3.2-0.4-3.8-3.6-3.9c-2.1-0.2-4.2-0.3-6.4-0.3c-0.8,0.2-1.5,0.8-1.7,1.6c0.1,1.8,0.4,3.6,0.8,5.3
   c-0.7,0-1.5,0.1-2.2,0.3c-0.7,0.4-1.6,1.4-1.5,1.9c0.8,3.2-0.1,5.2-2.9,7.1c-2.8,1.9-2.5,4,0.5,5.5c2.9,1.5,6.1,2.5,9,4
   c1.1,0.5,2,1.4,2.6,2.5c1.2,2.5,2,5.1,3,7.7c0.3,0.6,0.9,1,1.5,1.3c3.2,1.7,4,3,3.6,6.6c-0.2,2.2-0.8,2.5-2.8,1.3
   c-1-0.5-2-0.9-3.1-1.2c-0.9-0.3-2.1-0.3-2.8-0.9c-2.9-2.8-5.3-6.4-8.7-8.5c-4.9-3.1-10.5-5.3-15.8-7.7c-0.6-0.1-1.3,0-1.8,0.4
   c-2.5,2.5-2.2,4.9,0.7,6.9c1.3,0.9,3.3,1.4,4.1,2.6c1.6,2.6,3.8,2.9,6.4,3c3.3,0.1,5.2,2.2,5.4,5.8c0.1,2.3-1.4,3.3-4.9,3.8
   c-1,0.3-1.9,0.8-2.7,1.5c1,1.2,2,2.4,2.8,3.7c2.3,4.2,3.4,4.7,8,3.2c0.7-0.2,1.4-0.7,2-0.6c1.4,0.1,2.8,0.5,4,1.3
   c0.5,0.4,0.1,2.2-0.3,3.2c-0.6,1.7-1.5,3.3-2.5,4.8c-1,1.2-2.1,2.2-3.2,3.2c-1.1,1.4-1.9,3.3-3.3,4.3c-1.9,1.3-4.6,3.1-6.5,2.7
   c-1.8-0.4-3.7-0.1-5.1,1c-2.1,1.3-4.2,2.1-6.6,0.2c-1.1-1-2.6-1.4-4.1-1.3c-3,0.6-4.2-1.1-5.5-3.2c-1.3-1.9-1.8-4.2-1.2-6.4
   c0.5-2.3,0.9-4.6,1.2-6.9c0-0.8-0.2-1.7-0.5-2.5l-1-0.1c-1.4,3.9-3.3,7.8-4,11.9c-0.6,3.8-1.6,6.2-4,7.7l0,0l-0.3,0.1
   c-0.5,0.3-1,0.5-1.6,0.7l-8,3.8l-9.3,6.2c0.8,0.8,1.4,1,2,0.9c2.2-0.3,3.9-0.2,4.3,2.7c0.1,0.9,1.3,1.7,2.2,2.5
   c2.8,2.5,6,4.7,8.4,7.5c1.5,1.7,2.5,1.8,4.4,1.1c2.1-0.8,4.4-2,6.4-1.7c2.5,0.6,5-0.1,6.9-1.7c1.1-0.7,2.2-1.4,3.4-2
   c3.6-2.1,5.8-0.8,8.7,2.7c1.1,1.5,2,3.1,2.8,4.7c0.3,0,0.6-0.1,0.8-0.1c0.1-1.2,0.2-2.5,0.2-3.7c-0.2-1.4-0.3-2.9-0.3-4.4
   c0.1-1.1,0.8-2.6,1.6-2.9c0.7-0.3,2,0.8,3,1.4c1,0.6,1.8,1.8,2.8,2.1c3.8,1,6.9,3.8,8.2,7.6c0.1,0.4,0.6,1.1,0.9,1.1
   c0.6-0.1,1.1-0.4,1.4-0.8c0.3-0.5,0.5-1.1,0.7-1.7c0.9-2.1,2.8-1.4,4.3-1.3c1,0.2,1.9,0.8,2.4,1.7c0.9,2.3,2.2,2.8,4.3,1.1
   c1.9-1.5,3.7-3.3,5.7-4.6c0.8-0.5,2.7-0.8,3-0.4c0.6,1,0.8,2.3,0.6,3.5c-0.3,1-0.8,1.9-1.5,2.7c-1,1.4-0.4,2.4,0.7,3.4
   c0.7,0.8,1.9,1,2.7,0.3c0.2-0.1,0.3-0.3,0.4-0.5c1-1,1.8-2.2,2.4-3.5c1.7-5.5,2.2-11.3,5.4-16.4c4.2-6.8,9.3-12.2,17.2-14.3
   c1.7-0.4,2.2-1.3,2.3-2.9c0.2-2,0.7-3.9,1.5-5.7c1.3-2.7,3.3-2.8,5.3-0.6c0.8,0.9,1.6,1.8,3,3.3c0.3-1.7,0.4-2.6,0.6-3.5
   c0.3-1.3,0.4-2.9,1.2-3.9C466.9,567.3,466.7,563.7,466.3,560.5"/>
<path id="소사본동" data-name="소사본동" d="M312.5,468.2c-0.2,5.3,0.1,10.5-1.6,15.6c-2.1,6.3-4.1,12.7-6.2,19c-0.9,2.7-2,5.3-3,8
   c-0.4,1.1-0.8,2.3,1,2.5c4.8,0.5,7.9,3.4,10.5,7.2c2.6,3.8,2.7,3.6,6.5,1.4c2.1-1.3,4.3-2.5,6.5-3.9c1.3-0.8,2.1-0.8,2.9,0.7
   c0.8,1.5,0.5,2.5-1.1,3.1c-0.3,0.1-0.6,0.3-1,0.4c-5.6,2.2-5.5,3.3-4,7.6c0.5,2.1-0.6,4.2-2.6,4.9c-1.9,0.7-2.3,1.9-1.6,3.7
   c0.6,1.5,1.8,3.3,1.5,4.6c-0.7,2.7,1.4,5.4-0.5,8.1c-0.5,0.8-0.2,2.3,0.1,3.4c1.1,3.6,2.5,7.1,1.1,10.9c-0.3,1.3-0.9,2.6-1.6,3.8
   c-2.6,3.3-5.3,6.4-6.8,10.3c-0.3,0.8-1.5,1.3-2.4,1.7c-3.2,1.5-6.4,2.9-9.6,4.3c-0.5,0.3-1.1,0.3-1.7,0.2c-2.8-1-5.4-2.3-8-3.7
   c-2.6-1.7-4.9-1.3-7.3-0.1c-1,0.5-1.9,1.2-2.9,1.7c-2,0.9-3.7,0.9-5.2-1.2c-2.1-3-4.4-5.8-7-8.3c-1.1-1-3.6-1.7-4.8-1.2
   c-7.3,3.2-14.5,2.2-21.9,0.4c-5.3-1.3-9.6-7.4-9-12.8c0.3-3,0.3-6.1,0.3-9.1c0.1-2.3-1.8-2.9-3.4-3.3c-3.2-0.7-6.3-1.6-9-3.6
   c-0.4-0.3-1.2-0.3-1.4-0.7c-1.6-3.7-3.7-7.3-4.5-11.1c-0.4-2,0.3-4.4-0.5-6.5c-0.9-2.2-0.2-3.7,1.9-4.9c1.1-0.9,2-2,2.5-3.2
   c1.3-2.4,2.5-4.8,3.7-7.2c0.5-0.7,0.9-1.5,1.1-2.3c2-8,3.8-16,5.8-23.9c0.3-1.4,1-2.8,2-3.9c0.9-1,2.2-1.7,3.5-2
   c4.3-0.3,7.5-4,7.3-8.3c0-0.9-0.1-1.7-0.2-2.6c-0.1-2,0.9-3.2,2.9-3.1c2.3,0.1,4.6,0.6,6.9,0.7c1.5,0.1,3.6,1.1,4-1.7
   c0-0.3,1.1-0.6,1.8-0.6c10.1,0,20.1-0.1,30.2,0c0.6,0,1.7,0.2,1.9,0.6c0.8,2.4,2.8,1.8,4.5,2.1c4.5,0.7,9.1,1.5,13.6,2.2
   C309.3,468.1,310.7,468.1,312.5,468.2"/>
<path id="괴안동" data-name="괴안동" d="M302.5,512.1c0.6-1.9,1.2-3.5,1.7-5.1c2.9-8.8,6.1-17.5,8.7-26.4c1-3.3,0.7-7,0.7-10.6
   c0-1.9,0.9-2.7,2.6-3.3c14.1-5.2,28.3-10.4,42.3-15.8c5.9-2.2,11.7-4.8,17.3-7.7c3-1.6,5.5-4.2,8-6.5c6.1-5.8,12.1-11.7,18.1-17.5
   c1.8-1.8,3.6-3.1,5.9-0.8c0.7,0.5,1.5,0.8,2.4,1c3.6,1.4,5.1,3.5,5.3,7.4c0.2,2.6-0.9,5.4,1.1,7.8c0.2,0.2-0.1,1.1-0.4,1.4
   c-1.7,1.7-3.2,3.8-5.3,5c-3.9,2.3-8,4.4-12.1,6.2c-2.4,1-3.1,2.1-2.8,4.8c0.5,4.6,0.2,9.2,0.3,13.9c-0.1,0.7,0,1.4,0.2,2
   c2.7,4,1,7.7,0.1,11.8c-1.1,5-3.2,9.7-6.1,13.9c-0.7,0.9-1.7,1.5-2.9,1.6c-5.2-0.1-7.4,3.4-9.5,7.2c-0.5,0.9-0.9,2-1.7,2.5
   c-3.4,1.9-4.9,5-5.5,8.6c-0.2,0.8-0.4,1.5-0.6,2.2c-4.3-0.7-8.4-1.5-12.6-2.1c-2.1-0.3-4.3-0.1-6.4-0.4c-1.1-0.1-2.1-0.5-3-1.1
   c-3-2.2-6-1.9-9.5-1.3c-8.1,1.4-13.7,7.3-20.5,10.8c-1.7,0.9-2.9,1-3.8-0.8C312.2,516.1,307.7,512.8,302.5,512.1"/>
<path id="심곡본동" data-name="심곡본동" d="M151.9,498.2c3.5-2,5.2-5.7,5.9-10.1c0.3-1.9,0.9-3.1,3.2-2.6c0.5,0.1,1.7-1.1,1.7-1.8
   c0.6-6.2,1.1-12.4,1.6-18.6c0.4-5.4,0.8-10.9,1.1-16.3c0.1-1.6,1-2.1,2.4-1.8c1.4,0.3,2.7,0.6,4,1c1.6,0.5,3.1,1.4,4.1-1
   c0.1-0.3,1.6-0.3,2.3-0.1c5.2,1.1,10.3,3.1,15.5,3.3c8.9,0.3,17.3,2.7,25.8,4.5c6,1.2,11.9,3.1,17.9,4.6c4.7,1.2,9.4,2.2,14.1,3.3
   c0.9,0.3,1.8,0.6,2.7,1l-0.2,0.8c-1-0.1-2.1-0.1-3.1-0.2c-2.6-0.4-5.3-0.8-7.9-1.1c-1.3-0.2-2.2,0.2-1.9,1.9
   c0.2,1.6,0.1,3.2,0.2,4.9c0.3,4.8-2.1,7.6-6.9,7.7c-3.7,0.1-4.6,3.1-5.4,5.5c-1.7,5.1-2.9,10.3-4.2,15.5c-0.9,3.4-1.5,6.9-2.3,10.4
   c-0.1,0.5-0.3,1-0.7,1.4c-2.2,2.1-3.7,4.9-4.1,7.9c-0.2,1-1.4,1.9-2.3,2.5c-1.8,1.3-3,2.7-2.1,5c0.8,2.3-0.2,2.9-2.4,3.4
   c-4,1-7.9,2.6-11.9,3.5c-4.3,1.1-8.6,1.8-12.9-0.5c-2.6-1.3-5.4-2.2-8.2-2.8c-1-0.2-2.2,0.7-3.3,1c-1.9,0.6-3.9,1.1-5.8,1.6
   c-0.3,0.1-0.8-0.1-1,0c-3.3,2.2-5.3-0.3-7.7-1.9c-2-1.4-4.6-2-7-3c-0.5-0.2-1.2-0.6-1.3-1c-1.4-4.4-3.5-8.6-2.6-13.6
   c0.5-2.6,0.3-5.1,2.1-7.5C152.3,503.6,151.7,501,151.9,498.2"/>
<path id="송내동" data-name="송내동" d="M149.5,498.9c1.2,1.8,0.9,5.5,0,7.2c-0.8,1.3-1.2,2.7-1.3,4.2c-0.1,3.2,0.1,6.3,0.4,9.5
   c0.2,1.3,0.7,2.5,1.3,3.6c1.6,3.7-0.7,7.4-4.6,6.4c-4.4-1-8.9-1-13.3,0c-2.3,0.5-2.9-1.5-2.9-3.1c0.2-5.5-3-9-6.7-12.3
   c-1.3-1.2-2.6-2.5-3.7-3.9c-1.3-1.8-3.3-3.1-5.5-3.4c-3.4-0.7-6.7-1.6-10-2.6c-0.6-0.2-1.1-1-1.5-1.6c-1.7-3-5.1-4.5-8.5-3.8
   c-1.8,0.3-6.2-1.4-7-3.2c-1.5-3.3-2.7-6.6-4.1-10c-0.3-0.8-0.7-1.5-1.3-2c-1.8-1.5-3.8-2.8-5.7-4.3c-2.5-1.9-4.7-3.9-4.8-7.5
   c0-0.8-1.3-2-2.2-2.2c-1.9-0.5-1.8-1.4-1.5-2.9c0.7-2.4,1.3-4.9,1.7-7.3c0.1-0.9-0.8-2-1.3-2.9c-0.2-0.4-1-0.5-1.2-0.9
   c-3.1-4.2-7.6-6.5-12-9c-1.3-0.7-2.7-1.1-4-1.7c-2.8-1.3-5.6-2.7-8.3-4.2c-1.5-0.8-2.7-1-4.1,0c-0.6,0.4-1.4,0.7-2.1,0.6
   c-3.5-0.4-7-0.9-10.5-1.7c-2-0.5-3.8-1.9-5.8-2.7c-3.9-1.7-8-3.1-12.1-4.4c-4.3-1.2-7-7.3-4.2-10.9c0.4-0.5,1.7-0.6,2.6-0.5
   c7.9,0.8,15.8,1.7,23.7,2.5c9.6,1,19.3,1.9,28.9,2.9c10.1,1.1,20.3,2.2,30.4,3.3c0.2,0,0.3,0,0.5,0c6.8-1.3,12.9,1.6,19.3,2.9
   c17.5,3.6,35,7.5,52.5,11.2c4.7,1,3.9,1.4,3.7,4.6c-0.9,10.8-1.5,21.6-2.2,32.4c-0.1,1.9-0.3,3.8-3.1,3.1c-0.4-0.1-1.3,0.7-1.6,1.3
   c-0.4,0.9-0.7,2-0.8,3c-0.5,3.8-2.6,6.5-5.4,8.8C150.6,497.9,150.1,498.4,149.5,498.9"/>
</svg>
